<svg xmlns="http://www.w3.org/2000/svg" xmlns:cc="http://creativecommons.org/ns#" xmlns:dc="http://purl.org/dc/elements/1.1/" xmlns:inkscape="http://www.inkscape.org/namespaces/inkscape" xmlns:rdf="http://www.w3.org/1999/02/22-rdf-syntax-ns#" xmlns:sodipodi="http://sodipodi.sourceforge.net/DTD/sodipodi-0.dtd" inkscape:version="1.1 (c4e8f9e, 2021-05-24)" sodipodi:docname="definition-of-perifocal-frame.svg" id="svg5" width="350" height="325" style="--math-text-color:#44403c" viewBox="0 0 350 325"><sodipodi:namedview inkscape:current-layer="layer1" inkscape:cx="181.20711" inkscape:cy="185.1556" inkscape:document-units="px" inkscape:pagecheckerboard="false" inkscape:pageopacity="0.0" inkscape:pageshadow="2" inkscape:showpageshadow="false" inkscape:snap-object-midpoints="true" inkscape:window-height="847" inkscape:window-maximized="0" inkscape:window-width="1440" inkscape:window-x="304" inkscape:window-y="1105" inkscape:zoom="3.5456665" id="namedview7" bordercolor="#666666" borderlayer="false" borderopacity="1.0" pagecolor="#ffffff" scale-x="1" showborder="true" showgrid="true" units="px"><inkscape:grid id="grid823" dotted="true" originx="15" originy="-5" spacingx="1" spacingy="1" type="xygrid" visible="true"/></sodipodi:namedview><title>Definition Of Perifocal Frame</title><desc>The definition of the perifocal frame. The w direction is pointing direction towards the viewer.</desc><metadata><rdf:RDF><cc:Work><cc:license rdf:resource="http://creativecommons.org/licenses/by-sa/4.0/"/><dc:title>Definition Of Perifocal Frame</dc:title><dc:date>2026-06-21T22:10:00+00:00</dc:date><dc:format>image/svg+xml</dc:format><dc:type rdf:resource="http://purl.org/dc/dcmitype/StillImage"/><dc:creator><cc:Agent><dc:title>Bryan Weber</dc:title></cc:Agent></dc:creator></cc:Work><cc:License rdf:about="http://creativecommons.org/licenses/by-sa/4.0/"><cc:permits rdf:resource="http://creativecommons.org/ns#Reproduction"/><cc:permits rdf:resource="http://creativecommons.org/ns#Distribution"/><cc:requires rdf:resource="http://creativecommons.org/ns#Notice"/><cc:requires rdf:resource="http://creativecommons.org/ns#Attribution"/><cc:permits rdf:resource="http://creativecommons.org/ns#DerivativeWorks"/><cc:requires rdf:resource="http://creativecommons.org/ns#ShareAlike"/></cc:License></rdf:RDF></metadata><defs id="defs2"><marker inkscape:isstock="true" inkscape:stockid="Arrow2Mstart" id="Arrow2Mstart" orient="auto" refX="0.0" refY="0.0" style="overflow:visible"><path id="path1591" d="M8.719 4.034-2.207.016 8.719-4.002c-1.746 2.372-1.736 5.618 0 8.036" style="fill-rule:evenodd;fill:#000;stroke-width:.625;stroke-linejoin:round" transform="scale(.6)"/></marker><marker inkscape:isstock="true" inkscape:stockid="Arrow2Mend" id="Arrow2Mend" orient="auto" refX="0.0" refY="0.0" style="overflow:visible"><path id="path1594" d="M8.719 4.034-2.207.016 8.719-4.002c-1.746 2.372-1.736 5.618 0 8.036" style="fill-rule:evenodd;fill:#000;stroke-width:.625;stroke-linejoin:round" transform="scale(-.6)"/></marker><marker inkscape:isstock="true" inkscape:stockid="Arrow2Start" id="Arrow2MstartBlue" orient="auto" refX="0.0" refY="0.0" style="overflow:visible"><path d="M8.719 4.034-2.207.016 8.719-4.002c-1.746 2.372-1.736 5.618 0 8.036" style="fill-rule:evenodd;fill:#8da0cb;stroke-width:.625;stroke-linejoin:round" transform="scale(.6)"/></marker></defs><g inkscape:groupmode="layer" inkscape:label="Layer 1" id="layer1"><circle id="path937" cx="140" cy="195" r="10" style="fill:#000;fill-opacity:1;stroke:none;stroke-width:2;stroke-miterlimit:4;stroke-dasharray:none;stroke-opacity:1"/><path id="path1563" d="M140 195h115" style="fill:none;stroke:#000;stroke-width:1px;stroke-linecap:butt;stroke-linejoin:miter;stroke-opacity:1"/><path sodipodi:nodetypes="cc" id="path1565" d="M265 195h55" style="fill:none;stroke:#000;stroke-width:2;stroke-linecap:butt;stroke-linejoin:miter;stroke-miterlimit:4;stroke-dasharray:none;stroke-opacity:1;marker-end:url(#Arrow2Mend)"/><path sodipodi:nodetypes="cc" id="path1974" d="M140 70V15" style="fill:none;stroke:#000;stroke-width:2;stroke-linecap:butt;stroke-linejoin:miter;stroke-miterlimit:4;stroke-dasharray:none;stroke-opacity:1;marker-end:url(#Arrow2Mend)"/><path id="path2094" d="M140 195V80" style="fill:none;stroke:#000;stroke-width:1px;stroke-linecap:butt;stroke-linejoin:miter;stroke-opacity:1"/><path sodipodi:nodetypes="cc" id="path2228" d="m140 195 38-71" style="fill:none;stroke:#000;stroke-width:1px;stroke-linecap:butt;stroke-linejoin:miter;stroke-opacity:1;marker-end:url(#Arrow2Mend)"/><path sodipodi:arc-type="arc" sodipodi:cx="140" sodipodi:cy="195" sodipodi:end="0" sodipodi:open="true" sodipodi:rx="55" sodipodi:ry="55" sodipodi:start="5.2359878" sodipodi:type="arc" id="path2557" d="M167.5 147.369A55 55 0 0 1 195 195" style="fill:none;fill-opacity:1;stroke:#000;stroke-width:1;stroke-miterlimit:4;stroke-dasharray:none;stroke-opacity:1;marker-start:url(#Arrow2Mstart)"/><path id="path3030" d="M180 120v75" style="fill:none;stroke:#000;stroke-width:.75;stroke-linecap:butt;stroke-linejoin:miter;stroke-miterlimit:4;stroke-dasharray:3,3;stroke-dashoffset:0;stroke-opacity:1"/><path id="path3145" d="M180 120h-40" style="fill:none;stroke:#000;stroke-width:.75;stroke-linecap:butt;stroke-linejoin:miter;stroke-miterlimit:4;stroke-dasharray:3,3;stroke-dashoffset:0;stroke-opacity:1"/><path sodipodi:arc-type="arc" sodipodi:cx="13.999344" sodipodi:cy="197.07166" sodipodi:end="1.3089969" sodipodi:open="true" sodipodi:rx="216.36989" sodipodi:ry="121.34922" sodipodi:start="4.712389" sodipodi:type="arc" id="path847" d="M14 75.722a216.37 121.35 0 0 1 214.518 105.51A216.37 121.35 0 0 1 70 314.286" style="fill:none;stroke:#8da0cb;stroke-width:2;stroke-miterlimit:4;stroke-dasharray:none;stroke-opacity:1;marker-start:url(#Arrow2MstartBlue)"/><circle id="path1313" cx="180" cy="120" r="4" style="fill:#000;fill-opacity:1;stroke:none;stroke-width:2;stroke-miterlimit:4;stroke-dasharray:none;stroke-opacity:1"/><path id="path3260" d="M140 208v10" style="fill:none;stroke:#000;stroke-width:.75;stroke-linecap:butt;stroke-linejoin:miter;stroke-miterlimit:4;stroke-dasharray:none;stroke-opacity:1"/><path id="path3262" d="M140 213h40" style="fill:none;stroke:#000;stroke-width:.75;stroke-linecap:butt;stroke-linejoin:miter;stroke-miterlimit:4;stroke-dasharray:none;stroke-opacity:1"/><path id="path3264" d="M180 208v10" style="fill:none;stroke:#000;stroke-width:.75;stroke-linecap:butt;stroke-linejoin:miter;stroke-miterlimit:4;stroke-dasharray:none;stroke-opacity:1"/><path id="path3346" d="M117 195h10" style="fill:none;stroke:#000;stroke-width:.75;stroke-linecap:butt;stroke-linejoin:miter;stroke-miterlimit:4;stroke-dasharray:none;stroke-opacity:1"/><path sodipodi:nodetypes="cc" id="path3348" d="M122 195v-75" style="fill:none;stroke:#000;stroke-width:.75;stroke-linecap:butt;stroke-linejoin:miter;stroke-miterlimit:4;stroke-dasharray:none;stroke-opacity:1"/><path id="path3350" d="M117 120h10" style="fill:none;stroke:#000;stroke-width:.75;stroke-linecap:butt;stroke-linejoin:miter;stroke-miterlimit:4;stroke-dasharray:none;stroke-opacity:1"/><circle id="path23836" cx="230" cy="195" r="1.8890339" style="fill:#fff;fill-opacity:1;stroke:#000;stroke-width:.749999;stroke-miterlimit:4;stroke-dasharray:none;stroke-dashoffset:0;stroke-opacity:1"/><svg width="2.291ex" height="1.464ex" x="95.011215" y="155.37857" style="vertical-align:-.464ex" viewBox="0 -442 1012.8 647"><defs><path id="MJX-1-NCM-I-1D466" d="M163 442q-67.5 0-105-75c-19-39-29-66-29-81 0-9 5-14 16-14 14 0 15 6 19 21 23 79 55 119 96 119 13 0 20-9 20-27 0-16-5-39-16-68-38-103-57-172-57-209 0-76 47-121 124-121 33 0 64 12 92 36q-52.5-198-165-198-51 0-69 33 60 3 60 57c0 25-13 38-40 38-37 0-59-31-59-68 0-55 50-90 108-90C273-205 367-99 392-1l94 378c3 11 4 19 4 24 0 20-11 30-32 30-16 0-29-8-38-23-6-21-11-39-14-54L342 97c-10-36-63-81-108-81-38 0-57 25-57 76 0 42 17 106 50 192 13 35 20 59 20 73 0 49-35 85-84 85"/><path id="MJX-1-NCM-I-1D714" d="M505 391c0-11 4-21 12-28 25-21 37-49 37-83 0-13-1-25-4-36-20-76-73-176-154-176q-78 0-93 84c13 27 23 55 30 86 3 11 4 20 4 26 0 20-8 30-23 30-38 0-48-96-50-138-37-59-80-88-131-88-55 0-82 36-82 107 0 20 3 41 8 63 11 44 40 99 87 164q6 7.5 6 15c0 13-7 20-22 20-7 0-14-3-20-10-49-67-97-185-97-294Q13-11 121-11c57 0 106 33 149 98 14-65 52-98 113-98 33 0 64 13 92 39 47 44 82 114 106 210 15 61 23 104 23 131q0 43.5-21 63c-7 7-16 10-25 10-26 0-53-25-53-51"/></defs><g fill="var(--math-text-color)" stroke="var(--math-text-color)" stroke-width="0" data-latex="y_{\omega}" data-mml-node="math"><g data-latex="y_{\omega}" data-mml-node="msub"><use data-c="1D466" data-latex="y" data-mml-node="mi" href="#MJX-1-NCM-I-1D466" transform="scale(1 -1)"/><g data-latex="{\omega}" data-mjx-texclass="ORD" data-mml-node="TeXAtom"><use data-c="1D714" data-latex="\omega" data-mml-node="mi" href="#MJX-1-NCM-I-1D714" transform="matrix(.707 0 0 -.707 523 150)"/></g></g></g></svg><svg width="1.229ex" height="2.394ex" x="123.3717" y="40.261616" style="vertical-align:-.439ex" viewBox="0 -864 543 1058"><defs><path id="MJX-1-NCM-BI-1D492" d="M543 434c0 5-4 18-18 18 0 0-60-14-91-43-14 16-48 43-107 43-174 0-282-158-282-295C45 34 137-8 220-8c48 0 88 19 109 32l-38-152c-4-15-5-16-12-17-11-2-27-2-38-2-17 0-23 0-28-6s-8-23-8-23c0-6 4-18 20-18 34 0 71 3 106 3 37 0 75-3 111-3 7 0 26 0 26 29 0 17-17 18-26 18-14 0-30 0-43 1m13 504c0-4-1-11-2-14l-60-237c-5-17-5-19-16-29-32-32-74-50-109-50-62 0-67 54-67 76 0 52 34 175 50 214 31 73 80 98 121 98 59 0 83-47 83-58"/><path id="MJX-1-NCM-B-2C6" d="M465 525 288 710 111 525l18-22 158 99 158-99Z"/></defs><g fill="var(--math-text-color)" stroke="var(--math-text-color)" stroke-width="0" data-latex="\boldsymbol{\hat{q}}" data-mml-node="math"><g data-latex="\boldsymbol{\hat{q}}" data-mjx-texclass="ORD" data-mml-node="TeXAtom"><g data-mml-node="mover"><use data-c="1D492" data-latex="q" data-mml-node="mi" href="#MJX-1-NCM-BI-1D492" transform="scale(1 -1)"/><use data-c="2C6" data-mml-node="mo" href="#MJX-1-NCM-B-2C6" transform="matrix(1 0 0 -1 43.3 -54)"/></g></g></g></svg><svg width="1.36ex" height="2.394ex" x="289.47464" y="170.52322" style="vertical-align:-.439ex" viewBox="0 -864 601 1058"><defs><path id="MJX-1-NCM-BI-1D491" d="M586 287c0 123-92 165-175 165-71 0-123-39-139-54-38 54-104 54-115 54-37 0-66-21-87-57-25-40-38-94-38-99 0-14 15-14 24-14 11 0 15 0 20 5 2 2 2 4 8 29 20 80 43 100 68 100 11 0 23-4 23-37 0-15-2-29-6-43L52-129c-4-14-6-16-6-16-6-2-17-2-26-2-17 0-35 0-35-28 0-11 8-19 19-19 29 0 62 3 92 3 35 0 73-3 107-3 7 0 26 0 26 29 0 17-16 18-26 18-14 0-30 0-43 1l43 174c15-14 48-36 101-36 174 0 282 158 282 295m-113 53c0-52-34-175-50-214-31-73-80-98-121-98-59 0-83 47-83 58l2 14 61 251c29 34 76 65 124 65 62 0 67-54 67-76"/></defs><g fill="var(--math-text-color)" stroke="var(--math-text-color)" stroke-width="0" data-latex="\boldsymbol{\hat{p}}" data-mml-node="math"><g data-latex="\boldsymbol{\hat{p}}" data-mjx-texclass="ORD" data-mml-node="TeXAtom"><g data-mml-node="mover"><use data-c="1D491" data-latex="p" data-mml-node="mi" href="#MJX-1-NCM-BI-1D491" transform="scale(1 -1)"/><use data-c="2C6" data-mml-node="mo" href="#MJX-1-NCM-B-2C6" transform="matrix(1 0 0 -1 125 -54)"/></g></g></g></svg><svg width="2.477ex" height="1.357ex" x="149" y="225" style="vertical-align:-.357ex" viewBox="0 -442 1094.8 599.8"><defs><path id="MJX-1-NCM-I-1D465" d="M527 373c0 46-45 69-95 69-43 0-77-23-103-69-21 46-56 69-107 69-49 0-89-23-121-68-27-39-41-68-41-87 0-9 5-14 15-14 9 0 15 5 17 14 19 58 61 126 128 126 33 0 49-21 49-62 0-21-18-99-53-233-17-67-47-100-90-100-14 0-27 3-38 8q39 15 39 54c0 26-13 39-40 39-33 0-58-28-58-61 0-46 47-69 96-69 42 0 76 23 103 69 19-46 55-69 107-69 48 0 88 23 120 68 27 39 41 68 41 87 0 9-5 14-15 14-9 0-14-5-17-14-17-57-62-126-127-126-33 0-50 20-50 61 0 13 5 41 16 86l34 135c19 75 50 113 94 113 14 0 27-3 38-8-27-9-40-27-40-54 0-26 14-39 41-39 32 0 57 29 57 61"/></defs><g fill="var(--math-text-color)" stroke="var(--math-text-color)" stroke-width="0" data-latex="x_{\omega}" data-mml-node="math"><g data-latex="x_{\omega}" data-mml-node="msub"><use data-c="1D465" data-latex="x" data-mml-node="mi" href="#MJX-1-NCM-I-1D465" transform="scale(1 -1)"/><g data-latex="{\omega}" data-mjx-texclass="ORD" data-mml-node="TeXAtom"><use data-c="1D714" data-latex="\omega" data-mml-node="mi" href="#MJX-1-NCM-I-1D714" transform="matrix(.707 0 0 -.707 605 150)"/></g></g></g></svg><svg width="1.186ex" height="1ex" x="194" y="160" style="vertical-align:0" viewBox="0 -442 524 442"><defs><path id="MJX-1-NCM-I-1D708" d="M142 380c0-2-1-10-4-23-28-114-57-227-85-341C53 5 60 0 73 0h14c101 17 194 66 279 145 39 37 72 77 98 121 40 67 60 116 60 146 0 20-11 30-32 30-22 0-36-12-43-35-29-107-77-191-143-254-56-53-113-90-172-111l95 385v4c-3 7-9 11-17 11-33 0-106-9-119-10-15-2-23-9-23-23 0-11 9-16 27-16 19 0 45 1 45-13"/></defs><g fill="var(--math-text-color)" stroke="var(--math-text-color)" stroke-width="0" data-latex="\nu" data-mml-node="math"><use data-c="1D708" data-latex="\nu" data-mml-node="mi" href="#MJX-1-NCM-I-1D708" transform="scale(1 -1)"/></g></svg><svg width="2.974ex" height="1.339ex" x="105" y="210" style="vertical-align:-.339ex" viewBox="0 -442 1314.6 592"><defs><path id="MJX-1-NCM-I-1D45A" d="M657 442c-61 0-114-30-159-89-9 59-47 89-115 89-59 0-110-26-152-79-8 44-43 79-94 79-41 0-71-33-92-98-11-32-16-51-16-57 0-9 5-14 16-14 5 0 8 1 11 3 5 9 8 16 10 23 18 76 41 114 68 114q27 0 27-42c0-13-5-40-16-81L88 63c-4-12-9-38-9-44 0-20 11-30 32-30 20 0 34 10 41 30 1 5 8 30 19 73l21 89 30 114c11 23 28 46 50 70q43.5 48 108 48c33 0 49-22 49-65q0-19.5-15-81l-27-114c-7-29-23-89-31-121-1-7-2-11-2-13q0-30 33-30c11 0 19 3 26 10 15 15 16 22 22 49l59 237c3 13 17 36 41 68 30 40 70 60 119 60 33 0 49-22 49-65 0-39-20-112-61-219-9-23-13-42-13-55 0-49 37-85 85-85 45 0 79 25 104 75 20 40 30 67 30 80 0 9-5 14-16 14-7-1-14-10-19-21-22-79-54-119-97-119-13 0-20 10-20 29 0 15 6 37 18 68 41 107 61 180 61 218 0 71-47 109-118 109"/><path id="MJX-1-NCM-N-31" d="M269 666q-61.5-63-180-63v-39c52 0 95 8 128 24V82c0-18-4-30-13-35s-34-8-74-8H95V0q37.5 3 162 3t162-3v39h-35c-41 0-66 3-74 8s-13 17-13 35v554c0 24-2 30-28 30"/></defs><g fill="var(--math-text-color)" stroke="var(--math-text-color)" stroke-width="0" data-latex="m_1" data-mml-node="math"><g data-latex="m_1" data-mml-node="msub"><use data-c="1D45A" data-latex="m" data-mml-node="mi" href="#MJX-1-NCM-I-1D45A" transform="scale(1 -1)"/><use data-c="31" data-latex="1" data-mml-node="mn" href="#MJX-1-NCM-N-31" transform="matrix(.707 0 0 -.707 911 150)"/></g></g></svg><svg width="2.974ex" height="1.339ex" x="170" y="105" style="vertical-align:-.339ex" viewBox="0 -442 1314.6 592"><defs><path id="MJX-1-NCM-N-32" d="M237 666c-51 0-94-18-131-54s-56-78-56-129c0-34 25-59 56-59 30 0 55 26 55 56 0 33-24 56-56 56-3 0-5 0-7-1 19 49 63 92 126 92 82 0 128-71 128-157 0-67-34-139-102-215L62 43C49 28 50 29 50 0h371l29 180h-33c-8-51-15-80-21-89-5-5-35-7-90-7H139l97 95c68 64 154 133 183 186q30 52.5 30 105c0 118-92 196-212 196"/></defs><g fill="var(--math-text-color)" stroke="var(--math-text-color)" stroke-width="0" data-latex="m_2" data-mml-node="math"><g data-latex="m_2" data-mml-node="msub"><use data-c="1D45A" data-latex="m" data-mml-node="mi" href="#MJX-1-NCM-I-1D45A" transform="scale(1 -1)"/><use data-c="32" data-latex="2" data-mml-node="mn" href="#MJX-1-NCM-N-32" transform="matrix(.707 0 0 -.707 911 150)"/></g></g></svg><svg width="1.197ex" height="1.041ex" x="145" y="146" style="vertical-align:-.018ex" viewBox="0 -452 529 460"><defs><path id="MJX-1-NCM-BI-1D493" d="M505 365c0 46-36 87-98 87-56 0-103-28-133-60-24 46-81 60-117 60-37 0-65-21-87-57-24-39-38-93-38-99 0-14 15-14 24-14 11 0 15 0 20 5 2 2 2 4 8 29 19 76 41 100 68 100 15 0 23-10 23-36 0-18-3-29-14-76-16-63-33-126-48-190-6-26-18-71-18-78 0-21 16-44 47-44 20 0 55 12 66 53l70 281c4 15 4 17 17 32 23 29 60 58 110 58 25 0 36-11 39-14-55-11-61-60-61-70 0-22 17-46 50-46 34 0 72 28 72 79"/></defs><g fill="var(--math-text-color)" stroke="var(--math-text-color)" stroke-width="0" data-latex="\boldsymbol{r}" data-mml-node="math"><use data-c="1D493" data-latex="\boldsymbol{r}" data-mml-node="mi" href="#MJX-1-NCM-BI-1D493" transform="scale(1 -1)"/></g></svg></g><metadata id="metadata2427"><rdf:RDF/></metadata><style><![CDATA[[data-mml-node=merror]>g{fill:red;stroke:red}[data-frame],[data-line]{stroke-width:70px;fill:none}use[data-c]{stroke-width:3px}@media (prefers-color-scheme:dark){:root{background-color:#fff}}]]></style></svg>