<?xml version="1.0" encoding="UTF-8" standalone="no"?>
<svg xmlns:dc="http://purl.org/dc/elements/1.1/" xmlns:cc="http://creativecommons.org/ns#" xmlns:rdf="http://www.w3.org/1999/02/22-rdf-syntax-ns#" xmlns:svg="http://www.w3.org/2000/svg" xmlns="http://www.w3.org/2000/svg" xmlns:xlink="http://www.w3.org/1999/xlink" xmlns:sodipodi="http://sodipodi.sourceforge.net/DTD/sodipodi-0.dtd" xmlns:inkscape="http://www.inkscape.org/namespaces/inkscape" width="500" height="437" version="1.1" preserveAspectRatio="none" id="svg2" sodipodi:version="0.32" inkscape:version="0.92.1 r15371" sodipodi:docname="Hyperbolic_functions-2.svg" inkscape:output_extension="org.inkscape.output.svg.inkscape" viewBox="0 0 468.74998 409.6875">
  <metadata id="metadata46">
    <rdf:RDF>
      <cc:Work rdf:about="">
        <dc:format>image/svg+xml</dc:format>
        <dc:type rdf:resource="http://purl.org/dc/dcmitype/StillImage"/>
        <dc:title/>
      </cc:Work>
    </rdf:RDF>
  </metadata>
  <sodipodi:namedview inkscape:window-height="900" inkscape:window-width="1006" inkscape:pageshadow="2" inkscape:pageopacity="0.0" guidetolerance="10.0" gridtolerance="10.0" objecttolerance="10.0" borderopacity="1.0" bordercolor="#666666" pagecolor="#ffffff" id="base" showgrid="false" inkscape:zoom="1.0461538" inkscape:cx="260" inkscape:cy="171.7647" inkscape:window-x="148" inkscape:window-y="11" inkscape:current-layer="svg2" inkscape:window-maximized="0"/>
  <defs id="defs4">
    <inkscape:perspective sodipodi:type="inkscape:persp3d" inkscape:vp_x="0 : 210 : 1" inkscape:vp_y="0 : 1000 : 0" inkscape:vp_z="519.99998 : 210 : 1" inkscape:persp3d-origin="259.99999 : 140 : 1" id="perspective48"/>
    <path id="p2" d="m 401.421,310 c 8,11.314 23.938,33.205 58.579,73.205" inkscape:connector-curvature="0" style="stroke:#000000;stroke-width:2"/>
  </defs>
  <g id="g6275" transform="translate(-4.4806986,-4.9356615)">
    <path style="stroke:#000000;stroke-width:1" inkscape:connector-curvature="0" id="path7" d="m 60,210 h 400 m -20,-10 20,10 -20,10 M 260,10 V 410 M 250,30 260,10 270,30"/>
    <path style="stroke:#000000;stroke-width:2;stroke-dasharray:20, 10" inkscape:connector-curvature="0" id="path9" d="M 60,10 460,410 M 460,10 60,410"/>
    <path style="stroke:#000000;stroke-width:1;stroke-dasharray:10, 10" inkscape:connector-curvature="0" id="path11" d="M 160,210 V 310"/>
    <path style="stroke:#000000;stroke-width:0.01;stroke-dasharray:0.1, 0.1" inkscape:connector-curvature="0" id="path13" d="M 401.421,210 V 310"/>
    <path style="fill:none;stroke:#000000;stroke-width:2" inkscape:connector-curvature="0" id="path17" d="M 118.579,310 C 126.579,298.686 160,254 160,210 160,166 126.579,121.314 118.579,110"/>
    <use height="100%" width="100%" y="0" x="0" id="use19" xlink:href="#p2"/>
    <use height="100%" width="100%" y="0" x="0" id="use21" transform="matrix(-1,0,0,1,520,0)" xlink:href="#p2"/>
    <use height="100%" width="100%" y="0" x="0" id="use23" transform="matrix(1,0,0,-1,0,420)" xlink:href="#p2"/>
    <use height="100%" width="100%" y="0" x="0" id="use25" transform="rotate(180,260,210)" xlink:href="#p2"/>
    <path style="fill:none;stroke:#ff0000;stroke-width:1" inkscape:connector-curvature="0" id="path27" d="M 401.421,210 V 110 H 260"/>
    <text style="font-size:25px;line-height:0%;font-family:Times" id="text29" font-size="25" y="207" x="190">1</text>
    <text style="font-size:25px;line-height:0%;font-family:Times" id="text31" font-size="25" y="262" x="165">1</text>
    <text style="font-style:italic;font-size:25px;line-height:0%;font-family:Times" id="text33" font-style="italic" font-size="25" y="250" x="440">X</text>
    <text style="font-style:italic;font-size:25px;line-height:0%;font-family:Times" id="text35" font-style="italic" font-size="25" y="30" x="220">Y</text>
    <text style="font-size:25px;line-height:0%;font-family:Times" id="text37" font-size="25" y="103" x="280">cosh</text>
    <text style="font-style:italic;font-size:25px;line-height:0%;font-family:Times" id="text37a" font-style="italic" font-size="25" y="103" x="330">a</text>
    <text style="font-size:25px;line-height:0%;font-family:Times" id="text39" font-size="25" y="170" x="410">sinh</text>
    <text style="font-style:italic;font-size:25px;line-height:0%;font-family:Times" id="text39a" font-style="italic" font-size="25" y="170" x="458">a</text>
    <text style="font-style:italic;font-size:25px;line-height:0%;font-family:Times" id="text43" font-style="italic" font-size="25" y="150" x="10">x² – y² =</text>
    <text style="font-size:25px;line-height:0%;font-family:Times" id="text6244" font-size="25" y="150" x="100">1</text>
    <path inkscape:connector-curvature="0" style="fill:none;stroke:#000000;stroke-width:2" id="path2421" d="m 401.15167,309.70588 c -8,-11.314 -41.421,-56 -41.421,-100 0,-44 33.421,-88.686 41.421,-100"/>
    <path inkscape:connector-curvature="0" sodipodi:nodetypes="cc" id="path2423" d="M 260,210.66176 401.47059,110.29412" style="fill:none;fill-rule:evenodd;stroke:#000000;stroke-width:1px;stroke-linecap:butt;stroke-linejoin:miter;stroke-opacity:1"/>
    <path inkscape:connector-curvature="0" id="path2459" d="m 263.90316,209.09018 c 2.17321,-1.83505 129.01728,-91.42842 129.4421,-91.42842 0.31359,0 -0.68361,1.82813 -2.21592,4.0625 -18.55807,27.0607 -32.67346,63.14509 -32.67346,83.52595 v 4.17626 h -47.47551 c -26.11149,0 -47.29624,-0.15133 -47.07719,-0.33631 z" style="fill:#ff0000"/>
    <text style="font-style:italic;font-size:25px;line-height:0%;font-family:Times" id="text41" font-style="italic" font-size="25" y="195" x="315">a/2</text>
  </g>
</svg>