<svg xmlns="http://www.w3.org/2000/svg" xmlns:cc="http://creativecommons.org/ns#" xmlns:dc="http://purl.org/dc/elements/1.1/" xmlns:inkscape="http://www.inkscape.org/namespaces/inkscape" xmlns:rdf="http://www.w3.org/1999/02/22-rdf-syntax-ns#" xmlns:sodipodi="http://sodipodi.sourceforge.net/DTD/sodipodi-0.dtd" inkscape:version="1.1.1 (c3084ef, 2021-09-22)" sodipodi:docname="interplanetary-phase-angle.svg" id="svg5" width="480" height="460" style="--math-text-color:#44403c" viewBox="0 0 480 460"><sodipodi:namedview inkscape:bbox-nodes="true" inkscape:bbox-paths="true" inkscape:current-layer="layer1" inkscape:cx="355.21024" inkscape:cy="141.77773" inkscape:document-units="px" inkscape:guide-bbox="true" inkscape:object-nodes="true" inkscape:object-paths="true" inkscape:pagecheckerboard="false" inkscape:pageopacity="0.0" inkscape:pageshadow="2" inkscape:showpageshadow="false" inkscape:snap-bbox="false" inkscape:snap-bbox-edge-midpoints="true" inkscape:snap-bbox-midpoints="true" inkscape:snap-center="true" inkscape:snap-global="true" inkscape:snap-grids="false" inkscape:snap-intersection-paths="true" inkscape:snap-midpoints="true" inkscape:snap-nodes="true" inkscape:snap-object-midpoints="true" inkscape:snap-others="true" inkscape:snap-smooth-nodes="false" inkscape:snap-text-baseline="true" inkscape:snap-to-guides="false" inkscape:window-height="847" inkscape:window-maximized="0" inkscape:window-width="1440" inkscape:window-x="0" inkscape:window-y="25" inkscape:zoom="2.9376969" id="namedview7" bordercolor="#666666" borderlayer="false" borderopacity="1.0" fit-margin-bottom="20" fit-margin-left="20" fit-margin-right="20" fit-margin-top="20" lock-margins="true" pagecolor="#ffffff" showborder="true" showgrid="true" showguides="false" units="px"><inkscape:grid id="grid823" originx="-85.795364" originy="-76.027733" spacingx="2" spacingy="2" type="xygrid"/></sodipodi:namedview><title>Interplanetary Phase Angle</title><desc>A hypothetical Hohmann transfer with increasing radius. The initial phase angle between the initial and final planets is gamma_1 and the phase angle after the transfer is complete is gamma_2. Note that while the spacecraft travels 180° of true anomaly on the transfer trajectory (green), the initial planet (blue) travels more than 180° and the final planet (red) travels less than 180°.</desc><metadata><rdf:RDF><cc:Work><cc:license rdf:resource="http://creativecommons.org/licenses/by-sa/4.0/"/><dc:title>Interplanetary Phase Angle</dc:title><dc:date>2026-06-21T22:10:00+00:00</dc:date><dc:format>image/svg+xml</dc:format><dc:type rdf:resource="http://purl.org/dc/dcmitype/StillImage"/><dc:creator><cc:Agent><dc:title>Bryan Weber</dc:title></cc:Agent></dc:creator></cc:Work><cc:License rdf:about="http://creativecommons.org/licenses/by-sa/4.0/"><cc:permits rdf:resource="http://creativecommons.org/ns#Reproduction"/><cc:permits rdf:resource="http://creativecommons.org/ns#Distribution"/><cc:requires rdf:resource="http://creativecommons.org/ns#Notice"/><cc:requires rdf:resource="http://creativecommons.org/ns#Attribution"/><cc:permits rdf:resource="http://creativecommons.org/ns#DerivativeWorks"/><cc:requires rdf:resource="http://creativecommons.org/ns#ShareAlike"/></cc:License></rdf:RDF></metadata><defs id="defs2"><marker inkscape:isstock="true" inkscape:stockid="Arrow2Lstart" id="Arrow2Lstart" orient="auto" refX="0" refY="0" style="overflow:visible"><path id="path2500" d="M8.719 4.034-2.207.016 8.719-4.002c-1.746 2.372-1.736 5.618 0 8.036z" style="fill:context-stroke;fill-rule:evenodd;stroke:context-stroke;stroke-width:.625;stroke-linejoin:round" transform="translate(1.1)scale(1.1)"/></marker><marker inkscape:isstock="true" inkscape:stockid="Arrow2Lend" id="marker28984" orient="auto" refX="0" refY="0" style="overflow:visible"><path id="path28982" d="M8.719 4.034-2.207.016 8.719-4.002c-1.746 2.372-1.736 5.618 0 8.036z" style="fill:context-stroke;fill-rule:evenodd;stroke:context-stroke;stroke-width:.625;stroke-linejoin:round" transform="translate(-1.1)scale(-1.1)"/></marker><marker inkscape:isstock="true" inkscape:stockid="Arrow2Lend" id="marker5998" orient="auto" refX="0" refY="0" style="overflow:visible"><path id="path5996" d="M8.719 4.034-2.207.016 8.719-4.002c-1.746 2.372-1.736 5.618 0 8.036z" style="fill:context-stroke;fill-rule:evenodd;stroke:context-stroke;stroke-width:.625;stroke-linejoin:round" transform="translate(-1.1)scale(-1.1)"/></marker><marker inkscape:isstock="true" inkscape:stockid="Arrow2Lend" id="marker5793" orient="auto" refX="0" refY="0" style="overflow:visible"><path id="path5791" d="M8.719 4.034-2.207.016 8.719-4.002c-1.746 2.372-1.736 5.618 0 8.036z" style="fill:context-stroke;fill-rule:evenodd;stroke:context-stroke;stroke-width:.625;stroke-linejoin:round" transform="translate(-1.1)scale(-1.1)"/></marker><marker inkscape:isstock="true" inkscape:stockid="Arrow2Lend" id="marker3208" orient="auto" refX="0" refY="0" style="overflow:visible"><path id="path3206" d="M8.719 4.034-2.207.016 8.719-4.002c-1.746 2.372-1.736 5.618 0 8.036z" style="fill:context-stroke;fill-rule:evenodd;stroke:context-stroke;stroke-width:.625;stroke-linejoin:round" transform="translate(-1.1)scale(-1.1)"/></marker><marker inkscape:isstock="true" inkscape:stockid="Arrow2Lend" id="Arrow2Lend" orient="auto" refX="0" refY="0" style="overflow:visible"><path id="path2503" d="M8.719 4.034-2.207.016 8.719-4.002c-1.746 2.372-1.736 5.618 0 8.036z" style="fill:context-stroke;fill-rule:evenodd;stroke:context-stroke;stroke-width:.625;stroke-linejoin:round" transform="translate(-1.1)scale(-1.1)"/></marker></defs><g inkscape:groupmode="layer" inkscape:label="Layer 1" id="layer1" transform="translate(-85.795 -76.028)"><ellipse id="path847" cx="300" cy="300" rx="24.271936" ry="25" style="fill:#ffd92f;fill-opacity:1;stroke-width:1.99999;stroke-dasharray:6,1.99999"/><path id="path1016" d="M121.773 300c51.745-.092 178.243 0 178.243 0" style="fill:none;stroke:#000;stroke-width:1px;stroke-linecap:butt;stroke-linejoin:miter;stroke-opacity:1"/><path id="path1131" d="M146.039 420.223 300 300" style="fill:none;stroke:#000;stroke-width:1px;stroke-linecap:butt;stroke-linejoin:miter;stroke-opacity:1"/><ellipse id="path1005" cx="300" cy="300" rx="105.38434" ry="108.54546" style="fill:none;fill-opacity:1;stroke:#8da0cb;stroke-width:2;stroke-miterlimit:4;stroke-dasharray:none;stroke-opacity:1"/><ellipse id="path1139" cx="300" cy="300" rx="193.20464" ry="199" style="fill:none;fill-opacity:1;stroke:#fc8d62;stroke-width:2;stroke-miterlimit:4;stroke-dasharray:none;stroke-opacity:1"/><circle id="path1309" cx="195" cy="300" r="6.9999948" style="fill:#8da0cb;fill-opacity:1;stroke:#8da0cb;stroke-width:2.00001;stroke-miterlimit:4;stroke-dasharray:none;stroke-opacity:1"/><circle id="circle1545" cx="492" cy="300" r="6.9999948" style="fill:#fc8d62;fill-opacity:1;stroke:#fc8d62;stroke-width:2.00001;stroke-miterlimit:4;stroke-dasharray:none;stroke-opacity:1"/><path sodipodi:arc-type="arc" sodipodi:cx="343.91016" sodipodi:cy="300" sodipodi:end="3.1415927" sodipodi:open="true" sodipodi:rx="149.29449" sodipodi:ry="143.52126" sodipodi:start="0" sodipodi:type="arc" id="path1680" d="M493.205 300a149.294 143.521 0 0 1-74.648 124.293 149.294 143.521 0 0 1-149.294 0A149.294 143.521 0 0 1 194.616 300" style="fill:none;fill-opacity:1;stroke:#a6d854;stroke-width:2;stroke-miterlimit:4;stroke-dasharray:none;stroke-opacity:1"/><path inkscape:transform-center-x="2.5782889" inkscape:transform-center-y="0.0691444" sodipodi:arc-type="arc" sodipodi:cx="343.91016" sodipodi:cy="-300.13828" sodipodi:end="3.1415927" sodipodi:open="true" sodipodi:rx="149.29449" sodipodi:ry="143.52126" sodipodi:start="0" sodipodi:type="arc" id="path1891" d="M493.205-300.138a149.294 143.521 0 0 1-74.648 124.293 149.294 143.521 0 0 1-149.294 0 149.294 143.521 0 0 1-74.647-124.293" style="fill:none;fill-opacity:1;stroke:#a6d854;stroke-width:2;stroke-miterlimit:4;stroke-dasharray:4,2;stroke-dashoffset:0;stroke-opacity:1" transform="scale(1 -1)"/><circle id="circle1973" cx="146.03854" cy="420.22263" r="6.9999948" style="fill:none;fill-opacity:1;stroke:#fc8d62;stroke-width:2.00001;stroke-miterlimit:4;stroke-dasharray:6.00003,2.00001;stroke-dashoffset:0;stroke-opacity:1"/><circle id="circle1993" cx="367.78073" cy="216.88478" r="6.9999948" style="fill:none;fill-opacity:1;stroke:#8da0cb;stroke-width:2;stroke-miterlimit:4;stroke-dasharray:4,2;stroke-dashoffset:0;stroke-opacity:1"/><text xml:space="preserve" id="text24641" x="110" y="470" style="font-size:16px;line-height:1.25;font-family:sans-serif;-inkscape-font-specification:&quot;sans-serif, Normal&quot;;font-variant-ligatures:none"><tspan sodipodi:role="line" id="tspan24639" x="110" y="470">Final</tspan><tspan sodipodi:role="line" id="tspan24643" x="110" y="490">planet</tspan><tspan sodipodi:role="line" id="tspan24645" x="110" y="510">initial position</tspan></text><text xml:space="preserve" id="text27871" x="444.29456" y="108.18398" style="font-size:16px;line-height:1.25;font-family:sans-serif;-inkscape-font-specification:&quot;sans-serif, Normal&quot;;font-variant-ligatures:none"><tspan sodipodi:role="line" id="tspan27869" x="444.29456" y="108.18398">Initial</tspan><tspan sodipodi:role="line" id="tspan27873" x="444.29456" y="128.18399">planet</tspan><tspan sodipodi:role="line" id="tspan27875" x="444.29456" y="148.18399">final position</tspan></text><path sodipodi:nodetypes="cc" id="path28980" d="m444.271 107.96-77.16 98.956" style="fill:none;stroke:#000;stroke-width:.999998px;stroke-linecap:butt;stroke-linejoin:miter;stroke-opacity:1;marker-end:url(#marker28984)"/><path id="path29855" d="m150 432 30 58" style="fill:none;stroke:#000;stroke-width:1px;stroke-linecap:butt;stroke-linejoin:miter;stroke-opacity:1;marker-start:url(#Arrow2Lstart)"/><text xml:space="preserve" id="text33269" x="220" y="450" style="font-size:16px;line-height:1.25;font-family:sans-serif;-inkscape-font-specification:&quot;sans-serif, Normal&quot;;font-variant-ligatures:none"><tspan sodipodi:role="line" id="tspan33267" x="220" y="450">Transfer</tspan><tspan sodipodi:role="line" id="tspan33271" x="220" y="470">trajectory</tspan></text><path sodipodi:arc-type="arc" sodipodi:cx="300" sodipodi:cy="300" sodipodi:end="3.1415927" sodipodi:open="true" sodipodi:rx="138.61987" sodipodi:ry="138.61987" sodipodi:start="2.4765325" sodipodi:type="arc" id="path1235" d="M190.923 385.543A138.62 138.62 0 0 1 161.38 300" style="fill:none;stroke:#000;stroke-width:1;stroke-miterlimit:4;stroke-dasharray:none"/><path sodipodi:nodetypes="cc" id="path1512" d="M492 300H300" style="fill:none;stroke:#000;stroke-width:1px;stroke-linecap:butt;stroke-linejoin:miter;stroke-opacity:1"/><path id="path1987" d="M412.858 161.729 300.016 300.015" style="fill:none;stroke:#000;stroke-width:1px;stroke-linecap:butt;stroke-linejoin:miter;stroke-opacity:1"/><path sodipodi:arc-type="arc" sodipodi:cx="300.02426" sodipodi:cy="300" sodipodi:end="0.00043338533" sodipodi:open="true" sodipodi:rx="139.12425" sodipodi:ry="139.12425" sodipodi:start="5.3964939" sodipodi:type="arc" id="path2148" d="M387.948 192.18a139.12 139.12 0 0 1 51.2 107.88" style="fill:none;stroke:#000;stroke-width:1;stroke-miterlimit:4;stroke-dasharray:none"/><svg width="2.16ex" height="1.486ex" x="146.69337" y="347.19739" style="vertical-align:-.486ex" viewBox="0 -442 954.6 657"><defs><path id="MJX-1-NCM-I-1D6FE" d="M524 378c13 25 19 38 19 39 0 9-5 14-16 14q-10.5 0-15-9c-35-65-76-157-124-276-4 66-17 128-39 185q-43.5 111-135 111c-63 0-118-42-146-81-33-47-50-82-50-104 0-9 8-14 25-14l5 7q25.5 78 87 99c28 9 50 14 66 14 104 0 156-82 156-247q0-58.5-12-96-51-166.5-51-213c0-15 6-22 17-22 12 0 24 21 35 62q25.5 96 36 171c3 15 5 28 8 37 36 112 81 220 134 323"/><path id="MJX-1-NCM-N-31" d="M269 666q-61.5-63-180-63v-39c52 0 95 8 128 24V82c0-18-4-30-13-35s-34-8-74-8H95V0q37.5 3 162 3t162-3v39h-35c-41 0-66 3-74 8s-13 17-13 35v554c0 24-2 30-28 30"/></defs><g fill="var(--math-text-color)" stroke="var(--math-text-color)" stroke-width="0" data-latex="\gamma_1" data-mml-node="math"><g data-latex="\gamma_1" data-mml-node="msub"><use data-c="1D6FE" data-latex="\gamma" data-mml-node="mi" href="#MJX-1-NCM-I-1D6FE" transform="scale(1 -1)"/><use data-c="31" data-latex="1" data-mml-node="mn" href="#MJX-1-NCM-N-31" transform="matrix(.707 0 0 -.707 551 150)"/></g></g></svg><svg width="2.16ex" height="1.486ex" x="428.79211" y="229.3591" style="vertical-align:-.486ex" viewBox="0 -442 954.6 657"><defs><path id="MJX-1-NCM-N-32" d="M237 666c-51 0-94-18-131-54s-56-78-56-129c0-34 25-59 56-59 30 0 55 26 55 56 0 33-24 56-56 56-3 0-5 0-7-1 19 49 63 92 126 92 82 0 128-71 128-157 0-67-34-139-102-215L62 43C49 28 50 29 50 0h371l29 180h-33c-8-51-15-80-21-89-5-5-35-7-90-7H139l97 95c68 64 154 133 183 186q30 52.5 30 105c0 118-92 196-212 196"/></defs><g fill="var(--math-text-color)" stroke="var(--math-text-color)" stroke-width="0" data-latex="\gamma_2" data-mml-node="math"><g data-latex="\gamma_2" data-mml-node="msub"><use data-c="1D6FE" data-latex="\gamma" data-mml-node="mi" href="#MJX-1-NCM-I-1D6FE" transform="scale(1 -1)"/><use data-c="32" data-latex="2" data-mml-node="mn" href="#MJX-1-NCM-N-32" transform="matrix(.707 0 0 -.707 551 150)"/></g></g></svg></g><metadata id="metadata2427"><rdf:RDF/></metadata><style><![CDATA[[data-mml-node=merror]>g{fill:red;stroke:red}[data-frame],[data-line]{stroke-width:70px;fill:none}use[data-c]{stroke-width:3px}@media (prefers-color-scheme:dark){:root{background-color:#fff}}]]></style></svg>