<?xml version="1.0" encoding="UTF-8" standalone="no"?>
<!-- Created with Inkscape (http://www.inkscape.org/) -->

<svg
   width="1250"
   height="700"
   id="svg2"
   sodipodi:version="0.32"
   inkscape:version="1.1 (c4e8f9e, 2021-05-24)"
   version="1.0"
   sodipodi:docname="Orbital_Planes.svg"
   inkscape:output_extension="org.inkscape.output.svg.inkscape"
   xmlns:inkscape="http://www.inkscape.org/namespaces/inkscape"
   xmlns:sodipodi="http://sodipodi.sourceforge.net/DTD/sodipodi-0.dtd"
   xmlns:xlink="http://www.w3.org/1999/xlink"
   xmlns="http://www.w3.org/2000/svg"
   xmlns:svg="http://www.w3.org/2000/svg"
   xmlns:rdf="http://www.w3.org/1999/02/22-rdf-syntax-ns#"
   xmlns:cc="http://creativecommons.org/ns#"
   xmlns:dc="http://purl.org/dc/elements/1.1/">
  <defs
     id="defs4">
    <radialGradient
       r="149.30214"
       fy="315.40961"
       fx="298.10294"
       cy="315.40961"
       cx="298.10294"
       gradientTransform="matrix(0.9903768,0,0,0.9905151,371.62097,-74.41569)"
       gradientUnits="userSpaceOnUse"
       id="radialGradient20067"
       xlink:href="#linearGradient3364"
       inkscape:collect="always" />
    <radialGradient
       r="141.81195"
       fy="249.47238"
       fx="317.86237"
       cy="249.47238"
       cx="317.86237"
       spreadMethod="reflect"
       gradientTransform="matrix(0.8078147,0.4815414,-0.5366041,0.9294255,581.89889,-102.63201)"
       gradientUnits="userSpaceOnUse"
       id="radialGradient20064"
       xlink:href="#linearGradient6692"
       inkscape:collect="always" />
    <radialGradient
       r="130.08176"
       fy="309.10764"
       fx="298.66852"
       cy="309.10764"
       cx="298.66852"
       gradientTransform="matrix(0.2133222,0.7684886,-0.9933489,0.2757406,904.45229,-81.423018)"
       gradientUnits="userSpaceOnUse"
       id="radialGradient20061"
       xlink:href="#linearGradient3351"
       inkscape:collect="always" />
    <linearGradient
       id="linearGradient3351">
      <stop
         style="stop-color:#ffffff;stop-opacity:0.86734694;"
         offset="0"
         id="stop3353" />
      <stop
         style="stop-color:#ffffff;stop-opacity:0;"
         offset="1"
         id="stop3355" />
    </linearGradient>
    <linearGradient
       id="linearGradient3364">
      <stop
         style="stop-color:#007fff;stop-opacity:1;"
         offset="0"
         id="stop3366" />
      <stop
         id="stop3413"
         offset="0.39285713"
         style="stop-color:#1c8eff;stop-opacity:1;" />
      <stop
         style="stop-color:#1a4a7a;stop-opacity:1;"
         offset="1"
         id="stop3368" />
    </linearGradient>
    <linearGradient
       id="linearGradient6692">
      <stop
         style="stop-color:#b8ff71;stop-opacity:1;"
         offset="0"
         id="stop6694" />
      <stop
         id="stop6700"
         offset="1"
         style="stop-color:#66cc00;stop-opacity:1;" />
    </linearGradient>
    <linearGradient
       id="linearGradient3602">
      <stop
         style="stop-color:#ffffff;stop-opacity:1"
         offset="0"
         id="stop3604" />
      <stop
         style="stop-color:#ffffff;stop-opacity:0"
         offset="1"
         id="stop3606" />
    </linearGradient>
    <linearGradient
       id="linearGradient3586">
      <stop
         style="stop-color:#ffc800;stop-opacity:1"
         offset="0"
         id="stop3588" />
      <stop
         style="stop-color:#ffff00;stop-opacity:1"
         offset="0.84770292"
         id="stop3594" />
      <stop
         style="stop-color:#ffff00;stop-opacity:1"
         offset="1"
         id="stop3590" />
    </linearGradient>
    <linearGradient
       id="linearGradient3184">
      <stop
         style="stop-color:#ffea00;stop-opacity:1"
         offset="0"
         id="stop3186" />
      <stop
         style="stop-color:#ffff00;stop-opacity:0"
         offset="1"
         id="stop3188" />
    </linearGradient>
    <filter
       id="filter2797"
       x="-0.10039812"
       y="-0.09908572"
       width="1.2007962"
       height="1.1981714">
      <feGaussianBlur
         inkscape:collect="always"
         stdDeviation="18.047757"
         id="feGaussianBlur2799" />
    </filter>
    <filter
       id="filter3198"
       x="-0.023030032"
       y="-0.023030032"
       width="1.0460601"
       height="1.0460601">
      <feGaussianBlur
         inkscape:collect="always"
         stdDeviation="8.5814285"
         id="feGaussianBlur3200" />
    </filter>
    <radialGradient
       cx="325.71429"
       cy="478.07648"
       r="440.5"
       fx="325.71429"
       fy="478.07648"
       id="radialGradient3203"
       xlink:href="#linearGradient3184"
       gradientUnits="userSpaceOnUse"
       gradientTransform="matrix(1,0,0,0.9481109,26,10.806954)" />
    <radialGradient
       cx="278.57141"
       cy="442.58014"
       r="221.86427"
       fx="278.57141"
       fy="442.58014"
       id="radialGradient3592"
       xlink:href="#linearGradient3586"
       gradientUnits="userSpaceOnUse"
       gradientTransform="matrix(1,0,0,1.0128779,0,-5.9174624)" />
    <linearGradient
       x1="347.14285"
       y1="240.93361"
       x2="347.14285"
       y2="874.80634"
       id="linearGradient3600"
       xlink:href="#linearGradient3602"
       gradientUnits="userSpaceOnUse" />
    <filter
       id="filter3672"
       x="-0.051519737"
       y="-0.050846275"
       width="1.1030395"
       height="1.1016925">
      <feGaussianBlur
         inkscape:collect="always"
         stdDeviation="6.6987856"
         id="feGaussianBlur3674" />
    </filter>
    <marker
       style="overflow:visible"
       id="Arrow1Mend"
       refX="0"
       refY="0"
       orient="auto"
       inkscape:stockid="Arrow1Mend">
      <path
         transform="matrix(-0.4,0,0,-0.4,-4,0)"
         style="fill-rule:evenodd;stroke:#000000;stroke-width:1pt;marker-start:none"
         d="M 0,0 L 5,-5 L -12.5,0 L 5,5 L 0,0 z "
         id="path4303" />
    </marker>
  </defs>
  <sodipodi:namedview
     id="base"
     pagecolor="#ffffff"
     bordercolor="#666666"
     borderopacity="1.0"
     gridtolerance="10000"
     guidetolerance="10"
     objecttolerance="10"
     inkscape:pageopacity="0.0"
     inkscape:pageshadow="2"
     inkscape:zoom="0.84935196"
     inkscape:cx="635.19015"
     inkscape:cy="318.4781"
     inkscape:document-units="px"
     inkscape:current-layer="g2440"
     width="1250px"
     height="700px"
     inkscape:window-width="1920"
     inkscape:window-height="1027"
     inkscape:window-x="0"
     inkscape:window-y="25"
     showgrid="false"
     inkscape:window-maximized="0"
     inkscape:pagecheckerboard="0" />
  <metadata
     id="metadata7">
    <rdf:RDF>
      <cc:Work
         rdf:about="">
        <dc:format>image/svg+xml</dc:format>
        <dc:type
           rdf:resource="http://purl.org/dc/dcmitype/StillImage" />
      </cc:Work>
    </rdf:RDF>
  </metadata>
  <g
     inkscape:label="Layer 1"
     inkscape:groupmode="layer"
     id="layer1"
     transform="translate(191.1561,-155.44431)">
    <g
       id="g2440"
       inkscape:label="Layer 1"
       transform="translate(-178.43546,122.31351)">
      <g
         transform="matrix(0.1961803,0,0,0.1961803,20.006019,249.13464)"
         id="g2209">
        <path
           d="M 23.142857,98.36218 C 108.6307,248.00504 326.39797,284.82613 274.57143,1.219325 C 326.21555,240.7158 552.19749,204.15041 594.57144,49.790754 C 471.73056,336.37633 657.32432,305.42688 791.71429,275.50504 C 564.4553,430.63674 641.55869,514.48759 800.28572,578.36218 C 483.69843,519.50805 545.82628,767.6888 628.85714,895.50504 C 509.37447,720.59892 337.46829,627.5954 243.14286,886.93361 C 261.17657,664.30142 121.02311,599.14128 -56.857143,769.79075 C 71.570364,550.53908 144.30431,463.37152 -94,395.50504 C 102.91137,401.72232 192.30858,329.54125 23.142857,98.36218 z "
           style="fill:url(#radialGradient3203);fill-opacity:1;fill-rule:nonzero;stroke:none;stroke-width:1px;stroke-linecap:butt;stroke-linejoin:miter;stroke-opacity:1;filter:url(#filter3198)"
           id="path2801" />
        <path
           d="M 562.85713,459.50504 C 562.85713,580.21871 466.27856,678.07647 347.14285,678.07647 C 228.00714,678.07647 131.42857,580.21871 131.42857,459.50504 C 131.42857,338.79137 228.00714,240.93361 347.14285,240.93361 C 466.27856,240.93361 562.85713,338.79137 562.85713,459.50504 L 562.85713,459.50504 z "
           style="fill:url(#radialGradient3592);fill-opacity:1;fill-rule:evenodd;stroke:#f6c600;stroke-width:12.30000019;stroke-linecap:butt;stroke-linejoin:round;stroke-miterlimit:4;stroke-dasharray:none;stroke-opacity:1;filter:url(#filter3672)"
           id="path2176" />
        <path
           d="M 562.85713,459.50504 C 562.85713,580.21871 466.27856,678.07647 347.14285,678.07647 C 228.00714,678.07647 131.42857,580.21871 131.42857,459.50504 C 131.42857,338.79137 228.00714,240.93361 347.14285,240.93361 C 466.27856,240.93361 562.85713,338.79137 562.85713,459.50504 L 562.85713,459.50504 z "
           transform="matrix(0.7078954,0,0,0.4437398,97.116338,147.03293)"
           style="fill:url(#linearGradient3600);fill-opacity:1;fill-rule:evenodd;stroke:none;stroke-width:12.30000019;stroke-linecap:butt;stroke-linejoin:round;stroke-miterlimit:4;stroke-dasharray:none;stroke-opacity:1;filter:url(#filter2797)"
           id="path3596" />
      </g>
      <path
         id="path2325"
         d="M 141.68531,338.3802 L 1204.029,338.3802"
         style="fill:none;fill-rule:evenodd;stroke:#000000;stroke-width:3;stroke-linecap:butt;stroke-linejoin:miter;stroke-miterlimit:4;stroke-dasharray:12, 24;stroke-dashoffset:0;stroke-opacity:1" />
      <path
         sodipodi:nodetypes="ccc"
         id="path3320"
         d="M 771.2748,540.56554 L 688.6301,212.32575 L 664.19863,115.29132"
         style="fill:none;fill-rule:evenodd;stroke:#000000;stroke-width:3;stroke-linecap:butt;stroke-linejoin:miter;marker-start:none;marker-end:url(#Arrow1Mend);stroke-miterlimit:4;stroke-dasharray:none;stroke-opacity:1" />
      <g
         transform="matrix(0.8756291,0,0,0.8756291,405.2585,-27.527535)"
         inkscape:label="layer2"
         id="layer2" />
      <path
         sodipodi:nodetypes="cc"
         id="path4492"
         d="M 689.1999,214.03372 L 680.36107,179.436"
         style="fill:none;fill-rule:evenodd;stroke:#000000;stroke-width:3;stroke-linecap:butt;stroke-linejoin:miter;stroke-miterlimit:4;stroke-dasharray:none;stroke-opacity:1" />
      <text
         transform="rotate(-30)"
         id="text9395"
         y="643.79083"
         x="657.07288"
         style="font-style:normal;font-variant:normal;font-weight:normal;font-stretch:normal;line-height:0%;font-family:Arial;text-align:start;writing-mode:lr-tb;text-anchor:start;fill:#000000;fill-opacity:1;stroke:none;stroke-width:1px;stroke-linecap:butt;stroke-linejoin:miter;stroke-opacity:1"
         xml:space="preserve"><tspan
           y="643.79083"
           x="657.07288"
           id="tspan9397"
           sodipodi:role="line"
           style="font-size:40px;line-height:1.25">Equatorial plane</tspan></text>
      <path
         id="path9411"
         d="M 1162.9842,79.560232 L 307.40733,573.52776"
         style="fill:none;fill-rule:evenodd;stroke:#000000;stroke-width:3;stroke-linecap:butt;stroke-linejoin:miter;stroke-miterlimit:4;stroke-dasharray:3, 18;stroke-dashoffset:0;stroke-opacity:1" />
      <g
         id="g2482"
         transform="translate(14.285714,31.428571)">
        <a
           id="a2479">
          <path
             d="M 707.53309,174.17382 C 684.34565,174.17382 662.60365,180.27311 643.71581,190.87867 C 643.70397,190.88525 643.68021,190.87201 643.66845,190.87867 C 631.44636,197.74634 620.51196,206.57911 611.12111,216.85863 C 589.87577,240.11464 576.77611,270.96285 576.77611,304.92542 C 576.77611,377.10903 635.37252,435.67687 707.53309,435.67694 C 709.80417,435.67694 712.00808,435.46022 714.25069,435.34565 C 717.85931,435.16113 721.4164,434.87115 724.94205,434.39912 C 757.63484,430.02412 786.51171,413.64938 806.92529,389.7268 C 826.41631,366.88555 838.24271,337.28759 838.24271,304.92542 C 838.24271,288.40994 835.0839,272.67643 829.49086,258.12365 C 826.74775,250.98602 823.35729,244.15281 819.46176,237.68037 C 802.57935,209.63013 775.55099,188.47062 743.39188,179.28467 C 731.97524,176.02367 719.99165,174.17382 707.53309,174.17382 z "
             style="fill:url(#radialGradient20067);fill-opacity:1;fill-rule:nonzero;stroke:none;stroke-width:0.27755311;stroke-miterlimit:4;stroke-dasharray:none;stroke-opacity:1;display:inline"
             id="path6109" />
        </a>
        <path
           id="path6111"
           style="fill:url(#radialGradient20064);fill-opacity:1;fill-rule:nonzero;stroke:none;stroke-width:0.27755311;stroke-miterlimit:4;stroke-dasharray:none;stroke-opacity:1;display:inline"
           d="M 689.01765,178.29138 C 688.54701,178.29138 687.80249,178.37728 687.48317,178.80313 C 687.17497,179.21414 686.8791,179.74825 686.54556,180.0818 C 686.34572,180.28168 686.13647,180.8492 685.60781,180.8492 C 685.30283,180.8492 684.2928,180.68465 684.07346,180.8492 C 683.66706,181.15421 683.09375,181.44373 682.9653,181.95753 C 682.80035,182.61747 682.24153,182.51081 681.77201,182.9805 C 681.50695,183.24566 680.8871,183.73473 680.49332,183.8332 C 679.97856,183.96182 679.52684,184.08877 678.95891,184.0889 C 678.52677,184.0889 677.92662,183.98477 677.50974,184.0889 C 676.82912,184.25911 676.47281,184.88112 675.8902,185.02671 C 675.3605,185.15918 675.12047,185.37104 674.86722,185.7088 C 674.54009,186.14497 673.77947,186.39075 673.24761,186.39075 C 672.43086,186.39075 672.39538,186.5398 671.79843,186.98754 C 671.37442,187.30559 670.63337,187.41379 670.09351,187.41379 C 669.36877,187.41379 668.34192,187.43707 667.70674,187.75473 C 667.27428,187.97119 666.70091,188.05316 666.51338,188.52219 C 666.21396,189.27075 665.963,189.35147 665.23471,189.71589 C 664.81102,189.92782 663.87714,190.2208 663.5298,190.5682 C 663.26495,190.83329 663.11795,191.77687 662.76275,191.84721 C 662.78782,191.86225 663.32125,192.32769 663.44461,192.35862 C 663.96881,192.48984 664.65074,192.44393 665.23471,192.44393 C 665.94054,192.44393 666.55652,192.52923 667.28049,192.52923 C 667.90304,192.52923 668.27311,192.10291 668.81491,192.10291 C 669.54052,192.10291 670.26283,192.10265 670.94601,192.27346 C 671.51552,192.41577 672.05216,192.61446 672.65079,192.61446 C 673.28474,192.61446 673.64203,192.5798 674.18522,192.44393 C 674.87461,192.27152 675.28973,192.30672 675.63438,191.84721 C 675.93761,191.44272 676.19316,191.19373 676.57206,190.90928 C 676.87489,190.68218 678.02129,189.45999 678.27692,189.45986 C 678.91222,189.45986 679.37658,189.2705 679.9817,189.11898 C 680.3976,189.01498 680.4139,188.01177 680.83425,188.09588 C 681.08116,188.14532 681.58782,188.76014 681.85712,188.69266 C 682.09152,188.63398 682.38164,188.5703 682.62436,188.60756 C 682.86708,188.64442 683.06363,188.82994 683.13585,189.11898 C 683.27787,189.68715 683.44169,189.66892 683.73247,190.05678 C 683.87501,190.24688 684.58293,191.08813 684.49964,191.42095 C 684.39848,191.82619 684.30196,192.50554 684.41459,192.95542 C 684.5274,193.40728 684.54887,193.90631 684.75545,194.31959 C 684.89354,194.59586 685.28365,195.23876 685.3522,195.51309 C 685.48571,196.04767 685.78277,196.03344 686.03419,196.5362 C 686.33349,197.13518 686.18459,197.39614 685.94895,197.98548 C 685.74735,198.48965 685.45343,199.07313 685.60781,199.69068 C 685.63977,199.81803 685.66138,199.9893 685.6932,200.11699 C 685.7884,200.49846 685.84307,200.705 685.94895,200.79888 C 686.05462,200.89284 686.20318,200.88426 686.63073,200.88426 C 687.13378,200.88426 687.82718,200.88724 688.07992,201.13989 C 688.42163,201.48184 688.76197,201.67386 688.76197,202.16299 C 688.76197,202.51498 688.56744,203.45385 688.25035,203.61235 C 688.02119,203.72705 687.3128,204.3426 687.3128,204.72061 C 687.3128,205.19544 687.39799,205.73141 687.39799,206.16996 C 687.39799,206.26578 687.37474,206.41835 687.39799,206.51111 C 687.53948,207.07715 687.6599,207.80196 687.90948,208.3014 C 688.10597,208.69432 688.54662,209.04171 688.76197,209.58028 C 688.95218,210.05609 688.97097,210.76567 689.18816,211.20016 C 689.42812,211.68025 689.66815,212.07522 689.87007,212.47892 C 690.10926,212.95733 690.25311,213.88508 690.63726,214.2694 C 691.08995,214.72214 691.27099,215.02921 691.66031,215.54815 C 691.9943,215.99376 692.41858,216.56233 692.76828,216.9122 C 693.07897,217.22307 693.3958,217.62503 693.79142,218.02054 C 694.60546,218.83491 695.09705,219.31286 696.09287,219.81096 C 696.60286,220.06607 697.19522,220.31946 697.71248,220.57822 C 698.29711,220.87066 698.79132,221.25958 699.2469,221.60132 C 699.76494,221.98991 700.30354,222.55183 701.03706,222.36858 C 701.67276,222.20956 702.65104,222.32879 703.25334,222.02744 C 703.45147,221.92849 703.66957,221.86401 703.85001,221.68663 C 704.03067,221.50916 704.18388,221.24607 704.02046,220.9191 C 703.88768,220.65347 703.59428,220.22198 703.59428,219.81096 C 703.59428,219.11237 703.42385,218.48371 703.42385,217.7649 C 703.42385,217.2556 703.39333,216.86356 703.50903,216.40065 C 703.60043,216.03468 703.62629,215.50637 703.50903,215.03667 C 703.36466,214.45851 703.48192,213.9049 703.33859,213.33147 C 703.21956,212.85519 703.25334,212.24177 703.25334,211.71172 C 703.25334,211.21487 703.22505,210.80194 703.33859,210.34768 C 703.47209,209.81356 703.42385,209.25664 703.42385,208.72778 C 703.42385,208.27432 703.34795,207.77109 703.50903,207.44891 C 703.67358,207.11967 703.88905,206.32759 704.36146,206.16996 C 704.7602,206.03716 706.15162,205.73579 706.15162,205.23231 C 706.15162,204.67084 706.0982,204.25158 705.98106,203.78295 C 705.84638,203.24418 705.493,202.71327 705.81063,202.07783 C 706.17572,201.34729 706.89058,201.14921 707.34504,200.54324 C 707.60373,200.1981 708.05178,199.8364 708.45302,199.43483 C 708.75467,199.13335 709.41696,198.87118 709.56133,198.58234 C 709.74833,198.20832 709.98757,197.65146 709.98757,197.21815 C 709.98757,196.91294 710.12022,195.83521 709.81702,195.68357 C 709.37584,195.46306 708.8794,195.54051 708.8794,195.00155 C 708.8794,194.6433 709.26597,193.81416 709.13515,193.5522 C 708.92838,193.1384 708.69783,192.78215 708.02691,192.61446 C 707.49825,192.48226 706.77128,192.38031 706.23687,192.27346 C 705.91316,192.20871 705.1767,192.11357 705.04345,191.84721 C 704.89161,191.54339 704.74351,190.71658 704.44678,190.5682 C 703.96315,190.32633 703.41691,190.31256 702.82703,190.31256 C 702.67801,190.31256 700.83866,189.87181 701.46331,189.71589 C 702.08421,189.56053 702.06582,189.44822 702.31561,188.94844 C 702.45736,188.66492 702.74218,188.18157 702.4861,187.84017 C 702.12946,187.36429 701.64395,187.16832 701.29268,186.817 C 700.82643,186.35057 699.74654,186.13504 699.0764,186.13504 C 698.98094,186.13504 698.9133,186.1582 698.82065,186.13504 C 698.44293,186.04056 698.09093,185.66096 697.79773,185.36771 C 697.36323,184.93289 696.57608,184.74252 696.00763,184.60046 C 695.57738,184.49292 695.31404,184.12857 694.81427,184.00354 C 694.32124,183.88044 693.79278,183.87632 693.27985,183.7479 C 692.61011,183.58035 691.89543,183.45379 691.23393,183.32145 C 690.98834,183.27247 689.25402,183.14399 689.35858,182.72479 C 689.42262,182.46829 689.75197,181.8723 690.12576,181.8723 C 690.6387,181.8723 691.24461,181.97257 691.74549,181.8723 C 692.39914,181.74148 693.0698,181.61633 693.79142,181.61652 C 694.44964,181.61652 695.11224,181.65904 695.75181,181.787 C 696.55127,181.94702 697.43683,181.84588 698.22397,182.04277 C 698.84233,182.19734 699.79499,182.29848 700.44025,182.29848 C 701.34924,182.29848 702.40799,182.21318 703.33859,182.21318 C 704.76027,182.21318 706.0301,181.8723 707.43023,181.8723 C 708.24037,181.8723 708.51732,181.37838 709.13515,181.27551 C 709.44819,181.22328 709.71459,181.13299 709.81702,181.0196 C 709.9196,180.90656 709.83024,180.78851 709.39083,180.67859 C 708.85616,180.54498 708.23963,180.73169 707.68597,180.59335 C 707.26988,180.48936 706.60891,180.33778 706.15162,180.33778 C 705.4938,180.33778 704.93063,180.25247 704.27627,180.25247 C 703.80798,180.25247 703.38541,180.38975 702.91248,180.50812 C 702.28935,180.66402 701.6907,180.50812 701.03706,180.50812 C 700.36797,180.50812 699.66017,180.50812 698.99115,180.50812 C 698.07521,180.50812 697.11324,180.33778 696.26337,180.33778 C 695.70945,180.33778 695.16764,180.25247 694.72895,180.25247 C 693.85812,180.25247 692.84869,180.25002 692.17161,179.91147 C 691.54043,179.59561 691.08256,179.40457 690.38151,179.22931 C 690.05747,179.14826 689.30601,178.29138 689.01765,178.29138 z M 743.40308,179.31448 C 742.33459,179.53712 741.23144,179.6656 740.24906,179.91147 C 739.00633,180.22207 738.24014,180.79443 737.0951,180.50812 C 736.29846,180.30897 735.54189,180.24868 734.70826,180.0818 C 734.9788,180.35255 734.84869,180.70541 734.62301,181.0196 C 734.39732,181.33394 734.02777,181.57281 733.85577,181.70169 C 733.83063,181.72052 731.89032,181.93738 731.80991,181.95753 C 731.34799,182.07298 731.52798,182.38392 731.80991,182.72479 C 732.09199,183.06588 732.52406,183.37229 732.66248,183.40681 C 733.7165,183.67051 735.0467,184.30064 735.98686,184.77086 C 736.39097,184.97301 736.58014,185.13257 736.66873,185.36771 C 736.75751,185.60273 736.74638,185.93383 736.83929,186.30558 C 737.02262,187.03918 737.12987,187.26068 737.77703,187.58439 C 738.343,187.86745 739.61304,187.92547 740.24906,187.92547 C 741.27952,187.92547 742.80333,188.43603 743.57358,188.69266 C 744.22284,188.90912 745.18696,189.62435 745.61936,190.05678 C 746.06845,190.50612 746.4968,190.772 746.98335,191.42095 C 747.54676,192.17225 748.11693,192.58446 748.85863,192.95542 C 749.49976,193.27613 750.50213,193.26575 750.90448,193.4669 C 751.63662,193.83313 752.52624,194.40696 753.03564,194.91632 C 753.63645,195.51736 754.11395,196.07988 754.56994,196.5362 C 755.16222,197.12859 755.30444,197.79046 756.0191,198.32656 C 756.75066,198.87544 757.33798,199.30448 757.89453,199.86122 C 758.54005,200.50678 759.11682,200.82776 759.68469,201.39567 C 760.13136,201.84253 760.57358,202.4917 761.30429,202.67461 C 762.29834,202.92314 762.93058,202.28935 763.77639,202.07783 C 764.19072,201.97402 765.69044,203.53476 765.90735,203.69777 C 766.41013,204.07459 766.89564,204.82202 767.1009,205.23231 C 767.33426,205.69934 768.12501,206.34196 768.46476,206.68165 C 769.12161,207.33858 769.27764,207.4718 770.08437,207.87516 C 770.41501,208.0405 770.79209,208.06785 771.10716,207.96039 C 771.42256,207.85326 771.63967,207.62024 771.70397,207.36346 C 771.88207,206.65097 772.15542,206.27097 771.95965,205.48801 C 771.84441,205.02662 771.91598,204.50137 772.13009,204.12389 C 772.34452,203.74649 772.69324,203.55293 773.32364,203.86812 C 773.77391,204.09355 774.06042,204.83034 774.26137,205.23231 C 774.54462,205.79934 774.94323,206.54923 774.94323,207.36346 C 774.94323,208.08641 774.94323,208.55792 774.94323,209.32451 C 774.94323,209.63497 778.52855,211.6314 778.6087,211.71172 C 779.06827,212.17111 779.68773,212.45956 780.22823,212.81993 C 780.82321,213.21669 781.20769,213.60814 782.01833,214.01357 C 782.47803,214.24347 782.72579,214.66991 782.87089,215.12184 C 783.01584,215.57377 783.05003,216.02504 782.95613,216.40065 C 782.85092,216.82204 783.20705,217.78419 783.04138,218.44685 C 782.91299,218.96086 782.81812,219.36828 782.87089,219.64042 C 782.92353,219.91257 783.1434,220.03241 783.72325,220.32238 C 784.56428,220.74291 784.88217,221.41009 785.7691,221.94227 C 786.23305,222.22074 786.59696,225.47362 786.87733,226.03461 C 787.20033,226.6807 787.56293,227.55416 787.38877,228.25122 C 787.19968,229.0077 786.87733,229.56895 786.87733,230.38259 C 786.87733,230.96247 786.4228,231.77472 786.28059,232.34349 C 786.14512,232.88625 785.88715,233.45929 785.7691,233.87808 C 785.65112,234.29681 785.67318,234.57288 786.28059,234.81587 C 787.07023,235.13187 788.36959,235.4979 789.1788,235.4979 C 790.03509,235.4979 790.88024,235.4979 791.73615,235.4979 C 792.14275,235.4979 792.55315,236.31406 792.92957,237.20303 C 793.30611,238.09199 793.62242,239.04781 793.69687,239.4197 C 793.85448,240.20878 794.06098,240.55106 794.54924,241.03952 C 795.18958,241.68016 796.12569,242.23091 796.3394,243.08565 C 796.58316,244.06152 796.91991,244.31125 796.50984,245.1318 C 796.31033,245.5311 794.90948,245.84682 794.46399,246.0696 C 793.82449,246.38945 792.74964,246.50616 791.82146,246.75169 C 791.35744,246.87445 790.93603,247.05371 790.62798,247.26318 C 790.3201,247.47257 790.11654,247.74957 790.11654,248.11573 C 790.11654,248.95033 790.45244,249.29919 790.7986,249.99133 C 791.17502,250.74469 791.52308,251.32664 791.99196,251.95222 C 792.0685,252.05416 792.15747,252.20314 792.24771,252.29324 C 792.76758,252.81331 792.71284,253.62408 793.18544,254.25408 C 793.83687,255.1234 794.15848,255.85959 794.63443,256.81189 C 795.09276,257.72861 796.12707,258.43345 796.68026,259.53986 C 796.98931,260.15821 797.53283,261.3356 797.53283,262.18292 C 797.53283,262.85136 797.88554,263.5085 798.04425,264.14382 C 798.16531,264.62828 798.65705,265.09885 799.15243,265.42269 C 799.64795,265.7464 800.14995,265.99167 800.60159,266.10465 C 801.39929,266.30413 802.32459,266.18982 803.15894,266.18982 C 804.0424,266.18982 804.58369,265.93424 805.37522,265.93424 C 805.83158,265.93424 806.47895,264.74658 806.73914,264.39953 C 807.30871,263.63991 807.64021,263.18213 807.84726,262.35352 C 807.95889,261.90665 808.07524,261.46091 808.10307,260.98921 C 808.13064,260.51784 808.04079,260.0747 807.67682,259.71053 C 807.3666,259.40012 807.31382,259.09425 807.33582,258.77253 C 807.35776,258.45121 807.4544,258.13156 807.67682,257.83487 C 807.79625,257.67551 807.84726,255.63256 807.84726,255.53295 C 807.84726,255.45032 806.76474,254.08946 806.56865,253.82789 C 806.08983,253.18932 805.96862,252.3723 805.63091,251.69646 C 805.26673,250.96766 805.20472,250.32795 805.20472,249.39461 C 805.20472,248.67359 805.20472,247.98432 805.20472,247.26318 C 805.20472,246.28785 804.75865,245.96466 804.26698,245.47287 C 803.74946,244.9552 803.77049,244.50966 803.58512,243.76768 C 803.45777,243.25866 803.51663,242.96023 803.67031,242.74471 C 803.82411,242.529 804.12078,242.38541 804.43748,242.14779 C 804.96214,241.75435 805.11947,240.92427 805.11947,240.27233 C 805.11935,239.8017 804.97183,239.32555 804.94904,238.99338 C 804.92613,238.66116 804.99985,238.40519 805.37522,238.31143 C 805.7206,238.22486 806.11169,238.50906 806.39808,238.82285 C 806.68461,239.13671 806.87769,239.51924 806.99476,239.67547 C 807.43889,240.26781 807.52989,240.60955 808.10307,241.03952 C 808.87306,241.61734 809.99675,241.9012 810.66041,242.23323 C 811.36198,242.58416 812.0037,242.94227 812.5357,243.34143 C 813.1949,243.83602 813.74528,244.29554 814.15523,244.70542 C 814.54677,245.09706 814.66083,245.86279 815.00779,246.32537 C 815.37131,246.81024 815.77941,246.92642 816.20114,247.34854 C 816.65633,247.8038 816.91509,248.69143 817.13888,249.13884 C 817.38678,249.63482 817.55937,249.82738 817.73544,249.82085 C 817.91183,249.81433 818.13071,249.58058 818.50274,249.39461 C 818.73799,249.27677 818.13634,247.50277 818.0765,247.26318 C 817.91,246.59692 816.97035,245.64768 816.71264,245.1318 C 816.43744,244.58132 816.52624,244.3459 816.71264,244.36441 C 816.89879,244.38317 817.20252,244.59869 817.3945,244.79071 C 817.95844,245.35477 818.49659,245.54566 818.92891,246.41061 C 819.11618,246.78509 819.82817,247.30988 820.2076,247.68949 C 820.76315,248.24528 820.68608,248.75144 820.88952,249.56521 C 820.96148,249.85299 821.14101,249.9218 821.31577,249.90603 C 821.49039,249.89059 821.70698,249.74706 821.91257,249.56521 C 822.32356,249.20112 822.74627,248.66441 822.85012,248.45688 C 823.10502,247.94686 823.18136,247.37788 823.36155,246.83698 C 823.59635,246.13234 823.48157,245.52411 823.27643,244.96132 C 823.07104,244.39847 822.72736,243.88719 822.50912,243.34143 C 822.31401,242.85357 822.01237,242.42799 821.74195,241.97733 C 820.92226,240.61101 820.24354,239.32142 819.52573,237.88512 C 819.49051,237.81486 819.475,237.78538 819.44042,237.71451 C 802.55807,209.66439 775.56224,188.5005 743.40308,179.31448 z M 660.20527,190.5682 C 659.77621,190.5682 659.09166,191.38103 658.84148,191.5062 C 658.2926,191.7806 657.71949,192.41159 657.22168,192.78487 C 656.70397,193.17333 656.26619,193.52285 655.77271,193.89321 C 655.20953,194.31573 654.83595,194.40483 653.98253,194.40483 C 653.17298,194.40503 653.15482,194.77592 652.53337,195.08692 C 651.80647,195.45035 651.13441,196.60619 650.82847,197.21815 C 650.54025,197.79498 650.12654,198.51693 649.8056,198.83804 C 649.41542,199.22837 648.71999,199.46604 648.27122,199.69068 C 647.73602,199.95809 647.93029,201.01473 647.93029,201.56627 C 647.93029,201.93483 646.49356,201.99265 646.39591,201.99265 C 646.20035,201.99265 645.06747,200.32299 644.94673,200.20216 C 644.34383,199.59898 644.6576,199.49052 643.7533,199.2643 C 643.26372,199.14193 642.8657,199.18365 642.64513,199.09382 C 642.42463,199.004 642.30419,198.76279 642.30419,198.15608 C 642.30419,197.49835 643.09149,197.19813 643.41235,196.87714 C 643.80245,196.48716 644.57035,196.21282 644.94673,196.02465 C 645.49512,195.75025 645.72634,195.24507 646.14011,194.831 C 646.65404,194.31699 646.73683,193.72586 646.73683,192.95542 C 646.73683,192.71507 645.52402,192.22109 645.28767,192.10291 C 644.74645,191.83217 644.40272,191.23411 643.7533,190.90928 C 643.74153,190.916 643.67975,190.90276 643.668,190.90928 C 631.44606,197.77681 620.49578,206.5475 611.10498,216.82697 C 611.00021,217.35362 610.95128,217.987 610.76394,218.36148 C 610.40608,219.0777 609.90395,219.22164 609.40004,219.72573 C 609.02281,220.103 608.82249,220.80825 608.54767,221.17514 C 608.15188,221.70273 607.55176,221.91532 607.09856,222.36858 C 606.65928,222.80794 606.67241,223.80722 606.67241,224.41485 C 606.67241,224.98988 606.92649,225.20154 607.18377,225.18198 C 607.441,225.16248 607.66458,224.90245 607.86579,224.50002 C 608.11468,224.00191 609.36184,223.22867 609.82638,222.88014 C 610.46374,222.40186 611.37139,222.09171 611.70172,221.43079 C 612.00032,220.83347 612.28515,220.46105 612.4689,219.72573 C 612.71309,218.74854 613.25336,218.32721 613.74749,217.33838 C 613.92411,217.89026 614.21279,218.57101 614.77047,219.12887 C 615.02555,219.38412 615.1448,219.75374 615.11146,220.06674 C 615.07807,220.37967 614.89222,220.67564 614.77047,220.9191 C 614.57864,221.30316 613.80671,221.88305 613.40651,222.28334 C 612.92181,222.76828 612.65509,222.76329 612.3837,223.30652 C 612.09057,223.89278 611.60357,224.03951 611.44602,224.67043 C 611.29872,225.2599 610.99671,225.70078 610.84936,226.29019 C 610.63901,227.13177 610.77857,227.63979 610.16732,228.25122 C 609.7528,228.66582 609.51824,229.48352 609.40004,229.95641 C 609.19052,230.7952 608.81404,231.01398 608.29195,231.40556 C 607.72294,231.83267 607.51737,232.71371 607.3542,233.36665 C 607.14069,234.22101 606.12415,235.14464 605.7346,235.92428 C 605.39994,236.59385 605.13708,236.69313 604.79699,237.37369 C 604.56078,237.84646 604.52658,238.62589 604.37068,239.24916 C 604.19777,239.9411 603.8084,240.59571 603.3478,241.21 C 603.27144,241.31213 603.09698,241.37574 603.00688,241.46584 C 602.55178,241.92116 602.23968,242.97168 602.23968,243.59721 C 602.23968,244.17955 601.45446,245.20372 601.30203,245.81382 C 601.0945,246.64383 600.93168,247.32172 600.61995,247.94512 C 600.23537,248.71472 599.87097,249.01713 599.51181,249.73556 C 599.11676,250.5261 598.88638,250.98668 598.5742,251.61122 C 598.32341,252.11319 598.31851,252.83367 598.31851,253.48695 C 598.31851,254.06118 598.11834,254.9695 597.97757,255.53295 C 597.82138,256.15762 597.97757,257.01937 597.97757,257.66446 C 597.97757,258.50012 597.67873,258.98625 597.21028,259.45475 C 596.66129,260.00389 596.31011,260.32768 596.10215,261.15994 C 595.97052,261.68673 595.61815,262.38386 595.33501,262.95011 C 594.96027,263.69966 594.91485,264.13529 594.3972,264.82584 C 594.00694,265.34631 593.72386,266.15555 593.54481,266.87191 C 593.35456,267.63317 593.29286,268.2283 592.94817,268.91804 C 592.60109,269.61251 592.52627,270.09418 592.35145,270.79363 C 592.18203,271.47194 591.89695,271.9586 591.66948,272.41359 C 591.34072,273.0712 591.32868,273.77665 591.15801,274.4598 C 590.97187,275.20483 590.90234,276.09925 590.90234,276.84668 C 590.90234,277.50202 590.5613,278.30249 590.5613,279.06342 C 590.5613,279.84951 590.47902,280.50052 590.30561,281.19486 C 590.13829,281.86444 590.2203,282.58 590.2203,283.32624 C 590.2203,284.38713 589.96463,285.40178 589.96463,286.4807 C 589.96463,287.31019 590.29218,287.45017 590.47608,288.18583 C 590.63791,288.83386 590.57318,289.59772 590.73171,290.23177 C 590.80919,290.54158 590.90234,290.79396 590.90234,291.16991 C 591.15991,292.20086 591.84004,292.50567 591.84004,293.55692 C 591.84004,294.38333 591.9267,294.75621 592.09562,295.43258 C 592.26056,296.09226 592.09562,296.96571 592.09562,297.6492 C 592.09562,298.33161 591.83166,299.21672 591.66948,299.86587 C 591.6476,299.95323 591.66948,300.03135 591.66948,300.12158 C 591.66948,300.93708 591.41379,301.80028 591.41379,302.67919 C 591.41379,302.92951 591.91831,304.11478 592.09562,304.46963 C 592.42468,305.12777 592.60349,306.07467 592.77761,306.77174 C 593.03508,307.80196 593.32531,308.6947 593.71527,309.6703 C 594.02576,310.44655 594.06275,311.05052 594.3972,311.88671 C 594.61609,312.43373 594.36365,313.4575 594.48247,313.93298 C 594.64849,314.59711 594.65297,315.37514 594.65297,316.06435 C 594.65297,316.8412 594.8236,317.45661 594.8236,318.19567 C 594.82346,318.93384 594.91535,319.58619 595.07924,320.2418 C 595.2752,321.02643 595.1645,321.60605 595.42022,322.1174 C 595.85276,322.98287 596.2587,323.17004 596.44314,323.90789 C 596.62754,324.64593 596.88237,325.32364 597.03991,325.95396 C 597.22421,326.69175 597.97473,327.30756 598.14798,328.00016 C 598.38601,328.95227 599.24809,329.79997 599.68233,330.81362 C 599.95124,331.44116 599.95508,332.21141 600.19388,332.68923 C 600.42032,333.14223 601.4673,333.53773 601.81348,333.79749 C 602.137,334.04016 602.13535,334.31311 602.23968,334.56482 C 602.34406,334.81667 602.51767,335.03931 603.00688,335.16161 C 603.59246,335.30799 603.97872,335.89054 604.37068,336.18457 C 604.88684,336.5719 604.10097,334.93491 603.9446,334.30904 C 603.76763,333.60107 603.05684,332.85783 602.75114,332.34821 C 602.46515,331.87126 602.71136,330.73418 602.49536,330.30201 C 602.14354,329.59816 601.8281,328.99652 601.64286,328.25594 C 601.44588,327.46766 601.07185,326.73832 600.87572,325.95396 C 600.67585,325.15357 600.37259,324.60662 600.02332,323.90789 C 599.60576,323.07236 599.08571,322.76589 599.08571,321.77645 C 599.08571,321.14114 598.59825,320.03426 598.31851,319.47461 C 598.0241,318.88567 598.14798,317.69988 598.14798,317.00216 C 598.14798,316.31707 597.89221,315.75721 597.89221,315.04139 C 597.89221,314.19588 597.66119,313.34977 597.46596,312.56893 C 597.28655,311.85065 597.03991,311.20828 597.03991,310.43743 C 597.03991,309.86772 597.18907,309.67489 597.29554,309.75541 C 597.40197,309.83598 597.46596,310.20894 597.46596,310.69341 C 597.46596,311.22378 598.18533,311.77985 598.31851,312.31315 C 598.50636,313.06491 598.63779,313.84595 598.82992,314.61507 C 598.98107,315.21992 598.66514,316.08671 598.82992,316.74658 C 599.01852,317.50147 599.42675,317.93902 599.42675,318.79258 C 599.42675,319.50534 599.68233,320.02328 599.68233,320.66831 C 599.68233,321.13489 600.2482,322.07913 600.36431,322.54385 C 600.54716,323.27564 600.69501,324.03697 600.87572,324.76051 C 601.02892,325.3728 601.37785,326.17194 601.5577,326.8919 C 601.70386,327.47683 602.06906,328.19884 602.49536,328.76742 C 602.86625,329.26201 602.93709,330.16235 603.17744,330.64302 C 603.55892,331.40648 603.74232,331.85815 604.115,332.60392 C 604.41746,333.20889 604.63979,333.68026 604.79699,334.30904 C 604.97484,335.02061 605.59308,335.98656 605.90511,336.61096 C 606.20223,337.20508 606.53584,337.85543 606.67241,338.40132 C 606.87383,339.2079 607.06995,340.13432 607.43956,340.8737 C 607.73871,341.47235 608.03194,342.05862 608.29195,342.57889 C 608.66409,343.3234 609.15124,343.86429 609.65582,344.36926 C 610.2723,344.98567 611.12779,345.2833 611.87213,345.64793 C 612.61661,346.01283 613.21568,346.41865 613.40651,347.18259 C 613.57159,347.84279 614.10941,348.58849 614.34422,349.05826 C 614.69146,349.75272 615.34374,350.39894 615.87861,350.93391 C 617.29374,352.34939 618.48788,353.85837 620.31133,354.77048 C 620.92881,355.07915 621.33934,355.26181 622.10154,355.45244 C 622.87014,355.64467 623.49526,355.72318 624.14729,356.04916 C 624.80471,356.37813 625.41595,356.47553 626.19318,356.47553 C 626.50227,356.47553 627.28299,357.19549 627.81283,357.32803 C 628.28504,357.44627 629.0497,357.16821 629.6881,357.32803 C 630.56581,357.54741 630.84355,356.76432 631.73399,356.98709 C 632.55844,357.19316 633.82192,359.08606 634.54692,359.62987 C 635.18903,360.11162 635.85772,360.61944 636.59286,361.24977 C 637.26512,361.82626 637.73249,362.1529 638.55342,362.35811 C 639.20745,362.52179 639.57252,362.61175 640.0878,362.86959 C 640.63943,363.14552 641.56646,362.95483 642.21898,362.95483 C 642.84428,362.95483 643.47088,363.86594 643.83858,364.23377 C 644.71228,365.10769 645.74043,365.60473 646.31053,366.3652 C 646.81142,367.0332 647.09821,367.92016 647.67449,368.49652 C 648.19308,369.01518 648.9205,369.65729 649.54988,370.28695 C 650.07059,370.80774 650.66483,371.16679 650.82847,371.82126 C 651.0035,372.52172 651.84418,372.84084 652.36293,373.10027 C 652.93462,373.38612 653.7054,373.56379 654.23831,373.697 C 654.71371,373.81597 655.48258,374.86495 655.8579,375.14641 C 656.14409,375.3612 657.61349,374.97594 658.07424,374.97594 C 658.67465,374.97594 659.41184,375.85026 659.77923,376.34005 C 660.19755,376.89824 660.45807,377.36302 661.2282,377.36302 C 662.02163,377.36302 662.68568,377.01376 663.18879,376.51032 C 663.58794,376.11142 663.70022,375.02824 663.70022,374.46438 C 663.70022,373.94019 665.05393,375.13616 665.31989,375.40225 C 665.73586,375.81832 666.28107,376.44877 666.59856,376.76623 C 667.19819,377.36601 668.01467,378.14945 668.30348,378.72713 C 668.59315,379.30662 668.42514,380.07907 668.72967,380.68804 C 669.06988,381.36879 669.34736,381.76722 669.75266,382.30778 C 670.18466,382.88408 670.17883,383.34859 670.17883,384.26868 C 670.17883,385.00878 670.34927,385.59307 670.34927,386.31481 C 670.34927,386.94587 669.81034,387.1922 669.66735,387.76423 C 669.49625,388.44865 669.24116,388.9266 669.24116,389.81037 C 669.24116,390.42319 668.13305,391.03927 668.13305,391.94174 C 668.13305,392.6239 668.81681,393.65439 668.98535,394.32882 C 669.17875,395.10274 669.39457,396.08519 669.75266,396.80135 C 670.16527,397.62682 670.80523,397.51657 671.03119,398.42116 C 671.22533,399.19774 671.2749,399.99268 671.45744,400.72301 C 671.62932,401.41088 672.0606,401.68623 672.22468,402.3429 C 672.36742,402.91446 672.80662,403.43647 673.16243,403.79225 C 673.60184,404.23174 674.35093,404.66484 674.95239,404.81529 C 676.04235,405.08769 676.44563,405.52744 676.99831,406.2647 C 677.48375,406.91212 677.72881,407.6012 678.44735,408.14037 C 679.16194,408.6764 679.47781,408.74433 679.9817,409.24857 C 680.09675,409.36355 680.18768,409.41418 680.32277,409.50434 C 681.00272,409.9578 681.19044,410.5349 682.02768,410.95376 C 682.70693,411.29351 683.28881,411.86367 683.90296,412.23257 C 684.68167,412.69993 685.08814,413.03821 685.86363,413.42607 C 686.53109,413.76003 687.04396,414.39987 687.65379,414.70495 C 688.31732,415.03692 688.8084,415.31093 689.61433,415.47221 C 690.26698,415.6029 691.10383,415.84456 691.66031,415.98383 C 692.50528,416.19515 693.31651,416.34314 693.96178,416.66579 C 694.56814,416.96893 695.23148,417.67985 695.58138,418.0301 C 696.08521,418.53386 696.92887,418.91686 697.5421,419.2234 C 698.00495,419.45523 698.64373,419.85965 699.0764,420.07617 C 699.93826,420.50714 700.27722,421.12595 701.03706,421.69586 C 701.62228,422.13509 702.02221,422.68124 702.4861,423.14521 C 703.05162,423.71106 703.39333,424.47891 703.85001,424.93543 C 704.39498,425.48085 704.62304,426.06707 704.78777,426.72586 C 704.99434,427.55288 705.56444,428.02377 705.89588,428.68697 C 706.2226,429.3405 707.16316,429.72291 707.60073,430.30679 C 708.02521,430.87277 708.85412,431.13399 709.30558,431.58553 C 709.89826,432.17839 710.41814,432.35852 710.92532,433.03495 C 711.41828,433.69228 711.94608,433.88518 712.28911,434.22852 C 712.77369,434.71313 713.475,434.94934 713.90871,435.16625 C 714.03933,435.23146 714.11934,435.28728 714.24983,435.33692 C 717.85826,435.15235 721.37947,434.87096 724.90519,434.39893 C 724.93354,434.33099 725.05553,434.30903 725.07582,434.22852 C 725.30041,433.32958 726.39725,432.62966 726.86586,431.9266 C 727.35058,431.1992 728.11945,431.11318 728.74115,430.98881 C 729.48069,430.84083 729.80827,430.34777 730.36074,429.7953 C 730.92449,429.23126 731.46349,428.69435 731.98042,428.00494 C 732.49034,427.32485 732.67347,426.85329 733.08864,426.29988 C 733.57979,425.64467 733.68317,425.02527 734.02632,424.33885 C 734.41892,423.55322 734.8339,422.9545 735.4755,422.63373 C 736.22185,422.26031 736.43654,421.69013 737.0951,421.52552 C 737.97556,421.30514 738.35728,420.95409 739.14082,420.75813 C 739.77581,420.59924 740.82041,419.07842 741.1868,418.71199 C 741.72488,418.17369 742.09115,417.81871 742.63585,417.09204 C 742.83685,416.82401 742.99955,416.47269 743.23259,416.23948 C 743.41284,416.01411 743.56388,415.86813 743.74414,415.64269 C 744.0465,415.26455 744.06033,414.03711 744.1702,413.59662 C 744.32675,412.97008 744.64561,412.13429 744.93751,411.55035 C 745.23739,410.9505 745.13877,410.12522 745.44893,409.50434 C 745.79412,408.814 746.01123,408.20909 746.30149,407.62868 C 746.62572,406.97992 746.40756,406.22304 746.72754,405.58261 C 747.05681,404.92414 747.25337,404.27512 747.49478,403.79225 C 747.84042,403.10064 747.71504,402.87241 748.60275,402.4282 C 749.07752,402.19092 749.56479,401.38095 749.96674,400.97891 C 750.34185,400.60357 750.55111,399.46928 750.73405,399.10325 C 751.05377,398.46368 751.85564,397.89624 752.2684,397.48323 C 752.5948,397.15673 752.90293,396.4224 753.20607,396.11926 C 753.56875,395.75655 753.62526,394.69779 753.71744,394.32882 C 753.8647,393.74062 753.82372,393.05154 753.97339,392.45322 C 754.13806,391.79403 753.49437,391.29225 753.20607,391.0038 C 752.65896,390.45666 752.29283,389.74349 751.58654,389.21338 C 750.97906,388.75772 750.55569,388.52358 750.22262,388.19048 C 749.7844,387.75219 749.00674,387.53999 748.43233,387.25274 C 747.94217,387.00742 747.49517,386.91167 746.72754,386.91167 C 746.00672,386.91167 745.23213,386.91167 744.51125,386.91167 C 743.73379,386.91167 743.32412,387.08208 742.63585,387.08208 C 741.90127,387.08221 741.40949,387.25274 740.67538,387.25274 C 739.99953,387.25274 739.30516,387.25274 738.62952,387.25274 C 738.01778,387.25274 737.55631,386.91167 736.83929,386.91167 C 736.10472,386.91167 736.03892,386.41296 735.64594,385.88856 C 735.29407,385.41914 734.36105,385.29178 733.77058,385.29178 C 732.9693,385.29178 732.22771,385.20647 731.29855,385.20647 C 730.22515,385.20647 730.04718,385.49119 729.25258,385.88856 C 728.6904,386.16976 728.1531,386.56195 727.8034,386.91167 C 727.39622,387.31902 726.49703,387.57073 726.01343,387.76423 C 725.37766,388.01854 724.5663,387.91395 723.96751,387.76423 C 723.55967,387.66222 723.43441,387.39288 723.37084,387.08208 C 723.30713,386.77161 723.37084,386.38035 723.37084,385.9738 C 723.37084,385.18438 723.83519,384.82755 724.30852,384.35405 C 724.61644,384.04591 724.56426,382.95781 724.56426,382.47839 C 724.56426,381.52576 724.66752,381.40625 724.30852,380.68804 C 724.00025,380.07142 723.37399,379.8386 723.02978,379.49446 C 722.62186,379.08638 722.31459,378.35272 721.92167,377.95987 C 721.5459,377.58406 721.15521,376.85313 720.89875,376.34005 C 720.64456,375.83129 719.92107,375.55277 719.44957,375.31682 C 718.86331,375.02378 717.97087,374.92596 717.48903,374.80539 C 716.89956,374.65802 716.05428,374.80539 715.44305,374.80539 C 714.76742,374.80539 714.1583,374.80539 713.48253,374.80539 C 712.76052,374.80539 712.20143,374.97594 711.52193,374.97594 C 711.01286,374.97594 710.52198,375.31682 709.81702,375.31682 C 709.26145,375.31682 708.74728,374.54411 708.36796,374.03801 C 707.87075,373.37494 707.26078,373.27201 706.83362,372.84449 C 706.37759,372.38824 705.8268,372.26394 705.46962,371.9067 C 705.04666,371.48345 703.88728,371.27658 703.33859,371.13943 C 702.53232,370.93783 701.85734,370.73967 701.29268,370.45734 C 700.5149,370.06836 700.48537,369.69495 700.09933,368.9227 C 699.77076,368.26549 699.50252,367.90265 699.50252,367.21771 C 699.50252,366.67495 699.1712,365.78752 698.99115,365.42734 C 698.86105,365.16684 698.64734,364.88246 698.56497,364.74519 C 698.30104,364.21714 698.5287,363.9253 698.65014,363.72221 C 698.77174,363.51908 698.81515,363.42233 698.3093,363.29597 C 698.24787,363.28066 697.06597,364.39905 696.94536,364.48962 C 696.40651,364.8937 696.00173,364.8106 695.24038,365.00097 C 694.11741,365.28188 693.99864,365.23272 693.02417,364.74519 C 692.61881,364.54258 692.55163,364.30164 692.42742,364.14847 C 692.30315,363.99529 692.1864,363.91033 691.57506,364.06316 C 690.95252,364.21886 690.48974,364.64851 689.95532,364.91579 C 689.35223,365.21741 689.03991,365.28275 688.50616,365.68298 C 687.95491,366.09673 686.9701,366.40899 686.46031,366.79138 C 685.98993,367.14424 684.74204,366.48624 684.49964,366.3652 C 683.8604,366.04515 683.84306,364.93136 683.73247,364.48962 C 683.58325,363.89249 683.41302,363.81977 683.22103,363.97799 C 683.02932,364.13602 682.79584,364.57292 682.62436,364.91579 C 682.40398,365.35675 682.08373,365.48098 681.77201,365.51252 C 681.4602,365.54412 681.20249,365.4835 680.91944,365.34191 C 680.8395,365.30192 681.00476,363.55068 681.00476,363.29597 C 681.00476,362.96354 679.93076,362.0513 679.81126,361.93179 C 679.48848,361.60888 679.28439,361.687 679.12933,361.93179 C 678.97442,362.17672 678.84826,362.57954 678.70316,362.86959 C 678.37113,363.53398 678.3568,364.34602 678.19167,365.1715 C 678.0522,365.86956 678.02129,366.59902 678.02129,367.30294 C 678.02129,367.79047 677.59872,368.15178 677.25413,368.49652 C 676.93395,368.8169 676.88182,368.37262 676.91312,367.72919 C 676.94442,367.08582 677.08709,366.29767 676.99831,365.85359 C 676.85472,365.13544 676.57776,364.51223 676.40156,363.80753 C 676.25522,363.22184 676.28417,362.63478 676.06057,362.18757 C 675.84732,361.76086 675.47207,362.11617 675.12295,362.61395 C 674.77384,363.11139 674.41104,363.79056 674.2706,363.97799 C 673.7259,364.70427 672.55429,365.38556 672.1395,365.9389 C 671.94334,366.20032 670.83156,366.63548 670.51976,366.79138 C 669.80334,367.14964 668.9018,368.21818 668.30348,368.66692 C 667.73451,369.09397 667.79205,370.30577 667.79205,370.96896 C 667.79199,371.80516 668.07216,371.68726 667.62155,372.58872 C 667.40902,373.01378 667.06606,372.99348 666.76907,372.84449 C 666.47207,372.69552 666.28567,372.4464 666.17239,372.33301 C 665.69835,371.85899 665.32972,371.65338 664.63797,371.48045 C 663.88238,371.29155 663.29552,371.66676 662.67736,371.82126 C 661.84177,372.03039 661.08049,372.39117 660.29065,372.58872 C 659.65069,372.74881 658.72422,372.55945 658.15942,372.41824 C 657.68125,372.29875 657.22641,371.65564 656.79556,371.22467 C 656.25218,370.68105 656.06467,370.50592 655.51689,369.77519 C 655.10207,369.22186 654.96761,368.83054 654.40874,368.41128 C 653.72229,367.89627 653.5698,368.18259 653.21538,367.47335 C 652.91071,366.86386 652.70506,366.45158 652.36293,366.10929 C 652.01794,365.76423 652.10721,364.91193 652.10721,364.23377 C 652.10721,363.56944 651.93662,362.73232 651.93662,362.01709 C 651.93662,361.32728 651.80044,360.61977 651.68099,360.14143 C 651.53122,359.54232 651.59578,358.69188 651.59578,358.09522 C 651.59578,357.59332 650.74326,357.09355 650.31703,356.98709 C 649.61043,356.81037 649.1113,356.64607 648.01552,356.64607 C 647.10266,356.64607 646.36634,356.64607 645.45818,356.64607 C 644.78242,356.64607 644.08812,356.64607 643.41235,356.64607 C 642.89918,356.64607 642.76971,356.53775 642.4747,356.3901 C 642.35788,356.3901 641.70739,354.59143 641.70739,354.34417 C 641.70739,353.60386 641.53697,353.01984 641.53697,352.29789 C 641.53697,351.59051 641.40704,350.9256 641.28118,350.42243 C 641.14234,349.86643 641.18803,349.19738 641.02546,348.5467 C 640.8781,347.95716 641.02546,347.11192 641.02546,346.50063 C 641.02546,345.76118 641.19598,345.40853 641.19598,344.62496 C 641.19598,344.1003 641.28118,343.36591 641.28118,342.74937 C 641.28118,341.9561 640.83399,341.37474 640.17302,341.04424 C 639.59612,340.75566 638.90068,340.8737 638.21249,340.8737 C 637.50817,340.8737 637.06165,341.05482 636.4223,341.21465 C 635.69794,341.3959 635.34222,342.20974 635.05849,342.49373 C 634.57558,342.9766 634.53294,343.74299 634.37651,344.36926 C 634.2268,344.9681 634.2913,345.81873 634.2913,346.41546 C 634.2913,346.74962 633.54283,347.70425 633.43874,348.12033 C 633.24995,348.87619 632.21355,349.32993 631.73399,349.56974 C 631.02285,349.92552 629.79802,349.49688 629.26195,349.22872 C 628.82332,349.00928 628.04101,347.74298 627.81283,347.43856 C 627.44413,346.94677 627.0388,346.57921 626.70453,346.24472 C 626.24954,345.78973 625.83921,345.5456 625.34079,344.88074 C 624.95307,344.36367 624.67208,343.79909 624.48823,343.43132 C 624.1651,342.7849 624.07526,342.34961 623.72109,341.64096 C 623.39996,340.99853 622.97806,340.32548 622.61291,339.59503 C 622.20972,338.78831 622.1956,338.4103 621.67514,337.88984 C 621.13628,337.35067 620.99327,336.59879 620.99327,335.84357 C 620.99327,335.08695 620.73753,334.29215 620.73753,333.54165 C 620.73753,332.85683 620.48175,332.21161 620.48175,331.49558 C 620.4819,330.8105 620.48175,330.16547 620.48175,329.44951 C 620.4819,328.8168 620.908,328.295 620.908,327.57385 C 620.908,326.78709 620.73753,326.4387 620.73753,325.69819 C 620.73753,324.8081 620.80915,324.36847 621.16378,323.48158 C 621.39211,322.91053 622.04868,322.47904 622.27192,322.03223 C 622.54007,321.4958 622.82311,321.09849 623.20967,320.58288 C 623.60018,320.06188 624.20025,319.75906 624.82926,319.5599 C 625.45813,319.36056 626.11022,319.19687 626.70453,319.04843 C 627.62888,318.81713 628.40635,318.9196 629.26195,319.1336 C 630.18948,319.36561 631.09539,319.47461 632.07493,319.47461 C 632.5468,319.47461 632.77353,319.70623 633.01255,319.90079 C 633.2516,320.09554 633.48611,320.27275 633.95025,320.15663 C 634.42292,320.03833 634.2913,318.51265 634.2913,318.11048 C 634.2913,317.62788 634.10291,317.37457 634.12078,317.17276 C 634.13855,316.97089 634.35354,316.80053 634.8027,316.57584 C 635.58902,316.1828 635.70422,316.06435 636.67813,316.06435 C 637.53852,316.06435 638.34325,316.2349 639.15007,316.2349 C 639.62803,316.23483 640.32309,316.77885 640.76982,317.00216 C 641.20457,317.21967 641.47551,317.22166 641.79261,317.258 C 642.10986,317.29427 642.39951,317.41343 642.73034,317.85472 C 643.18363,318.45929 643.83201,318.87123 644.26472,319.30406 C 644.73718,319.77675 645.64007,320.03433 646.05489,320.2418 C 646.35896,320.39404 646.30956,321.94253 646.39591,322.28801 C 646.56045,322.94661 646.95093,323.48324 647.24827,324.07836 C 647.66356,324.9091 647.85812,325.81602 648.18593,326.63612 C 648.42069,327.22299 648.64073,327.8014 648.86802,328.25594 C 649.22667,328.97369 649.43322,329.30593 650.06124,329.61999 C 650.5784,329.87856 651.11262,329.90424 651.68099,330.0463 C 652.35403,330.21465 652.90023,329.61406 653.21538,329.1936 C 653.45834,328.86963 653.39243,328.3825 653.30059,327.91493 C 653.2089,327.44729 653.03401,326.98751 652.87437,326.72129 C 652.37009,325.88063 652.52113,325.06506 652.19243,324.07836 C 651.93346,323.30126 651.39548,322.56108 650.99897,322.03223 C 650.6033,321.5045 650.53,320.58254 650.23181,319.98615 C 649.91328,319.34911 649.71277,318.84788 649.54988,318.19567 C 649.38933,317.55363 649.34725,316.87374 649.20888,316.32007 C 648.99516,315.46497 649.49234,314.75794 650.06124,314.18882 C 650.48317,313.76683 650.5389,313.4716 650.65804,312.99511 C 651.33931,312.31363 651.70445,311.4992 652.10721,310.69341 C 652.45092,310.0054 652.61872,309.44773 652.61872,308.64713 C 652.61872,308.22834 653.00527,307.79031 653.47109,307.36826 C 653.93697,306.9464 654.48409,306.5292 654.74975,306.17475 C 655.24491,305.51448 655.92402,304.84877 656.28413,304.12861 C 656.58774,303.52099 657.18953,303.06432 657.39231,302.25302 C 657.53112,301.69695 657.48542,301.02797 657.64807,300.37736 C 657.82883,299.65374 657.98539,299.02774 658.15942,298.33128 C 658.33366,297.63455 658.32546,297.03477 658.15942,296.37032 C 657.99764,295.72295 657.72788,295.0808 657.47749,294.57995 C 657.13938,293.90353 656.67142,293.51819 656.28413,293.13054 C 655.9787,292.82512 656.02852,291.57453 656.02852,291.08459 C 656.02852,290.64991 657.3322,290.65822 657.73331,290.65822 C 658.35546,290.65822 659.09305,290.25439 659.5234,290.14666 C 659.92163,290.04712 660.47687,289.09209 660.7167,288.61209 C 661.01638,288.01257 661.22027,287.45038 661.39875,286.73635 C 661.59152,285.96477 661.2282,285.36898 661.2282,284.69042 C 661.2282,284.10767 661.87431,283.47216 662.33636,283.24107 C 663.00094,282.90857 663.39734,282.64408 664.21179,282.64408 C 665.00077,282.64408 665.66599,282.81462 666.42807,282.81462 C 667.33897,282.81462 667.5424,282.5466 667.87724,281.87695 C 668.12971,281.37165 668.04768,280.43306 668.04768,279.83075 C 668.04768,279.14008 668.00426,278.4633 667.87724,277.95502 C 667.77379,277.54108 667.95835,277.11883 668.04768,276.76151 C 667.93335,276.30353 668.86965,274.91666 668.98535,274.80075 C 669.43058,274.3554 669.92158,273.90633 670.51976,273.60711 C 671.03217,273.35086 671.62636,272.92688 672.1395,272.41359 C 672.69211,271.8606 673.1659,271.2165 673.50335,270.87901 C 674.00235,270.37957 674.07404,269.88206 674.52621,269.4296 C 674.73947,269.21647 674.64236,270.9878 674.52621,271.21996 C 674.36017,271.55218 674.44516,271.786 674.61139,272.07266 C 674.77777,272.35897 675.05466,272.65201 675.12295,272.92508 C 675.23388,273.36856 675.04969,273.66606 675.03771,273.86295 C 675.02572,274.05963 675.11981,274.20402 675.71957,274.20402 C 676.56028,274.20402 676.77379,273.97114 677.08356,273.35133 C 677.41408,272.69007 678.0065,272.61647 678.6179,272.15776 C 679.08088,271.81048 679.34259,271.26273 679.81126,270.79363 C 680.36217,270.24256 680.74226,270.12107 681.26044,269.4296 C 681.70659,268.83494 682.30157,268.82376 682.9653,268.49187 C 683.89792,268.02523 683.47096,267.38498 684.49964,267.12775 C 685.13462,266.96892 685.53481,266.42137 685.77838,265.93424 C 686.03295,265.42495 685.3522,264.6879 685.3522,264.14382 C 685.3522,263.27475 685.1172,262.94951 684.6702,262.35352 C 684.429,262.03181 684.19401,261.97332 683.98821,262.01237 C 683.78249,262.05143 683.64238,262.18764 683.47685,262.35352 C 683.0705,262.75994 682.88005,263.80253 682.62436,264.31428 C 682.26876,265.02558 682.4477,265.49109 681.85712,265.93424 C 681.42537,266.25795 680.28682,265.05466 679.9817,264.82584 C 679.44651,264.42427 678.64501,264.31428 677.93598,264.31428 C 677.49835,264.31428 677.27907,264.4821 677.08356,264.56999 C 676.88798,264.65802 676.69587,264.64725 676.40156,264.05858 C 676.16612,263.58735 676.24803,262.59193 676.14588,262.18292 C 676.05316,261.81236 675.82636,261.65692 675.71957,261.50096 C 675.61278,261.34499 675.68284,261.11143 676.06057,260.73357 C 676.55484,260.23918 676.82775,260.4519 676.82775,259.53986 C 676.82775,258.85285 677.42272,258.34727 677.93598,258.09065 C 678.60206,257.75748 678.24306,257.23814 679.21459,257.23814 C 679.89121,257.23814 680.59436,257.01704 681.00476,256.81189 C 681.39211,256.61793 681.62088,256.35357 681.60143,256.12981 C 681.58219,255.9061 681.37155,255.78879 680.91944,255.78879 C 680.06662,255.78879 679.57385,256.30027 678.70316,256.30027 C 678.16508,256.30027 677.30199,256.88755 676.82775,256.9823 C 676.14458,257.11898 675.4927,257.06035 674.78203,257.23814 C 674.05013,257.42105 673.48358,257.98904 672.73604,258.17581 C 672.07703,258.34069 671.25329,259.41883 671.11644,259.96623 C 670.90337,260.8192 670.20791,261.55691 669.58209,262.18292 C 668.95732,262.80778 668.65338,262.82694 668.04768,262.52392 C 667.96721,262.4838 668.96427,260.77581 669.1559,260.39255 C 669.59676,259.51078 669.74047,258.95558 670.51976,258.17581 C 671.11141,257.58422 671.73028,257.22118 672.22468,256.72653 C 672.80533,256.14584 673.08189,255.55312 673.84429,255.36248 C 674.62129,255.16818 675.49382,255.27731 676.31637,255.27731 C 677.09691,255.27711 677.6073,254.9361 678.27692,254.9361 C 678.90011,254.9361 679.60129,254.07089 680.15226,253.65749 C 680.78371,253.18359 681.81089,253.20622 682.53917,253.06051 C 683.36751,252.89488 683.71125,252.67697 683.98821,252.12277 C 684.29333,251.51247 685.09927,251.60856 685.52276,251.18484 C 685.82532,250.88208 685.86193,250.56064 685.94895,250.33234 C 686.03576,250.10424 686.10792,249.93038 686.54556,249.82085 C 687.21663,249.65312 687.95491,249.70295 688.50616,249.56521 C 689.09557,249.4179 689.85568,249.56521 690.46683,249.56521 C 690.9467,249.56521 691.26426,249.49283 691.40451,249.30944 C 691.54475,249.12599 691.57506,248.81152 691.57506,248.45688 C 691.57506,247.79082 691.19052,247.21985 690.72257,246.75169 C 690.18535,246.21432 689.8964,245.69598 689.52908,244.96132 C 689.21238,244.3276 688.92304,243.57845 688.67672,243.08565 C 688.38595,242.50398 688.16516,241.80671 687.90948,241.29537 C 687.56566,240.60722 686.85762,240.24371 686.28989,240.10166 C 685.70779,239.95627 685.00119,239.32449 684.6702,238.99338 C 684.26753,238.59056 683.87161,238.18135 683.47685,237.88512 C 682.91068,237.46039 682.64237,237.40963 682.36862,236.86202 C 682.11011,236.34475 681.75118,235.88269 681.43107,235.24219 C 681.18238,234.74495 680.82175,234.44991 680.57851,233.96338 C 680.32002,233.44604 680.50387,232.62056 680.32277,232.25826 C 680.07808,231.7686 679.89527,230.97684 679.6409,230.46796 C 679.35405,229.89413 679.17216,229.78634 678.87372,229.18888 C 678.49306,228.42754 678.95976,227.99638 678.44735,227.4839 C 677.96165,226.99796 677.9335,226.58748 677.33917,226.29019 C 676.97467,226.10806 676.8303,225.94072 676.65731,225.86407 C 676.48426,225.78742 676.30007,225.82947 675.8902,226.03461 C 675.81628,226.0714 675.28135,227.33757 675.20814,227.4839 C 674.89884,228.10277 674.46512,228.22693 673.84429,228.84794 C 673.2717,229.42071 672.94086,229.80251 672.65079,230.38259 C 672.3944,230.8956 671.36585,230.55147 671.03119,230.46796 C 670.72221,230.39064 670.66459,230.07725 670.69027,229.70063 C 670.716,229.32389 670.76759,228.90151 670.69027,228.59216 C 670.54295,228.00269 670.69027,227.15751 670.69027,226.54616 C 670.6904,226.25319 671.01011,226.2456 671.37227,226.20508 C 671.73454,226.16449 672.18809,226.07134 672.39518,225.86407 C 672.65125,225.6077 672.80342,225.46437 672.82142,225.26722 C 672.83917,225.07019 672.72302,224.82773 672.39518,224.50002 C 672.01267,224.11743 671.05339,224.27113 670.60508,224.15888 C 669.65503,223.92134 669.27998,224.01755 668.5591,223.47692 C 667.92104,222.99831 667.54959,222.59262 667.36574,221.8571 C 667.24541,221.37523 666.22915,221.46638 665.74614,221.34554 C 665.0652,221.17514 664.36015,221.17514 663.61511,221.17514 C 662.97607,221.17495 662.48992,221.69082 661.82501,221.8571 C 661.45167,221.95059 661.13705,221.79475 660.88733,221.77186 C 660.63767,221.7489 660.43208,221.80227 660.29065,222.36858 C 660.103,223.11888 659.80077,223.60401 659.5234,224.15888 C 659.29529,224.61507 659.26767,225.36656 659.26767,226.03461 C 659.26767,226.86534 659.04256,227.0096 659.26767,227.91021 C 659.42074,228.52276 659.21076,229.33121 659.09709,229.7858 C 658.92359,230.4802 659.26995,231.1406 659.09709,231.83201 C 658.87579,232.71737 658.62967,233.02805 659.01198,233.79291 C 659.36659,234.50221 659.73955,234.65758 659.9496,235.4979 C 660.11838,236.17361 659.69384,236.86674 659.69384,237.5441 C 659.69384,238.12965 658.83625,238.82963 658.58567,239.16392 C 658.27179,239.58272 657.9038,240.29429 657.9038,240.86891 C 657.90374,241.33635 656.794,241.67969 656.53982,241.80684 C 655.86267,242.14547 655.50151,242.70805 655.0907,243.25614 C 654.77133,243.68198 654.74975,244.69484 654.74975,245.2171 C 654.74975,245.88429 654.57918,246.55433 654.57918,247.26318 C 654.57918,247.93921 654.57918,248.6334 654.57918,249.30944 C 654.57918,250.00151 654.74712,250.34278 654.57918,251.01437 C 654.41779,251.66019 653.63895,252.08138 653.21538,252.29324 C 652.81623,252.49292 652.43563,252.27155 652.19243,251.95222 C 651.94931,251.63292 651.7662,251.17652 651.7662,250.92926 C 651.76627,250.20805 651.7662,249.43367 651.7662,248.71246 C 651.76627,248.13649 651.59578,247.45574 651.59578,246.83698 C 651.59578,246.11584 651.59578,245.42657 651.59578,244.70542 C 651.59578,243.87115 651.33395,243.48795 651.16948,242.82994 C 651.06572,242.41488 650.12224,241.78256 649.8056,241.46584 C 649.34107,241.00126 648.71063,240.61987 648.18593,240.35743 C 647.75444,240.14178 647.13145,239.55856 646.82204,239.24916 C 646.17178,238.59862 645.77226,238.34291 645.45818,237.71451 C 645.13344,237.06483 644.28501,236.94725 643.58278,236.94725 C 642.83862,236.94732 642.11047,236.7807 641.53697,236.3506 C 641.12432,236.04105 641.02546,235.00073 641.02546,234.56004 C 641.02546,233.70468 640.92275,233.02265 640.76982,232.25826 C 640.64425,231.63066 640.71794,230.76073 640.85503,230.21218 C 641.0471,229.44333 641.8813,228.84129 642.13363,228.33652 C 642.48639,227.63074 643.60676,227.11907 644.1795,226.54616 C 644.73016,225.99535 645.02599,225.18664 645.71389,224.67043 C 646.58511,224.01675 647.49027,223.52669 648.44164,223.05054 C 648.94449,222.79915 649.01077,222.083 649.20888,221.68663 C 649.5636,220.97692 649.78312,220.34507 650.23181,219.8962 C 650.78186,219.34585 651.26426,218.86378 651.7662,218.36148 C 652.20154,217.92612 653.42155,218.02054 653.64159,218.02054 C 653.9421,218.02054 654.49087,219.63404 654.57918,219.81096 C 654.76581,220.18411 654.90751,220.39078 655.17598,220.49293 C 655.44435,220.59526 655.85769,220.56532 656.19888,220.49293 C 656.88115,220.34847 657.66685,219.98835 658.58567,219.72573 C 659.09743,219.57941 659.70949,218.60961 660.20527,218.36148 C 660.68776,218.12034 660.7167,216.99318 660.7167,216.40065 C 660.7167,215.62281 660.63158,215.21346 660.63158,214.52511 C 660.63158,214.13846 659.50259,213.70489 659.26767,213.58725 C 658.93845,213.42263 658.90774,213.04409 659.01198,212.64952 C 659.11595,212.25474 659.37406,211.86091 659.5234,211.71172 C 659.9458,211.28907 660.6765,210.9971 661.2282,210.85909 C 661.96152,210.67578 662.6333,210.71064 663.18879,210.43278 C 663.78842,210.13302 663.94773,209.75914 664.38235,209.32451 C 665.0576,208.649 665.12549,208.22695 665.31989,207.44891 C 665.46283,206.87707 665.38688,205.98765 665.49032,205.57338 C 665.66259,204.88423 666.31925,204.24087 666.59856,203.86812 C 666.80378,203.59444 666.88842,203.35431 667.11006,203.18609 C 667.33157,203.01782 667.61611,202.93032 668.13305,202.93032 C 668.62497,202.93032 668.94436,202.95214 669.1559,203.10093 C 669.36739,203.24944 669.49147,203.51646 669.66735,203.86812 C 669.91988,204.37349 669.75266,205.31208 669.75266,205.91439 C 669.75266,206.63847 669.19002,206.90316 668.81491,207.27836 C 668.47554,207.61779 670.00389,208.34073 670.17883,208.47201 C 670.45036,208.67548 670.2995,209.11338 670.0084,209.58028 C 669.71716,210.04718 669.29399,210.49759 669.24116,210.60338 C 669.01886,211.04787 668.45486,211.49388 668.13305,212.13803 C 667.70477,212.99465 667.62012,213.11876 666.42807,213.41685 C 665.6552,213.60994 665.02381,214.20427 664.55279,214.43975 C 664.21624,214.60816 664.20262,214.8461 664.29696,215.12184 C 664.39145,215.39764 664.53707,215.70311 664.63797,215.80386 C 665.22889,216.39492 665.48404,216.37782 666.25764,216.57119 C 667.17646,216.80108 667.50331,216.52721 668.04768,217.25327 C 668.41761,217.74659 668.57049,217.95779 668.81491,218.44685 C 669.162,219.14152 669.5629,219.56357 669.75266,220.32238 C 669.83673,220.65907 671.10269,220.78442 671.54269,221.00447 C 672.11534,221.29085 673.00784,221.35347 673.50335,221.60132 C 674.13081,221.91512 674.41923,222.10729 675.12295,222.28334 C 675.69122,222.42541 675.87736,222.70634 676.57206,222.88014 C 676.98685,222.98393 677.24364,223.01541 677.42455,222.88014 C 677.60547,222.74473 677.67369,222.4799 677.76548,222.11288 C 677.84157,221.80812 677.50758,221.43032 677.16875,221.17514 C 676.8301,220.91983 676.4946,220.79527 676.40156,220.7487 C 675.68755,220.39158 675.40941,220.26795 674.95239,219.81096 C 674.58181,219.44001 674.41582,219.11517 674.44096,218.87303 C 674.46617,218.63116 674.6827,218.46082 674.95239,218.19114 C 675.21469,217.92878 675.4965,218.01175 675.80495,218.19114 C 676.11321,218.37039 676.45931,218.67502 676.57206,218.78787 C 676.86749,219.08344 677.21471,219.00145 677.50974,218.78787 C 677.8049,218.57427 677.98352,218.17138 678.02129,218.02054 C 678.1567,217.47845 678.27692,217.12193 678.27692,216.31541 C 678.27692,215.47203 677.71369,215.32904 677.93598,214.43975 C 678.02961,214.0648 677.71147,213.78481 677.33917,213.58725 C 676.96701,213.38976 676.5297,213.23579 676.31637,213.07564 C 675.63027,212.56115 675.29909,212.57586 674.95239,211.88212 C 674.70267,211.38249 674.87225,211.11793 675.12295,211.02983 C 675.37366,210.9414 675.69712,210.98132 675.8902,211.02983 C 676.66536,211.22346 676.80621,211.60466 677.33917,212.13803 C 677.94594,212.7448 677.94201,213.07876 678.6179,213.41685 C 679.26959,213.74275 679.2675,214.2694 679.9817,214.2694 C 680.43571,214.2694 680.49332,212.89438 680.49332,212.47892 C 680.49332,211.75017 680.15226,211.21074 680.15226,210.43278 C 680.15226,210.1241 680.87218,209.59006 681.00476,209.32451 C 681.20629,208.92115 681.18639,208.56843 681.00476,208.3014 C 680.823,208.03432 680.50754,207.80423 680.32277,207.61945 C 679.83681,207.13331 679.41992,206.92185 679.12933,206.34051 C 678.79639,205.67424 678.08972,205.38607 677.50974,204.80605 C 677.42213,204.63059 677.13168,204.81389 676.82775,204.89121 C 676.524,204.96841 676.22407,204.94858 676.06057,204.2945 C 675.90382,203.66665 676.26001,202.81495 676.40156,202.24822 C 676.56276,201.60366 676.92845,201.41975 677.08356,200.79888 C 677.20515,200.31208 677.47222,200.17135 677.59499,200.03175 C 677.71776,199.89202 677.74407,199.73307 677.50974,199.2643 C 677.34592,198.93652 676.4732,198.57562 676.14588,198.41186 C 675.60348,198.14038 675.26268,197.69917 674.95239,197.38863 C 674.65356,197.08973 674.78203,195.79895 674.78203,195.34256 C 674.78203,195.00128 674.61769,194.72754 674.35566,194.57524 C 674.09382,194.42326 673.78018,194.37275 673.50335,194.23436 C 673.01294,193.98889 672.45058,193.97858 671.71306,193.97858 C 671.12397,193.97858 670.21504,193.85961 669.66735,193.72287 C 669.03772,193.56524 668.21411,193.87298 667.79205,193.97858 C 667.20258,194.12597 666.35715,193.97858 665.74614,193.97858 C 665.04745,193.97858 664.79747,193.72008 664.12654,193.5522 C 663.69408,193.44408 662.69721,194.30942 662.33636,194.48993 C 661.97057,194.67305 661.81374,194.53757 661.73982,194.23436 C 661.66564,193.93081 661.65444,193.50569 661.65444,193.21119 C 661.65444,192.53515 661.65444,191.84109 661.65444,191.16498 C 661.65444,190.87721 661.44427,190.7235 661.14302,190.6535 C 660.84182,190.58356 660.46685,190.5682 660.20527,190.5682 z M 734.11157,198.83804 C 733.74853,198.91317 733.44236,199.21353 733.34433,199.60523 C 733.2306,200.06037 733.17502,200.70885 733.08864,201.05466 C 733.06154,201.16312 731.40279,200.8424 730.44606,201.22527 C 730.04142,201.38715 729.46118,201.642 729.08214,201.73675 C 728.56181,201.86676 728.71764,202.23965 728.82653,202.67461 C 728.96238,203.21823 730.49138,203.32523 730.95756,203.44193 C 731.28389,203.52345 731.72289,204.12196 732.06566,204.46504 C 732.40679,204.80638 732.98644,205.04905 733.34433,205.31747 C 733.62287,205.5264 733.91685,206.14574 734.28201,206.51111 C 734.66105,206.89039 735.3143,207.06744 735.81636,207.19307 C 736.42424,207.34517 736.80478,207.02266 737.43603,207.02266 C 737.95107,207.02266 738.40068,207.27836 738.97046,207.27836 C 739.56071,207.27836 739.97177,207.02266 740.5048,207.02266 C 740.93891,207.02266 741.11549,206.32213 741.35724,205.99969 C 741.67413,205.5769 741.69829,204.92296 741.69823,204.37967 C 741.69823,203.8771 741.53369,203.38026 741.44248,203.01556 C 741.33412,202.58192 740.47751,202.36454 740.24906,201.90722 C 739.96234,201.33345 739.94519,201.189 739.31144,200.71371 C 738.87924,200.3896 738.09602,200.02064 737.77703,199.86122 C 737.27032,199.60777 736.90057,199.39551 736.4983,199.09382 C 736.23213,198.89401 735.82769,198.83804 735.39012,198.83804 C 735.10347,198.83804 734.73935,198.83804 734.45245,198.83804 C 734.32608,198.8065 734.23244,198.81309 734.11157,198.83804 z M 764.11718,209.83606 C 763.56752,209.90812 763.43526,210.73592 763.43539,211.45588 C 763.43539,212.18174 762.46268,212.84621 762.15666,213.07564 C 761.73572,213.39143 763.86379,214.22728 764.03207,214.2694 C 764.75145,214.44926 765.34938,215.06129 766.07784,215.20714 C 766.6033,215.31227 767.47366,215.88483 768.12376,216.14488 C 768.49664,216.29419 768.61273,216.84093 768.72037,217.42382 C 768.82835,218.0065 768.89082,218.59949 768.89082,218.95847 C 768.89082,219.69997 768.88675,220.47629 769.06137,221.17514 C 769.24359,221.90388 769.44879,222.18241 769.23187,223.05054 C 769.12829,223.46548 769.07801,223.7822 769.06137,224.07372 C 769.04481,224.36528 769.09045,224.61434 769.40231,224.9262 C 769.96238,225.4866 771.53936,225.1879 772.21547,225.86407 C 772.88468,226.53365 773.40719,226.98718 774.17599,227.91021 C 774.57037,228.38356 774.13953,229.23773 774.68743,229.7858 C 775.06351,230.16202 776.31049,230.23268 776.73327,230.12689 C 777.03125,230.05229 777.17379,228.3652 777.24477,228.08061 C 777.33395,227.72384 777.85834,227.53719 778.43819,227.4839 C 779.01797,227.43066 779.68439,227.51038 779.97255,227.65443 C 780.48503,227.91074 780.53943,228.71127 780.39886,229.27425 C 780.29285,229.69843 780.38242,229.9775 780.56929,230.21218 C 780.75622,230.44661 781.0322,230.65687 781.33646,230.80904 C 781.89746,231.08943 782.64775,230.99255 783.04138,230.89415 C 783.66681,230.73771 783.94731,229.84942 784.23474,229.27425 C 784.42967,228.8844 784.51289,228.59063 784.57573,228.33652 C 784.63859,228.08248 784.68214,227.85711 785.08723,227.65443 C 785.66047,227.36765 785.92741,226.92357 785.7691,226.29019 C 785.59683,225.60037 785.40341,224.9622 785.08723,224.32948 C 784.66662,223.4883 783.77859,223.17737 783.04138,222.62443 C 782.47816,222.20157 782.53565,222.05059 782.35933,221.34554 C 782.24108,220.8714 781.42884,220.49664 780.91029,220.23715 C 780.43291,219.99847 780.12007,219.16008 779.54643,218.87303 C 778.71299,218.4563 777.9138,218.33067 777.15952,217.7649 C 776.39267,217.1896 775.71919,216.98292 774.94323,216.40065 C 774.19335,215.83813 773.53539,215.16336 772.89739,214.52511 C 772.26817,213.89572 771.65224,213.62079 771.19254,213.16107 C 770.62813,212.59642 769.74408,212.26612 769.14669,211.96743 C 768.3746,211.58144 767.94115,211.12711 767.27134,210.85909 C 766.46226,210.53545 765.8864,210.44875 765.14011,210.26223 C 764.88528,210.19869 764.59836,209.97133 764.37313,209.83606 C 764.27669,209.8119 764.19575,209.82581 764.11718,209.83606 z M 689.61433,250.33234 C 689.38635,250.5605 688.96521,250.35869 688.67672,250.50281 C 688.36748,250.65765 688.23489,251.24712 688.16529,251.52605 C 688.05071,251.9837 688.09066,252.41028 687.99473,252.89015 C 687.88559,253.43538 688.04914,254.30118 688.16529,254.76563 C 688.25716,255.13338 687.66702,255.59157 687.48317,255.9592 C 687.29407,256.33787 687.05149,256.64862 686.80138,256.9823 C 686.50765,257.37408 686.55243,258.22671 686.46031,258.68736 C 686.35064,259.23624 686.32367,259.66029 686.20463,260.13684 C 686.11427,260.49801 686.11938,260.85499 686.11938,261.24518 C 686.11938,261.54021 686.82003,261.72326 687.05712,261.84196 C 687.31136,261.96906 687.44585,261.66671 687.56855,261.33042 C 687.69119,260.99386 687.79366,260.5937 687.99473,260.39255 C 688.40611,259.98114 688.61937,259.79577 689.18816,259.79577 C 689.56038,259.79577 689.95906,259.71053 690.38151,259.71053 C 690.61788,259.71053 691.10312,259.85818 691.31925,259.96623 C 691.72952,260.17145 691.97996,260.3712 692.25686,260.64826 C 692.58659,260.97815 692.48969,261.36721 693.02417,261.50096 C 693.45905,261.60961 693.73425,261.84196 694.21746,261.84196 C 694.7131,261.84196 695.17104,261.84196 695.66677,261.84196 C 696.02728,261.84196 696.41042,261.84196 696.7748,261.84196 C 697.29435,261.84196 697.28637,261.5114 697.28637,260.98921 C 697.28637,260.53061 697.35282,260.21183 697.4568,259.79577 C 697.56287,259.37078 697.365,259.08786 697.28637,258.77253 C 697.19378,258.40231 696.58609,257.9871 696.34855,257.74963 C 695.8188,257.21971 695.2373,257.31093 695.06994,256.64109 C 694.99197,256.32969 695.15519,255.86664 695.15519,255.53295 C 695.15519,255.20818 695.24038,254.87481 695.24038,254.50992 C 695.24038,254.0735 694.96637,253.87647 694.81427,253.57212 C 694.62623,253.19611 694.27573,253.23117 693.87646,253.23111 C 693.50129,253.23111 692.96904,253.13482 692.59786,253.06051 C 692.17822,252.97653 691.94533,253.00468 691.66031,252.71942 C 691.34799,252.40729 691.0635,252.4556 691.0635,251.95222 C 691.0635,251.68887 690.88292,251.40062 690.80782,251.09974 C 690.71838,250.74209 690.64577,250.61579 690.38151,250.41765 C 690.22286,250.29861 689.79255,250.33234 689.61433,250.33234 z M 816.37158,253.57212 C 815.93611,253.63493 815.9215,255.21576 815.4339,255.70356 C 814.98337,256.15416 814.52346,256.27293 814.15523,256.64109 C 813.52242,257.27421 812.76021,257.866 812.10937,258.51695 C 811.55173,259.07481 811.46019,260.18235 811.17171,260.90416 C 810.9652,261.42051 811.17171,262.5512 811.17171,263.12085 C 811.17171,263.84498 810.3405,264.98586 810.06354,265.67826 C 809.88976,266.11297 809.74355,266.31152 809.46686,266.44566 C 809.19017,266.57994 808.82853,266.58392 808.35869,266.70143 C 807.59524,266.89227 806.97805,267.05076 806.31283,267.38359 C 805.82707,267.6264 805.4534,268.67624 805.20472,269.17396 C 804.94721,269.68916 805.0893,270.65857 804.94904,271.21996 C 804.72151,272.13021 804.77416,273.15916 804.94904,274.03329 C 805.09191,274.74825 805.20407,275.39441 805.37522,276.07961 C 805.56039,276.82027 805.23824,277.47993 805.11947,277.95502 C 804.94034,278.67178 804.69395,279.31647 804.52273,280.00128 C 804.34889,280.69716 805.20472,281.39235 805.20472,282.13272 C 805.20472,282.91296 805.40475,283.63424 805.20472,284.43464 C 805.07449,284.95517 805.3216,285.71638 805.63091,286.4807 C 805.94021,287.24504 806.36044,288.03492 806.48327,288.52678 C 806.56793,288.86559 804.71707,291.11022 804.52273,291.59602 C 804.27589,292.21317 803.91683,293.03233 803.49987,293.72746 C 803.07848,294.43004 803.58512,295.22271 803.58512,295.94414 C 803.58512,296.69589 803.75549,297.52756 803.75549,298.33128 C 803.75549,299.31878 803.92606,300.33224 803.92606,301.31529 C 803.92606,302.19938 803.02877,303.45504 802.81788,304.29908 C 802.61759,305.10061 802.83222,306.11799 803.15894,306.77174 C 803.40251,307.25914 802.96022,308.50334 802.81788,309.07339 C 802.57784,310.03347 803.07362,311.10894 803.07362,312.05731 C 803.07362,312.19246 803.07362,312.34842 803.07362,312.4837 C 803.07362,313.7999 804.14867,315.55793 804.43748,317.00216 C 804.59541,317.79231 804.15221,318.2288 804.0113,318.79258 C 803.79523,319.65685 804.26318,320.31186 804.43748,321.00912 C 804.71994,322.13916 804.493,323.11469 804.0113,324.07836 C 803.76832,324.56463 803.76328,324.93398 803.84081,325.35723 C 803.91853,325.78063 804.0978,326.21273 804.26698,326.63612 C 804.59404,327.45388 804.3013,328.56354 804.52273,329.44951 C 804.71123,330.20367 804.43748,331.5755 804.43748,332.43345 C 804.43748,333.05199 804.18809,333.34416 804.0113,333.71226 C 803.83451,334.08035 803.73887,334.49781 803.92606,335.24691 C 803.97096,335.42717 803.96612,335.66331 804.0113,335.84357 C 804.16877,336.47329 805.48058,337.79835 806.05702,338.23078 C 806.45937,338.53253 806.5771,338.85644 806.6537,339.16871 C 806.7307,339.48097 806.73914,339.79271 806.73914,340.27705 C 806.73914,341.29994 806.85039,341.92262 807.5062,342.57889 C 807.90736,342.9802 808.6818,342.9245 809.126,343.51676 C 809.4905,344.00283 809.46686,345.36721 809.46686,345.98908 C 809.46686,346.74809 809.48664,347.18405 809.72267,347.6089 C 809.95851,348.03375 810.39327,348.45008 810.91603,348.97301 C 811.14126,349.19831 811.37265,349.34443 811.59795,349.56974 C 812.13315,350.10524 812.22933,351.05381 812.79131,351.61587 C 813.31275,352.13754 814.12439,352.79401 814.83735,353.15053 C 815.2674,353.36564 815.71551,353.21667 816.11583,352.97998 C 816.51608,352.74331 816.85204,352.42784 817.13888,352.2126 C 817.97906,351.58254 818.60259,350.98988 819.01423,350.16652 C 819.57197,349.05079 820.55527,347.83134 820.80421,346.58586 C 820.90001,346.10679 821.03396,345.79711 821.31577,345.56276 C 821.59751,345.32848 822.03836,345.15874 822.42387,344.96598 C 823.11222,344.62178 823.76252,343.87147 824.12872,343.26085 C 824.53212,342.58828 825.25759,342.13628 826.00414,342.32313 C 826.58026,342.46724 826.98215,342.89263 827.28269,343.34602 C 827.58328,343.79961 827.85101,344.25475 827.96482,344.71034 C 828.1471,345.43974 827.40925,346.33296 827.11225,346.92681 C 826.6147,347.92236 826.84773,348.67193 826.17464,349.56974 C 825.57352,350.3714 825.27259,351.54434 824.89597,352.29789 C 824.38736,353.31554 824.51804,354.86976 824.29929,355.96398 C 824.202,356.45045 823.85439,357.41746 823.6173,358.01006 C 823.34106,358.7008 823.02056,360.014 823.02056,360.73821 C 823.02056,361.69717 822.0189,362.48572 821.57151,363.38107 C 821.04096,364.4423 820.64424,365.52901 820.2076,366.62085 C 819.87708,367.44739 819.47381,368.32704 819.01423,369.09324 C 818.606,369.77399 818.26127,370.48536 818.0765,371.22467 C 817.90626,371.90584 817.45611,372.46556 817.13888,373.10027 C 816.83843,373.70118 816.7844,374.32053 816.45689,374.97594 C 815.84856,376.19266 814.49086,378.30594 813.47337,379.32392 C 812.59619,380.2015 811.45823,381.39361 811.00128,382.30778 C 810.7014,382.90783 810.51459,383.36668 810.23397,383.9278 C 809.82494,384.74637 809.27881,385.66792 808.78499,386.65589 C 808.43967,387.3467 807.84248,387.68845 807.5062,388.36116 C 807.15752,389.05861 806.99908,389.34653 806.90964,389.72507 C 826.40067,366.88375 838.27924,337.25825 838.27924,304.89594 C 838.27924,288.38033 835.09215,272.64349 829.49923,258.09065 C 828.9292,258.13549 827.92069,258.34642 827.28269,258.34642 C 826.87195,258.34662 826.56717,258.66347 826.34515,259.02837 C 826.12305,259.39341 825.9917,259.84573 825.91889,260.13684 C 825.71683,260.94516 825.76012,261.86293 826.00414,262.69447 C 826.24823,263.52587 826.65629,264.28434 827.11225,264.74054 C 827.45784,265.08613 827.66682,265.42169 827.62375,265.67826 C 827.58066,265.93498 827.32263,266.10465 826.77132,266.10465 C 826.17432,266.10472 825.82559,266.00936 825.57791,265.84894 C 825.33028,265.68845 825.20056,265.47152 824.89597,265.16685 C 824.31835,264.58889 823.79258,264.10369 823.02056,263.71757 C 822.33817,263.37622 821.75492,263.08458 821.14528,262.7797 C 820.70691,262.56045 820.33422,261.32808 820.12228,260.90416 C 819.78908,260.23758 819.52573,259.56587 819.52573,258.77253 C 819.52567,258.23364 818.97613,257.41793 818.75843,256.9823 C 818.49488,256.45498 818.12914,255.89432 817.82082,255.27731 C 817.47615,254.58777 817.16062,254.12133 816.54195,253.65749 C 816.46318,253.5982 816.43391,253.56313 816.37158,253.57212 z M 654.74975,324.59004 C 654.65504,324.6315 654.53815,324.71627 654.40874,324.84576 C 654.03146,325.22297 654.11955,325.1495 653.47109,324.76051 C 653.6115,324.76051 655.251,326.7326 655.60214,327.31821 C 655.76747,327.59375 656.23949,327.67904 656.71026,327.65915 C 657.18122,327.63906 657.63438,327.54251 657.9038,327.48861 C 658.5073,327.36791 658.66535,327.00787 658.58567,326.63612 C 658.50598,326.26417 658.18856,325.84077 657.9038,325.69819 C 657.16472,325.32843 656.65898,325.0459 655.8579,324.84576 C 655.1952,324.67987 655.0336,324.46528 654.74975,324.59004 z M 656.28413,330.30201 C 655.77991,330.3931 655.02116,330.71256 654.74975,330.9841 C 654.53581,331.19808 654.71266,331.59866 654.92018,332.00714 C 655.12771,332.41562 655.42353,332.75816 655.51689,332.94507 C 655.7782,333.46766 657.32697,333.62703 657.9038,333.62703 C 658.38845,333.62703 658.60806,333.40805 658.67086,333.11554 C 658.73384,332.82284 658.65979,332.47444 658.58567,332.17767 C 658.45224,331.6437 657.79283,331.12895 657.47749,330.81362 C 657.15653,330.49244 657.44083,330.74044 656.71026,330.30201 C 656.60935,330.27679 656.45215,330.27154 656.28413,330.30201 z M 649.37938,334.90597 C 648.40455,334.90304 647.48982,334.93418 646.56632,335.67329 C 645.44535,336.57004 644.0878,338.19918 643.32714,338.48662 C 643.49538,338.90742 643.62998,339.27178 643.92378,339.42429 C 644.21751,339.57713 644.66274,339.56642 645.11725,339.33905 C 645.86208,338.96657 646.35774,338.80408 646.99263,338.48662 C 647.65082,338.15739 648.15772,337.88984 648.86802,337.88984 C 649.77951,337.88984 650.38786,338.20582 651.16948,338.40132 C 651.76047,338.54903 652.21084,338.75137 652.87437,339.08334 C 653.5643,339.42841 654.19698,339.72398 654.74975,340.27705 C 655.28683,340.81408 656.27818,341.08231 656.79556,341.47042 C 657.32717,341.86939 658.30785,342.3009 658.84148,342.8346 C 659.18733,343.1806 659.91869,343.92737 660.46108,344.19878 C 661.03366,344.48503 661.52231,344.42654 661.99543,344.28403 C 662.46849,344.14123 662.95767,343.94301 663.61511,343.94287 C 664.09465,343.94287 664.90753,343.99059 665.66095,344.02812 C 666.41424,344.06564 667.07404,344.06431 667.36574,343.77234 C 667.54697,343.59115 667.79632,343.34489 667.87724,343.09038 C 667.95817,342.83594 667.87076,342.61982 667.36574,342.49373 C 666.64512,342.31334 666.01014,342.09076 665.23471,341.89674 C 664.16157,341.62845 664.50132,341.14652 663.61511,340.70323 C 662.61124,340.20113 662.31385,340.05827 661.14302,339.7653 C 660.37604,339.57354 659.21325,339.45542 658.58567,338.82763 C 658.02108,338.26278 657.71831,337.24295 657.13663,336.95189 C 656.11927,336.44315 655.34127,335.74036 654.15311,335.50255 C 652.96727,335.26541 651.51712,334.90576 650.31703,334.90597 C 649.9632,334.90597 649.70439,334.9067 649.37938,334.90597 z M 672.1395,342.66407 C 671.94589,342.64657 671.73578,342.70099 671.54269,342.74937 C 670.75024,342.94752 668.68101,342.76135 668.5591,343.00508 C 668.42403,343.23031 668.25052,343.45208 668.13305,343.6871 C 667.85891,344.23545 667.90493,344.4131 668.04768,344.53973 C 668.19047,344.66622 668.45924,344.69549 668.72967,344.96598 C 668.83095,345.06744 669.07152,345.39941 669.1559,345.73331 C 669.24024,346.06726 669.15886,346.41379 668.81491,346.58586 C 668.73811,346.6242 667.07896,347.46159 667.11006,347.52366 C 667.33484,347.97319 667.56557,348.12033 668.5591,348.12033 C 669.38599,348.12033 669.95478,348.22918 670.69027,348.37623 C 671.18506,348.47517 672.26737,348.74932 672.73604,348.63207 C 673.84448,348.3548 674.67295,348.05891 675.3787,347.35313 C 675.97401,346.75747 675.98331,347.03148 677.08356,346.7564 C 677.46417,346.66112 677.92019,346.67809 678.19167,346.58586 C 678.46326,346.49364 678.6179,346.30068 678.6179,345.81847 C 678.6179,345.3066 678.02797,344.62496 677.33917,344.62496 C 676.73608,344.62496 675.93354,344.64679 675.3787,344.36926 C 674.60728,343.98326 674.60178,343.32234 673.67379,343.09038 C 673.23805,342.98125 672.72014,342.71703 672.1395,342.66407 z M 681.85712,345.64793 C 681.5886,345.5808 681.44587,345.96998 681.43107,346.41546 C 681.41601,346.86074 681.55679,347.34495 681.60143,347.52366 C 681.70031,347.91937 683.08754,348.12033 683.5621,348.12033 C 684.03634,348.12033 684.4161,348.13416 684.58502,348.03515 C 684.75388,347.93601 684.7038,347.76134 684.49964,347.35313 C 684.21194,346.77736 684.04342,346.10193 683.47685,345.81847 C 683.00903,345.58466 682.36711,345.64814 681.85712,345.64793 z M 689.52908,346.24472 C 689.38936,346.34818 689.31053,346.72367 689.35858,347.09735 C 689.40671,347.4711 689.60123,347.79734 690.21108,347.94997 C 690.81188,348.10029 691.69823,348.04686 692.08643,347.94997 C 692.40162,347.87113 692.27931,347.61409 692.00112,347.26775 C 691.72303,346.92169 691.35421,346.56065 691.0635,346.41546 C 690.71445,346.24073 690.04823,346.24472 689.61433,346.24472 C 689.57904,346.22708 689.56909,346.21538 689.52908,346.24472 z M 661.65444,347.09735 C 661.54097,347.1042 661.34088,347.18259 661.2282,347.18259 C 661.11473,347.08957 659.91227,347.15864 659.35292,347.43856 C 658.96203,347.63385 658.7068,347.82363 658.58567,348.03515 C 658.46474,348.24661 658.45832,348.5475 658.67086,348.97301 C 658.89289,349.41703 658.92104,349.7102 659.01198,349.91081 C 659.10259,350.1113 659.27565,350.21124 659.77923,350.33713 C 660.59701,350.54153 661.33316,350.79625 662.08062,350.42243 C 662.65845,350.13339 662.93305,349.29859 662.93318,348.63207 C 662.93318,347.80938 662.70304,347.35958 661.99543,347.18259 C 661.88609,347.15524 661.76791,347.09057 661.65444,347.09735 z M 693.10929,350.16652 C 692.67341,350.25914 692.74904,350.91448 693.19466,351.36017 C 693.72632,351.89194 694.2832,351.71102 694.64371,351.5307 C 695.0363,351.33428 694.88688,351.00871 694.55852,350.76338 C 694.23009,350.51805 693.73111,350.34212 693.70604,350.33713 C 693.44898,350.20851 693.25464,350.13572 693.10929,350.16652 z M 695.75181,353.91779 C 695.52297,354.09511 694.81427,354.67646 694.81427,355.02619 C 694.81427,355.35915 695.1609,355.35655 695.58138,355.28196 C 696.00186,355.20711 696.4507,355.06039 696.51913,355.02619 C 696.91388,354.82863 696.20137,354.20603 695.83719,353.91779 C 695.82429,353.92357 695.77336,353.90727 695.75181,353.91779 z M 696.26337,356.98709 C 696.27765,357.01071 696.33218,357.13155 696.34855,357.1575 C 696.41213,357.10433 696.44375,356.99147 696.43394,356.98709 C 696.42562,356.9833 696.3382,356.94956 696.26337,356.98709 z M 696.34855,357.1575 C 696.04744,357.41001 695.1021,358.05191 694.98471,358.52155 C 694.88479,358.92137 696.64928,358.4566 696.68956,358.43644 C 697.08541,358.23841 696.60987,357.5715 696.34855,357.1575 z M 699.92889,358.09522 C 699.88993,358.49938 699.4652,359.60179 699.84358,359.88572 C 700.40169,360.30445 700.65626,360.18535 700.78126,359.97089 C 700.90625,359.7565 700.89301,359.42713 700.78126,359.2037 C 700.5678,358.77658 700.32056,358.49526 699.92889,358.09522 z " />
        <path
           sodipodi:nodetypes="csscsc"
           id="path3339"
           d="M 816.4664,256.23117 C 816.4664,256.23117 782.2462,252.91487 758.70193,269.94298 C 735.15766,286.97109 722.28933,324.34362 694.94272,335.67095 C 640.24951,358.32562 597.69358,346.84984 597.69358,346.84984 C 572.68282,286.46853 601.38935,217.16484 661.77064,192.15408 C 722.15195,167.14334 791.45565,195.84986 816.4664,256.23117 z "
           style="color:#000000;fill:url(#radialGradient20061);fill-opacity:1;fill-rule:nonzero;stroke:none;stroke-width:20;stroke-linecap:round;stroke-linejoin:round;marker:none;marker-start:none;marker-mid:none;marker-end:none;stroke-miterlimit:4;stroke-dashoffset:50;stroke-opacity:1;visibility:visible;display:inline;overflow:visible;enable-background:accumulate" />
      </g>
      <path
         id="path3459"
         d="M 596.53571,406.5186 L 617.66936,394.31708"
         style="fill:none;fill-rule:evenodd;stroke:#000000;stroke-width:3;stroke-linecap:butt;stroke-linejoin:miter;stroke-miterlimit:4;stroke-dasharray:3, 18;stroke-dashoffset:0;stroke-opacity:1" />
      <path
         id="path4430"
         d="M 687.28571,207.0186 L 689.53242,215.40345"
         style="fill:none;fill-rule:evenodd;stroke:#000000;stroke-width:3;stroke-linecap:butt;stroke-linejoin:miter;stroke-miterlimit:4;stroke-dasharray:none;stroke-opacity:1" />
      <text
         xml:space="preserve"
         style="font-style:normal;font-variant:normal;font-weight:normal;font-stretch:normal;line-height:0%;font-family:'Nimbus Sans L';-inkscape-font-specification:'Nimbus Sans L';text-align:start;letter-spacing:0px;word-spacing:0px;writing-mode:lr-tb;text-anchor:start;fill:#000000;fill-opacity:1;stroke:none"
         x="941.46606"
         y="324.13412"
         id="text3131"><tspan
           sodipodi:role="line"
           id="tspan3133"
           x="941.46606"
           y="324.13412"
           style="font-size:40px;line-height:1.25">Ecliptic plane</tspan></text>
    </g>
  </g>
</svg>
