<?xml version='1.0' encoding='utf-8'?>
<svg xmlns="http://www.w3.org/2000/svg"
  xmlns:cc="http://creativecommons.org/ns#"
  xmlns:dc="http://purl.org/dc/elements/1.1/"
  xmlns:rdf="http://www.w3.org/1999/02/22-rdf-syntax-ns#" width="500" height="400" viewBox="0 0 500 400" id="ellipse-animate">
  <g id="bounding-box-and-axes">
    <path fill="white" stroke-width="2" stroke-linecap="butt" stroke-linejoin="miter" stroke="rgb(0%, 0%, 0%)" stroke-opacity="1" stroke-miterlimit="10" d="M 0 400 L 0 0 L 500 0 L 500 400 Z M 0 400 " />
    <path fill="none" stroke-width="1" stroke-linecap="butt" stroke-linejoin="miter" stroke="rgb(0%, 0%, 0%)" stroke-opacity="1" stroke-dasharray="4 4" stroke-miterlimit="10" d="M 500 325 L 0 325 " />
  </g>
  <metadata>
    <rdf:RDF>
      <cc:Work rdf:about="">
        <cc:license rdf:resource="http://creativecommons.org/licenses/by-sa/4.0/" />
        <dc:title>time-since-periapsis-area-animate.svg</dc:title>
        <dc:date>2025-01-16T11:18:16.491274</dc:date>
        <dc:format>image/svg+xml</dc:format>
        <dc:creator>
          <cc:Agent>
            <dc:title>Bryan Weber</dc:title>
          </cc:Agent>
        </dc:creator>
      </cc:Work>
      <cc:License rdf:about="http://creativecommons.org/licenses/by-sa/4.0/">
        <cc:permits rdf:resource="http://creativecommons.org/ns#Reproduction" />
        <cc:permits rdf:resource="http://creativecommons.org/ns#Distribution" />
        <cc:requires rdf:resource="http://creativecommons.org/ns#Notice" />
        <cc:requires rdf:resource="http://creativecommons.org/ns#Attribution" />
        <cc:permits rdf:resource="http://creativecommons.org/ns#DerivativeWorks" />
        <cc:requires rdf:resource="http://creativecommons.org/ns#ShareAlike" />
      </cc:License>
    </rdf:RDF>
  </metadata>
  <path id="filled-area" fill-rule="nonzero" fill="rgb(100%, 89.411765%, 88.235294%)" fill-opacity="0.8" d="M 183.699219 145.925781 L 192.707031 147.644531 L 201.621094 149.542969 L 210.4375 151.613281 L 219.144531 153.855469 L 227.734375 156.265625 L 236.195312 158.84375 L 244.527344 161.585938 L 252.710938 164.488281 L 260.746094 167.550781 L 268.625 170.765625 L 276.335938 174.132812 L 283.871094 177.652344 L 291.226562 181.3125 L 298.394531 185.117188 L 305.363281 189.0625 L 312.132812 193.136719 L 318.691406 197.34375 L 325.035156 201.679688 L 331.152344 206.132812 L 337.046875 210.703125 L 342.707031 215.390625 L 348.125 220.183594 L 353.296875 225.078125 L 358.222656 230.074219 L 362.890625 235.164062 L 367.300781 240.339844 L 371.449219 245.601562 L 375.328125 250.941406 L 378.933594 256.351562 L 382.265625 261.832031 L 385.316406 267.375 L 388.089844 272.972656 L 390.574219 278.625 L 392.773438 284.320312 L 394.6875 290.058594 L 396.304688 295.828125 L 397.632812 301.628906 L 398.667969 307.449219 L 399.40625 313.289062 L 399.851562 319.140625 L 400 325 L 335 325 L 183.699219 145.925781 " />
  <path id="original-ellipse" fill="none" stroke-width="2" stroke-linecap="butt" stroke-linejoin="miter" stroke="rgb(55.294118%, 62.745098%, 79.607843%)" stroke-opacity="0.7" stroke-miterlimit="10" d="M -200 325 L -199.851562 319.140625 L -199.40625 313.289062 L -198.667969 307.449219 L -197.632812 301.628906 L -196.304688 295.828125 L -194.6875 290.058594 L -192.773438 284.320312 L -190.574219 278.625 L -188.089844 272.972656 L -185.316406 267.375 L -182.265625 261.832031 L -178.933594 256.351562 L -175.328125 250.941406 L -171.449219 245.601562 L -167.300781 240.339844 L -162.890625 235.164062 L -158.222656 230.074219 L -153.296875 225.078125 L -148.125 220.183594 L -142.707031 215.390625 L -137.046875 210.703125 L -131.152344 206.132812 L -125.035156 201.679688 L -118.691406 197.34375 L -112.132812 193.136719 L -105.363281 189.0625 L -98.394531 185.117188 L -91.226562 181.3125 L -83.871094 177.652344 L -76.335938 174.132812 L -68.625 170.765625 L -60.746094 167.550781 L -52.710938 164.488281 L -44.527344 161.585938 L -36.195312 158.84375 L -27.734375 156.265625 L -19.144531 153.855469 L -10.4375 151.613281 L -1.621094 149.542969 L 7.292969 147.644531 L 16.300781 145.925781 L 25.394531 144.378906 L 34.558594 143.011719 L 43.785156 141.824219 L 53.070312 140.816406 L 62.398438 139.988281 L 71.765625 139.347656 L 81.164062 138.886719 L 90.578125 138.613281 L 100 138.519531 L 109.421875 138.613281 L 118.835938 138.886719 L 128.234375 139.347656 L 137.601562 139.988281 L 146.929688 140.816406 L 156.214844 141.824219 L 165.441406 143.011719 L 174.605469 144.378906 L 183.699219 145.925781 L 192.707031 147.644531 L 201.621094 149.542969 L 210.4375 151.613281 L 219.144531 153.855469 L 227.734375 156.265625 L 236.195312 158.84375 L 244.527344 161.585938 L 252.710938 164.488281 L 260.746094 167.550781 L 268.625 170.765625 L 276.335938 174.132812 L 283.871094 177.652344 L 291.226562 181.3125 L 298.394531 185.117188 L 305.363281 189.0625 L 312.132812 193.136719 L 318.691406 197.34375 L 325.035156 201.679688 L 331.152344 206.132812 L 337.046875 210.703125 L 342.707031 215.390625 L 348.125 220.183594 L 353.296875 225.078125 L 358.222656 230.074219 L 362.890625 235.164062 L 367.300781 240.339844 L 371.449219 245.601562 L 375.328125 250.941406 L 378.933594 256.351562 L 382.265625 261.832031 L 385.316406 267.375 L 388.089844 272.972656 L 390.574219 278.625 L 392.773438 284.320312 L 394.6875 290.058594 L 396.304688 295.828125 L 397.632812 301.628906 L 398.667969 307.449219 L 399.40625 313.289062 L 399.851562 319.140625 L 400 325 L 399.851562 330.859375 L 399.40625 336.710938 L 398.667969 342.550781 L 397.632812 348.371094 L 396.304688 354.171875 L 394.6875 359.941406 L 392.773438 365.679688 L 390.574219 371.375 L 388.089844 377.027344 L 385.316406 382.625 L 382.265625 388.167969 L 378.933594 393.648438 L 375.328125 399.058594 L 371.449219 404.398438 L 367.300781 409.660156 L 362.890625 414.835938 L 358.222656 419.925781 L 353.296875 424.921875 L 348.125 429.816406 L 342.707031 434.609375 L 337.046875 439.296875 L 331.152344 443.867188 L 325.035156 448.320312 L 318.691406 452.65625 L 312.132812 456.863281 L 305.363281 460.9375 L 298.394531 464.882812 L 291.226562 468.6875 L 283.871094 472.347656 L 276.335938 475.867188 L 268.625 479.234375 L 260.746094 482.449219 L 252.710938 485.511719 L 244.527344 488.414062 L 236.195312 491.15625 L 227.734375 493.734375 L 219.144531 496.144531 L 210.4375 498.386719 L 201.621094 500.457031 L 192.707031 502.355469 L 183.699219 504.074219 L 174.605469 505.621094 L 165.441406 506.988281 L 156.214844 508.175781 L 146.929688 509.183594 L 137.601562 510.011719 L 128.234375 510.652344 L 118.835938 511.113281 L 109.421875 511.386719 L 100 511.480469 L 90.578125 511.386719 L 81.164062 511.113281 L 71.765625 510.652344 L 62.398438 510.011719 L 53.070312 509.183594 L 43.785156 508.175781 L 34.558594 506.988281 L 25.394531 505.621094 L 16.300781 504.074219 L 7.292969 502.355469 L -1.621094 500.457031 L -10.4375 498.386719 L -19.144531 496.144531 L -27.734375 493.734375 L -36.195312 491.15625 L -44.527344 488.414062 L -52.710938 485.511719 L -60.746094 482.449219 L -68.625 479.234375 L -76.335938 475.867188 L -83.871094 472.347656 L -91.226562 468.6875 L -98.394531 464.882812 L -105.363281 460.9375 L -112.132812 456.863281 L -118.691406 452.65625 L -125.035156 448.320312 L -131.152344 443.867188 L -137.046875 439.296875 L -142.707031 434.609375 L -148.125 429.816406 L -153.296875 424.921875 L -158.222656 419.925781 L -162.890625 414.835938 L -167.300781 409.660156 L -171.449219 404.398438 L -175.328125 399.058594 L -178.933594 393.648438 L -182.265625 388.167969 L -185.316406 382.625 L -188.089844 377.027344 L -190.574219 371.375 L -192.773438 365.679688 L -194.6875 359.941406 L -196.304688 354.171875 L -197.632812 348.371094 L -198.667969 342.550781 L -199.40625 336.710938 L -199.851562 330.859375 " />
  <path id="m1-to-B" fill="none" stroke-width="1" stroke-linecap="butt" stroke-linejoin="miter" stroke="rgb(0%, 0%, 0%)" stroke-opacity="1" stroke-miterlimit="10" d="M 335 325 L 183.699219 145.925781 " />
  <path id="axis-to-B" fill="none" stroke-width="1" stroke-linecap="butt" stroke-linejoin="miter" stroke="rgb(0%, 0%, 0%)" stroke-opacity="1" stroke-miterlimit="10" d="M 183.699219 325 L 183.699219 145.925781 " />
  <path id="animated-ellipse" fill="none" stroke-width="2" stroke-linecap="butt" stroke-linejoin="miter" stroke="rgb(85.490196%, 64.705882%, 12.54902%)" stroke-opacity="1" stroke-miterlimit="10" d="M -200 325 L -199.851562 319.140625 L -199.40625 313.289062 L -198.667969 307.449219 L -197.632812 301.628906 L -196.304688 295.828125 L -194.6875 290.058594 L -192.773438 284.320312 L -190.574219 278.625 L -188.089844 272.972656 L -185.316406 267.375 L -182.265625 261.832031 L -178.933594 256.351562 L -175.328125 250.941406 L -171.449219 245.601562 L -167.300781 240.339844 L -162.890625 235.164062 L -158.222656 230.074219 L -153.296875 225.078125 L -148.125 220.183594 L -142.707031 215.390625 L -137.046875 210.703125 L -131.152344 206.132812 L -125.035156 201.679688 L -118.691406 197.34375 L -112.132812 193.136719 L -105.363281 189.0625 L -98.394531 185.117188 L -91.226562 181.3125 L -83.871094 177.652344 L -76.335938 174.132812 L -68.625 170.765625 L -60.746094 167.550781 L -52.710938 164.488281 L -44.527344 161.585938 L -36.195312 158.84375 L -27.734375 156.265625 L -19.144531 153.855469 L -10.4375 151.613281 L -1.621094 149.542969 L 7.292969 147.644531 L 16.300781 145.925781 L 25.394531 144.378906 L 34.558594 143.011719 L 43.785156 141.824219 L 53.070312 140.816406 L 62.398438 139.988281 L 71.765625 139.347656 L 81.164062 138.886719 L 90.578125 138.613281 L 100 138.519531 L 109.421875 138.613281 L 118.835938 138.886719 L 128.234375 139.347656 L 137.601562 139.988281 L 146.929688 140.816406 L 156.214844 141.824219 L 165.441406 143.011719 L 174.605469 144.378906 L 183.699219 145.925781 L 192.707031 147.644531 L 201.621094 149.542969 L 210.4375 151.613281 L 219.144531 153.855469 L 227.734375 156.265625 L 236.195312 158.84375 L 244.527344 161.585938 L 252.710938 164.488281 L 260.746094 167.550781 L 268.625 170.765625 L 276.335938 174.132812 L 283.871094 177.652344 L 291.226562 181.3125 L 298.394531 185.117188 L 305.363281 189.0625 L 312.132812 193.136719 L 318.691406 197.34375 L 325.035156 201.679688 L 331.152344 206.132812 L 337.046875 210.703125 L 342.707031 215.390625 L 348.125 220.183594 L 353.296875 225.078125 L 358.222656 230.074219 L 362.890625 235.164062 L 367.300781 240.339844 L 371.449219 245.601562 L 375.328125 250.941406 L 378.933594 256.351562 L 382.265625 261.832031 L 385.316406 267.375 L 388.089844 272.972656 L 390.574219 278.625 L 392.773438 284.320312 L 394.6875 290.058594 L 396.304688 295.828125 L 397.632812 301.628906 L 398.667969 307.449219 L 399.40625 313.289062 L 399.851562 319.140625 L 400 325 L 399.851562 330.859375 L 399.40625 336.710938 L 398.667969 342.550781 L 397.632812 348.371094 L 396.304688 354.171875 L 394.6875 359.941406 L 392.773438 365.679688 L 390.574219 371.375 L 388.089844 377.027344 L 385.316406 382.625 L 382.265625 388.167969 L 378.933594 393.648438 L 375.328125 399.058594 L 371.449219 404.398438 L 367.300781 409.660156 L 362.890625 414.835938 L 358.222656 419.925781 L 353.296875 424.921875 L 348.125 429.816406 L 342.707031 434.609375 L 337.046875 439.296875 L 331.152344 443.867188 L 325.035156 448.320312 L 318.691406 452.65625 L 312.132812 456.863281 L 305.363281 460.9375 L 298.394531 464.882812 L 291.226562 468.6875 L 283.871094 472.347656 L 276.335938 475.867188 L 268.625 479.234375 L 260.746094 482.449219 L 252.710938 485.511719 L 244.527344 488.414062 L 236.195312 491.15625 L 227.734375 493.734375 L 219.144531 496.144531 L 210.4375 498.386719 L 201.621094 500.457031 L 192.707031 502.355469 L 183.699219 504.074219 L 174.605469 505.621094 L 165.441406 506.988281 L 156.214844 508.175781 L 146.929688 509.183594 L 137.601562 510.011719 L 128.234375 510.652344 L 118.835938 511.113281 L 109.421875 511.386719 L 100 511.480469 L 90.578125 511.386719 L 81.164062 511.113281 L 71.765625 510.652344 L 62.398438 510.011719 L 53.070312 509.183594 L 43.785156 508.175781 L 34.558594 506.988281 L 25.394531 505.621094 L 16.300781 504.074219 L 7.292969 502.355469 L -1.621094 500.457031 L -10.4375 498.386719 L -19.144531 496.144531 L -27.734375 493.734375 L -36.195312 491.15625 L -44.527344 488.414062 L -52.710938 485.511719 L -60.746094 482.449219 L -68.625 479.234375 L -76.335938 475.867188 L -83.871094 472.347656 L -91.226562 468.6875 L -98.394531 464.882812 L -105.363281 460.9375 L -112.132812 456.863281 L -118.691406 452.65625 L -125.035156 448.320312 L -131.152344 443.867188 L -137.046875 439.296875 L -142.707031 434.609375 L -148.125 429.816406 L -153.296875 424.921875 L -158.222656 419.925781 L -162.890625 414.835938 L -167.300781 409.660156 L -171.449219 404.398438 L -175.328125 399.058594 L -178.933594 393.648438 L -182.265625 388.167969 L -185.316406 382.625 L -188.089844 377.027344 L -190.574219 371.375 L -192.773438 365.679688 L -194.6875 359.941406 L -196.304688 354.171875 L -197.632812 348.371094 L -198.667969 342.550781 L -199.40625 336.710938 L -199.851562 330.859375 " />
  <circle id="m1-point" fill="rgb(80%, 80%, 80%)" fill-opacity="1" cx="335" cy="325" r="4" />
  <path id="B-point" fill-rule="nonzero" fill="rgb(80%, 80%, 80%)" fill-opacity="1" d="M 187.699219 145.925781 C 187.699219 148.132812 185.90625 149.925781 183.699219 149.925781 C 181.488281 149.925781 179.699219 148.132812 179.699219 145.925781 C 179.699219 143.714844 181.488281 141.925781 183.699219 141.925781 C 185.90625 141.925781 187.699219 143.714844 187.699219 145.925781 Z M 187.699219 145.925781 " />
  <circle id="Q-point" fill="rgb(80%, 80%, 80%)" fill-opacity="1" cx="183.699219" cy="145.925781" r="4" />
  <path id="O" fill-rule="nonzero" fill="rgb(80%, 80%, 80%)" fill-opacity="1" d="M 104 325 C 104 327.210938 102.210938 329 100 329 C 97.789062 329 96 327.210938 96 325 C 96 322.789062 97.789062 321 100 321 C 102.210938 321 104 322.789062 104 325 Z M 104 325 " />
  <path id="P" fill-rule="nonzero" fill="rgb(80%, 80%, 80%)" fill-opacity="1" d="M 404 325 C 404 327.210938 402.210938 329 400 329 C 397.789062 329 396 327.210938 396 325 C 396 322.789062 397.789062 321 400 321 C 402.210938 321 404 322.789062 404 325 Z M 404 325 " />
  <image x="77.0pt" y="250.0pt" height="1.643ex" width="1.726ex" object-fit="contain" href="data:image/svg+xml;utf8,&lt;svg xmlns=&quot;http://www.w3.org/2000/svg&quot; style=&quot;vertical-align: -0.05ex&quot; width=&quot;1.726ex&quot; height=&quot;1.643ex&quot; role=&quot;img&quot; focusable=&quot;false&quot; viewBox=&quot;0 -704 763 726&quot;&gt;&#10;&lt;style&gt;&#10;  * {&#10;    fill: black;&#10;    background-color: transparent;&#10;  }&#10;&lt;/style&gt;&lt;g stroke=&quot;currentColor&quot; fill=&quot;currentColor&quot; stroke-width=&quot;0&quot; transform=&quot;scale(1,-1)&quot;&gt;&lt;g data-mml-node=&quot;math&quot;&gt;&lt;g data-mml-node=&quot;mi&quot;&gt;&lt;path data-c=&quot;1D442&quot; d=&quot;M740 435Q740 320 676 213T511 42T304 -22Q207 -22 138 35T51 201Q50 209 50 244Q50 346 98 438T227 601Q351 704 476 704Q514 704 524 703Q621 689 680 617T740 435ZM637 476Q637 565 591 615T476 665Q396 665 322 605Q242 542 200 428T157 216Q157 126 200 73T314 19Q404 19 485 98T608 313Q637 408 637 476Z&quot; /&gt;&lt;/g&gt;&lt;/g&gt;&lt;/g&gt;&lt;/svg&gt;" />
  <image x="235.0pt" y="250.0pt" height="1.339ex" width="2.974ex" object-fit="contain" href="data:image/svg+xml;utf8,&lt;svg xmlns=&quot;http://www.w3.org/2000/svg&quot; style=&quot;vertical-align: -0.339ex&quot; width=&quot;2.974ex&quot; height=&quot;1.339ex&quot; role=&quot;img&quot; focusable=&quot;false&quot; viewBox=&quot;0 -442 1314.6 592&quot;&gt;&#10;&lt;style&gt;&#10;  * {&#10;    fill: black;&#10;    background-color: transparent;&#10;  }&#10;&lt;/style&gt;&lt;g stroke=&quot;currentColor&quot; fill=&quot;currentColor&quot; stroke-width=&quot;0&quot; transform=&quot;scale(1,-1)&quot;&gt;&lt;g data-mml-node=&quot;math&quot;&gt;&lt;g data-mml-node=&quot;msub&quot;&gt;&lt;g data-mml-node=&quot;mi&quot;&gt;&lt;path data-c=&quot;1D45A&quot; d=&quot;M21 287Q22 293 24 303T36 341T56 388T88 425T132 442T175 435T205 417T221 395T229 376L231 369Q231 367 232 367L243 378Q303 442 384 442Q401 442 415 440T441 433T460 423T475 411T485 398T493 385T497 373T500 364T502 357L510 367Q573 442 659 442Q713 442 746 415T780 336Q780 285 742 178T704 50Q705 36 709 31T724 26Q752 26 776 56T815 138Q818 149 821 151T837 153Q857 153 857 145Q857 144 853 130Q845 101 831 73T785 17T716 -10Q669 -10 648 17T627 73Q627 92 663 193T700 345Q700 404 656 404H651Q565 404 506 303L499 291L466 157Q433 26 428 16Q415 -11 385 -11Q372 -11 364 -4T353 8T350 18Q350 29 384 161L420 307Q423 322 423 345Q423 404 379 404H374Q288 404 229 303L222 291L189 157Q156 26 151 16Q138 -11 108 -11Q95 -11 87 -5T76 7T74 17Q74 30 112 181Q151 335 151 342Q154 357 154 369Q154 405 129 405Q107 405 92 377T69 316T57 280Q55 278 41 278H27Q21 284 21 287Z&quot; /&gt;&lt;/g&gt;&lt;g data-mml-node=&quot;mn&quot; transform=&quot;translate(911,-150) scale(0.707)&quot;&gt;&lt;path data-c=&quot;31&quot; d=&quot;M213 578L200 573Q186 568 160 563T102 556H83V602H102Q149 604 189 617T245 641T273 663Q275 666 285 666Q294 666 302 660V361L303 61Q310 54 315 52T339 48T401 46H427V0H416Q395 3 257 3Q121 3 100 0H88V46H114Q136 46 152 46T177 47T193 50T201 52T207 57T213 61V578Z&quot; /&gt;&lt;/g&gt;&lt;/g&gt;&lt;/g&gt;&lt;/g&gt;&lt;/svg&gt;" />
  <image x="143.69733181176886pt" y="98.92389381978879pt" height="1.545ex" width="1.717ex" object-fit="contain" href="data:image/svg+xml;utf8,&lt;svg xmlns=&quot;http://www.w3.org/2000/svg&quot; style=&quot;vertical-align: 0&quot; width=&quot;1.717ex&quot; height=&quot;1.545ex&quot; role=&quot;img&quot; focusable=&quot;false&quot; viewBox=&quot;0 -683 759 683&quot;&gt;&#10;&lt;style&gt;&#10;  * {&#10;    fill: black;&#10;    background-color: transparent;&#10;  }&#10;&lt;/style&gt;&lt;g stroke=&quot;currentColor&quot; fill=&quot;currentColor&quot; stroke-width=&quot;0&quot; transform=&quot;scale(1,-1)&quot;&gt;&lt;g data-mml-node=&quot;math&quot;&gt;&lt;g data-mml-node=&quot;mi&quot;&gt;&lt;path data-c=&quot;1D435&quot; d=&quot;M231 637Q204 637 199 638T194 649Q194 676 205 682Q206 683 335 683Q594 683 608 681Q671 671 713 636T756 544Q756 480 698 429T565 360L555 357Q619 348 660 311T702 219Q702 146 630 78T453 1Q446 0 242 0Q42 0 39 2Q35 5 35 10Q35 17 37 24Q42 43 47 45Q51 46 62 46H68Q95 46 128 49Q142 52 147 61Q150 65 219 339T288 628Q288 635 231 637ZM649 544Q649 574 634 600T585 634Q578 636 493 637Q473 637 451 637T416 636H403Q388 635 384 626Q382 622 352 506Q352 503 351 500L320 374H401Q482 374 494 376Q554 386 601 434T649 544ZM595 229Q595 273 572 302T512 336Q506 337 429 337Q311 337 310 336Q310 334 293 263T258 122L240 52Q240 48 252 48T333 46Q422 46 429 47Q491 54 543 105T595 229Z&quot; /&gt;&lt;/g&gt;&lt;/g&gt;&lt;/g&gt;&lt;/svg&gt;" />
  <image display="none" id="Q" x="143.69733181176886pt" y="10.08810570308287pt" height="2.032ex" width="1.79ex" object-fit="contain" href="data:image/svg+xml;utf8,&lt;svg xmlns=&quot;http://www.w3.org/2000/svg&quot; style=&quot;vertical-align: -0.439ex&quot; width=&quot;1.79ex&quot; height=&quot;2.032ex&quot; role=&quot;img&quot; focusable=&quot;false&quot; viewBox=&quot;0 -704 791 898&quot;&gt;&#10;&lt;style&gt;&#10;  * {&#10;    fill: black;&#10;    background-color: transparent;&#10;  }&#10;&lt;/style&gt;&lt;g stroke=&quot;currentColor&quot; fill=&quot;currentColor&quot; stroke-width=&quot;0&quot; transform=&quot;scale(1,-1)&quot;&gt;&lt;g data-mml-node=&quot;math&quot;&gt;&lt;g data-mml-node=&quot;mi&quot;&gt;&lt;path data-c=&quot;1D444&quot; d=&quot;M399 -80Q399 -47 400 -30T402 -11V-7L387 -11Q341 -22 303 -22Q208 -22 138 35T51 201Q50 209 50 244Q50 346 98 438T227 601Q351 704 476 704Q514 704 524 703Q621 689 680 617T740 435Q740 255 592 107Q529 47 461 16L444 8V3Q444 2 449 -24T470 -66T516 -82Q551 -82 583 -60T625 -3Q631 11 638 11Q647 11 649 2Q649 -6 639 -34T611 -100T557 -165T481 -194Q399 -194 399 -87V-80ZM636 468Q636 523 621 564T580 625T530 655T477 665Q429 665 379 640Q277 591 215 464T153 216Q153 110 207 59Q231 38 236 38V46Q236 86 269 120T347 155Q372 155 390 144T417 114T429 82T435 55L448 64Q512 108 557 185T619 334T636 468ZM314 18Q362 18 404 39L403 49Q399 104 366 115Q354 117 347 117Q344 117 341 117T337 118Q317 118 296 98T274 52Q274 18 314 18Z&quot; /&gt;&lt;/g&gt;&lt;/g&gt;&lt;/g&gt;&lt;/svg&gt;" />
  <image x="300.0pt" y="250.0pt" height="1.545ex" width="1.699ex" object-fit="contain" href="data:image/svg+xml;utf8,&lt;svg xmlns=&quot;http://www.w3.org/2000/svg&quot; style=&quot;vertical-align: 0&quot; width=&quot;1.699ex&quot; height=&quot;1.545ex&quot; role=&quot;img&quot; focusable=&quot;false&quot; viewBox=&quot;0 -683 751 683&quot;&gt;&#10;&lt;style&gt;&#10;  * {&#10;    fill: black;&#10;    background-color: transparent;&#10;  }&#10;&lt;/style&gt;&lt;g stroke=&quot;currentColor&quot; fill=&quot;currentColor&quot; stroke-width=&quot;0&quot; transform=&quot;scale(1,-1)&quot;&gt;&lt;g data-mml-node=&quot;math&quot;&gt;&lt;g data-mml-node=&quot;mi&quot;&gt;&lt;path data-c=&quot;1D443&quot; d=&quot;M287 628Q287 635 230 637Q206 637 199 638T192 648Q192 649 194 659Q200 679 203 681T397 683Q587 682 600 680Q664 669 707 631T751 530Q751 453 685 389Q616 321 507 303Q500 302 402 301H307L277 182Q247 66 247 59Q247 55 248 54T255 50T272 48T305 46H336Q342 37 342 35Q342 19 335 5Q330 0 319 0Q316 0 282 1T182 2Q120 2 87 2T51 1Q33 1 33 11Q33 13 36 25Q40 41 44 43T67 46Q94 46 127 49Q141 52 146 61Q149 65 218 339T287 628ZM645 554Q645 567 643 575T634 597T609 619T560 635Q553 636 480 637Q463 637 445 637T416 636T404 636Q391 635 386 627Q384 621 367 550T332 412T314 344Q314 342 395 342H407H430Q542 342 590 392Q617 419 631 471T645 554Z&quot; /&gt;&lt;/g&gt;&lt;/g&gt;&lt;/g&gt;&lt;/svg&gt;" />
</svg>
