<?xml version='1.0' encoding='utf-8'?>
<svg xmlns="http://www.w3.org/2000/svg" xmlns:cc="http://creativecommons.org/ns#" xmlns:dc="http://purl.org/dc/elements/1.1/" xmlns:rdf="http://www.w3.org/1999/02/22-rdf-syntax-ns#" width="500" height="300" viewBox="0 0 500 300" id="ellipse-only">
<path fill="none" stroke-width="2" stroke-linecap="butt" stroke-linejoin="miter" stroke="rgb(0%, 0%, 0%)" stroke-opacity="1" stroke-miterlimit="10" d="M 0 300 L 0 0 L 500 0 L 500 300 Z M 0 300 " />
<metadata>
  <rdf:RDF>
    <cc:Work rdf:about="">
      <cc:license rdf:resource="http://creativecommons.org/licenses/by-sa/4.0/" />
      <dc:title>time-since-periapsis-area-ellipse.svg</dc:title>
      <dc:date>2025-01-16T11:07:23.020753</dc:date>
      <dc:format>image/svg+xml</dc:format>
      <dc:creator>
        <cc:Agent>
          <dc:title>Bryan Weber</dc:title>
        </cc:Agent>
      </dc:creator>
   </cc:Work>
   <cc:License rdf:about="http://creativecommons.org/licenses/by-sa/4.0/">
      <cc:permits rdf:resource="http://creativecommons.org/ns#Reproduction" />
      <cc:permits rdf:resource="http://creativecommons.org/ns#Distribution" />
      <cc:requires rdf:resource="http://creativecommons.org/ns#Notice" />
      <cc:requires rdf:resource="http://creativecommons.org/ns#Attribution" />
      <cc:permits rdf:resource="http://creativecommons.org/ns#DerivativeWorks" />
      <cc:requires rdf:resource="http://creativecommons.org/ns#ShareAlike" />
   </cc:License>
   </rdf:RDF>
</metadata>
<path fill="none" stroke-width="1" stroke-linecap="butt" stroke-linejoin="miter" stroke="rgb(0%, 0%, 0%)" stroke-opacity="1" stroke-dasharray="4 4" stroke-miterlimit="10" d="M 500 243.75 L 0 243.75 " />
<path fill-rule="nonzero" fill="rgb(100%, 89.411765%, 88.235294%)" fill-opacity="0.8" d="M 183.699219 64.675781 L 192.707031 66.394531 L 201.621094 68.292969 L 210.4375 70.363281 L 219.144531 72.605469 L 227.734375 75.015625 L 236.195312 77.59375 L 244.527344 80.335938 L 252.710938 83.238281 L 260.746094 86.300781 L 268.625 89.515625 L 276.335938 92.882812 L 283.871094 96.402344 L 291.226562 100.0625 L 298.394531 103.867188 L 305.363281 107.8125 L 312.132812 111.886719 L 318.691406 116.09375 L 325.035156 120.429688 L 331.152344 124.882812 L 337.046875 129.453125 L 342.707031 134.140625 L 348.125 138.933594 L 353.296875 143.828125 L 358.222656 148.824219 L 362.890625 153.914062 L 367.300781 159.089844 L 371.449219 164.351562 L 375.328125 169.691406 L 378.933594 175.101562 L 382.265625 180.582031 L 385.316406 186.125 L 388.089844 191.722656 L 390.574219 197.375 L 392.773438 203.070312 L 394.6875 208.808594 L 396.304688 214.578125 L 397.632812 220.378906 L 398.667969 226.199219 L 399.40625 232.039062 L 399.851562 237.890625 L 400 243.75 L 335 243.75 L 183.699219 64.675781 " />
<path fill="none" stroke-width="2" stroke-linecap="butt" stroke-linejoin="miter" stroke="rgb(55.294118%, 62.745098%, 79.607843%)" stroke-opacity="1" stroke-miterlimit="10" d="M -200 243.75 L -199.851562 237.890625 L -199.40625 232.039062 L -198.667969 226.199219 L -197.632812 220.378906 L -196.304688 214.578125 L -194.6875 208.808594 L -192.773438 203.070312 L -190.574219 197.375 L -188.089844 191.722656 L -185.316406 186.125 L -182.265625 180.582031 L -178.933594 175.101562 L -175.328125 169.691406 L -171.449219 164.351562 L -167.300781 159.089844 L -162.890625 153.914062 L -158.222656 148.824219 L -153.296875 143.828125 L -148.125 138.933594 L -142.707031 134.140625 L -137.046875 129.453125 L -131.152344 124.882812 L -125.035156 120.429688 L -118.691406 116.09375 L -112.132812 111.886719 L -105.363281 107.8125 L -98.394531 103.867188 L -91.226562 100.0625 L -83.871094 96.402344 L -76.335938 92.882812 L -68.625 89.515625 L -60.746094 86.300781 L -52.710938 83.238281 L -44.527344 80.335938 L -36.195312 77.59375 L -27.734375 75.015625 L -19.144531 72.605469 L -10.4375 70.363281 L -1.621094 68.292969 L 7.292969 66.394531 L 16.300781 64.675781 L 25.394531 63.128906 L 34.558594 61.761719 L 43.785156 60.574219 L 53.070312 59.566406 L 62.398438 58.738281 L 71.765625 58.097656 L 81.164062 57.636719 L 90.578125 57.363281 L 100 57.269531 L 109.421875 57.363281 L 118.835938 57.636719 L 128.234375 58.097656 L 137.601562 58.738281 L 146.929688 59.566406 L 156.214844 60.574219 L 165.441406 61.761719 L 174.605469 63.128906 L 183.699219 64.675781 L 192.707031 66.394531 L 201.621094 68.292969 L 210.4375 70.363281 L 219.144531 72.605469 L 227.734375 75.015625 L 236.195312 77.59375 L 244.527344 80.335938 L 252.710938 83.238281 L 260.746094 86.300781 L 268.625 89.515625 L 276.335938 92.882812 L 283.871094 96.402344 L 291.226562 100.0625 L 298.394531 103.867188 L 305.363281 107.8125 L 312.132812 111.886719 L 318.691406 116.09375 L 325.035156 120.429688 L 331.152344 124.882812 L 337.046875 129.453125 L 342.707031 134.140625 L 348.125 138.933594 L 353.296875 143.828125 L 358.222656 148.824219 L 362.890625 153.914062 L 367.300781 159.089844 L 371.449219 164.351562 L 375.328125 169.691406 L 378.933594 175.101562 L 382.265625 180.582031 L 385.316406 186.125 L 388.089844 191.722656 L 390.574219 197.375 L 392.773438 203.070312 L 394.6875 208.808594 L 396.304688 214.578125 L 397.632812 220.378906 L 398.667969 226.199219 L 399.40625 232.039062 L 399.851562 237.890625 L 400 243.75 L 399.851562 249.609375 L 399.40625 255.460938 L 398.667969 261.300781 L 397.632812 267.121094 L 396.304688 272.921875 L 394.6875 278.691406 L 392.773438 284.429688 L 390.574219 290.125 L 388.089844 295.777344 L 385.316406 301.375 L 382.265625 306.917969 L 378.933594 312.398438 L 375.328125 317.808594 L 371.449219 323.148438 L 367.300781 328.410156 L 362.890625 333.585938 L 358.222656 338.675781 L 353.296875 343.671875 L 348.125 348.566406 L 342.707031 353.359375 L 337.046875 358.046875 L 331.152344 362.617188 L 325.035156 367.070312 L 318.691406 371.40625 L 312.132812 375.613281 L 305.363281 379.6875 L 298.394531 383.632812 L 291.226562 387.4375 L 283.871094 391.097656 L 276.335938 394.617188 L 268.625 397.984375 L 260.746094 401.199219 L 252.710938 404.261719 L 244.527344 407.164062 L 236.195312 409.90625 L 227.734375 412.484375 L 219.144531 414.894531 L 210.4375 417.136719 L 201.621094 419.207031 L 192.707031 421.105469 L 183.699219 422.824219 L 174.605469 424.371094 L 165.441406 425.738281 L 156.214844 426.925781 L 146.929688 427.933594 L 137.601562 428.761719 L 128.234375 429.402344 L 118.835938 429.863281 L 109.421875 430.136719 L 100 430.230469 L 90.578125 430.136719 L 81.164062 429.863281 L 71.765625 429.402344 L 62.398438 428.761719 L 53.070312 427.933594 L 43.785156 426.925781 L 34.558594 425.738281 L 25.394531 424.371094 L 16.300781 422.824219 L 7.292969 421.105469 L -1.621094 419.207031 L -10.4375 417.136719 L -19.144531 414.894531 L -27.734375 412.484375 L -36.195312 409.90625 L -44.527344 407.164062 L -52.710938 404.261719 L -60.746094 401.199219 L -68.625 397.984375 L -76.335938 394.617188 L -83.871094 391.097656 L -91.226562 387.4375 L -98.394531 383.632812 L -105.363281 379.6875 L -112.132812 375.613281 L -118.691406 371.40625 L -125.035156 367.070312 L -131.152344 362.617188 L -137.046875 358.046875 L -142.707031 353.359375 L -148.125 348.566406 L -153.296875 343.671875 L -158.222656 338.675781 L -162.890625 333.585938 L -167.300781 328.410156 L -171.449219 323.148438 L -175.328125 317.808594 L -178.933594 312.398438 L -182.265625 306.917969 L -185.316406 301.375 L -188.089844 295.777344 L -190.574219 290.125 L -192.773438 284.429688 L -194.6875 278.691406 L -196.304688 272.921875 L -197.632812 267.121094 L -198.667969 261.300781 L -199.40625 255.460938 L -199.851562 249.609375 " />
<path fill="none" stroke-width="1" stroke-linecap="butt" stroke-linejoin="miter" stroke="rgb(0%, 0%, 0%)" stroke-opacity="1" stroke-miterlimit="10" d="M 335 243.75 L 183.699219 64.675781 " />
<path fill="none" stroke-width="1" stroke-linecap="butt" stroke-linejoin="miter" stroke="rgb(0%, 0%, 0%)" stroke-opacity="1" stroke-miterlimit="10" d="M 395 243.75 C 395 222.058594 383.289062 202.054688 364.375 191.433594 C 345.460938 180.8125 322.285156 181.230469 303.765625 192.523438 " />
<path fill-rule="nonzero" fill="rgb(0%, 0%, 0%)" fill-opacity="1" d="M 306.007812 195.621094 L 296.277344 197.917969 L 301.535156 189.410156 " />
<path fill="none" stroke-width="1" stroke-linecap="butt" stroke-linejoin="miter" stroke="rgb(0%, 0%, 0%)" stroke-opacity="1" stroke-miterlimit="10" d="M 183.699219 243.75 L 183.699219 64.675781 " />
<path fill-rule="nonzero" fill="rgb(80%, 80%, 80%)" fill-opacity="1" d="M 339 243.75 C 339 245.960938 337.210938 247.75 335 247.75 C 332.789062 247.75 331 245.960938 331 243.75 C 331 241.539062 332.789062 239.75 335 239.75 C 337.210938 239.75 339 241.539062 339 243.75 Z M 339 243.75 " />
<path fill-rule="nonzero" fill="rgb(80%, 80%, 80%)" fill-opacity="1" d="M 187.699219 64.675781 C 187.699219 66.882812 185.90625 68.675781 183.699219 68.675781 C 181.488281 68.675781 179.699219 66.882812 179.699219 64.675781 C 179.699219 62.464844 181.488281 60.675781 183.699219 60.675781 C 185.90625 60.675781 187.699219 62.464844 187.699219 64.675781 Z M 187.699219 64.675781 " />
<path fill-rule="nonzero" fill="rgb(80%, 80%, 80%)" fill-opacity="1" d="M 104 243.75 C 104 245.960938 102.210938 247.75 100 247.75 C 97.789062 247.75 96 245.960938 96 243.75 C 96 241.539062 97.789062 239.75 100 239.75 C 102.210938 239.75 104 241.539062 104 243.75 Z M 104 243.75 " />
<path fill-rule="nonzero" fill="rgb(80%, 80%, 80%)" fill-opacity="1" d="M 404 243.75 C 404 245.960938 402.210938 247.75 400 247.75 C 397.789062 247.75 396 245.960938 396 243.75 C 396 241.539062 397.789062 239.75 400 239.75 C 402.210938 239.75 404 241.539062 404 243.75 Z M 404 243.75 " />
<image x="77.0pt" y="187.0pt" height="1.643ex" width="1.726ex" object-fit="contain" href="data:image/svg+xml;utf8,&lt;svg xmlns=&quot;http://www.w3.org/2000/svg&quot; style=&quot;vertical-align: -0.05ex&quot; width=&quot;1.726ex&quot; height=&quot;1.643ex&quot; role=&quot;img&quot; focusable=&quot;false&quot; viewBox=&quot;0 -704 763 726&quot;&gt;&#10;&lt;style&gt;&#10;  * {&#10;    fill: black;&#10;    background-color: transparent;&#10;  }&#10;&lt;/style&gt;&lt;g stroke=&quot;currentColor&quot; fill=&quot;currentColor&quot; stroke-width=&quot;0&quot; transform=&quot;scale(1,-1)&quot;&gt;&lt;g data-mml-node=&quot;math&quot;&gt;&lt;g data-mml-node=&quot;mi&quot;&gt;&lt;path data-c=&quot;1D442&quot; d=&quot;M740 435Q740 320 676 213T511 42T304 -22Q207 -22 138 35T51 201Q50 209 50 244Q50 346 98 438T227 601Q351 704 476 704Q514 704 524 703Q621 689 680 617T740 435ZM637 476Q637 565 591 615T476 665Q396 665 322 605Q242 542 200 428T157 216Q157 126 200 73T314 19Q404 19 485 98T608 313Q637 408 637 476Z&quot; /&gt;&lt;/g&gt;&lt;/g&gt;&lt;/g&gt;&lt;/svg&gt;" />
  <image x="235.0pt" y="187.0pt" height="1.339ex" width="2.974ex" object-fit="contain" href="data:image/svg+xml;utf8,&lt;svg xmlns=&quot;http://www.w3.org/2000/svg&quot; style=&quot;vertical-align: -0.339ex&quot; width=&quot;2.974ex&quot; height=&quot;1.339ex&quot; role=&quot;img&quot; focusable=&quot;false&quot; viewBox=&quot;0 -442 1314.6 592&quot;&gt;&#10;&lt;style&gt;&#10;  * {&#10;    fill: black;&#10;    background-color: transparent;&#10;  }&#10;&lt;/style&gt;&lt;g stroke=&quot;currentColor&quot; fill=&quot;currentColor&quot; stroke-width=&quot;0&quot; transform=&quot;scale(1,-1)&quot;&gt;&lt;g data-mml-node=&quot;math&quot;&gt;&lt;g data-mml-node=&quot;msub&quot;&gt;&lt;g data-mml-node=&quot;mi&quot;&gt;&lt;path data-c=&quot;1D45A&quot; d=&quot;M21 287Q22 293 24 303T36 341T56 388T88 425T132 442T175 435T205 417T221 395T229 376L231 369Q231 367 232 367L243 378Q303 442 384 442Q401 442 415 440T441 433T460 423T475 411T485 398T493 385T497 373T500 364T502 357L510 367Q573 442 659 442Q713 442 746 415T780 336Q780 285 742 178T704 50Q705 36 709 31T724 26Q752 26 776 56T815 138Q818 149 821 151T837 153Q857 153 857 145Q857 144 853 130Q845 101 831 73T785 17T716 -10Q669 -10 648 17T627 73Q627 92 663 193T700 345Q700 404 656 404H651Q565 404 506 303L499 291L466 157Q433 26 428 16Q415 -11 385 -11Q372 -11 364 -4T353 8T350 18Q350 29 384 161L420 307Q423 322 423 345Q423 404 379 404H374Q288 404 229 303L222 291L189 157Q156 26 151 16Q138 -11 108 -11Q95 -11 87 -5T76 7T74 17Q74 30 112 181Q151 335 151 342Q154 357 154 369Q154 405 129 405Q107 405 92 377T69 316T57 280Q55 278 41 278H27Q21 284 21 287Z&quot; /&gt;&lt;/g&gt;&lt;g data-mml-node=&quot;mn&quot; transform=&quot;translate(911,-150) scale(0.707)&quot;&gt;&lt;path data-c=&quot;31&quot; d=&quot;M213 578L200 573Q186 568 160 563T102 556H83V602H102Q149 604 189 617T245 641T273 663Q275 666 285 666Q294 666 302 660V361L303 61Q310 54 315 52T339 48T401 46H427V0H416Q395 3 257 3Q121 3 100 0H88V46H114Q136 46 152 46T177 47T193 50T201 52T207 57T213 61V578Z&quot; /&gt;&lt;/g&gt;&lt;/g&gt;&lt;/g&gt;&lt;/g&gt;&lt;/svg&gt;" />
  <image x="143.69733181176886pt" y="35.92389381978879pt" height="1.545ex" width="1.717ex" object-fit="contain" href="data:image/svg+xml;utf8,&lt;svg xmlns=&quot;http://www.w3.org/2000/svg&quot; style=&quot;vertical-align: 0&quot; width=&quot;1.717ex&quot; height=&quot;1.545ex&quot; role=&quot;img&quot; focusable=&quot;false&quot; viewBox=&quot;0 -683 759 683&quot;&gt;&#10;&lt;style&gt;&#10;  * {&#10;    fill: black;&#10;    background-color: transparent;&#10;  }&#10;&lt;/style&gt;&lt;g stroke=&quot;currentColor&quot; fill=&quot;currentColor&quot; stroke-width=&quot;0&quot; transform=&quot;scale(1,-1)&quot;&gt;&lt;g data-mml-node=&quot;math&quot;&gt;&lt;g data-mml-node=&quot;mi&quot;&gt;&lt;path data-c=&quot;1D435&quot; d=&quot;M231 637Q204 637 199 638T194 649Q194 676 205 682Q206 683 335 683Q594 683 608 681Q671 671 713 636T756 544Q756 480 698 429T565 360L555 357Q619 348 660 311T702 219Q702 146 630 78T453 1Q446 0 242 0Q42 0 39 2Q35 5 35 10Q35 17 37 24Q42 43 47 45Q51 46 62 46H68Q95 46 128 49Q142 52 147 61Q150 65 219 339T288 628Q288 635 231 637ZM649 544Q649 574 634 600T585 634Q578 636 493 637Q473 637 451 637T416 636H403Q388 635 384 626Q382 622 352 506Q352 503 351 500L320 374H401Q482 374 494 376Q554 386 601 434T649 544ZM595 229Q595 273 572 302T512 336Q506 337 429 337Q311 337 310 336Q310 334 293 263T258 122L240 52Q240 48 252 48T333 46Q422 46 429 47Q491 54 543 105T595 229Z&quot; /&gt;&lt;/g&gt;&lt;/g&gt;&lt;/g&gt;&lt;/svg&gt;" />
  <image x="236.39273204000352pt" y="127.78530974682047pt" height="1ex" width="1.199ex" object-fit="contain" href="data:image/svg+xml;utf8,&lt;svg xmlns=&quot;http://www.w3.org/2000/svg&quot; style=&quot;vertical-align: 0&quot; width=&quot;1.199ex&quot; height=&quot;1ex&quot; role=&quot;img&quot; focusable=&quot;false&quot; viewBox=&quot;0 -442 530 442&quot;&gt;&#10;&lt;style&gt;&#10;  * {&#10;    fill: black;&#10;    background-color: transparent;&#10;  }&#10;&lt;/style&gt;&lt;g stroke=&quot;currentColor&quot; fill=&quot;currentColor&quot; stroke-width=&quot;0&quot; transform=&quot;scale(1,-1)&quot;&gt;&lt;g data-mml-node=&quot;math&quot;&gt;&lt;g data-mml-node=&quot;mi&quot;&gt;&lt;path data-c=&quot;1D708&quot; d=&quot;M74 431Q75 431 146 436T219 442Q231 442 231 434Q231 428 185 241L137 51H140L150 55Q161 59 177 67T214 86T261 119T312 165Q410 264 445 394Q458 442 496 442Q509 442 519 434T530 411Q530 390 516 352T469 262T388 162T267 70T106 5Q81 -2 71 -2Q66 -2 59 -1T51 1Q45 5 45 11Q45 13 88 188L132 364Q133 377 125 380T86 385H65Q59 391 59 393T61 412Q65 431 74 431Z&quot; /&gt;&lt;/g&gt;&lt;/g&gt;&lt;/g&gt;&lt;/svg&gt;" />
  <image x="300.0pt" y="187.0pt" height="1.545ex" width="1.699ex" object-fit="contain" href="data:image/svg+xml;utf8,&lt;svg xmlns=&quot;http://www.w3.org/2000/svg&quot; style=&quot;vertical-align: 0&quot; width=&quot;1.699ex&quot; height=&quot;1.545ex&quot; role=&quot;img&quot; focusable=&quot;false&quot; viewBox=&quot;0 -683 751 683&quot;&gt;&#10;&lt;style&gt;&#10;  * {&#10;    fill: black;&#10;    background-color: transparent;&#10;  }&#10;&lt;/style&gt;&lt;g stroke=&quot;currentColor&quot; fill=&quot;currentColor&quot; stroke-width=&quot;0&quot; transform=&quot;scale(1,-1)&quot;&gt;&lt;g data-mml-node=&quot;math&quot;&gt;&lt;g data-mml-node=&quot;mi&quot;&gt;&lt;path data-c=&quot;1D443&quot; d=&quot;M287 628Q287 635 230 637Q206 637 199 638T192 648Q192 649 194 659Q200 679 203 681T397 683Q587 682 600 680Q664 669 707 631T751 530Q751 453 685 389Q616 321 507 303Q500 302 402 301H307L277 182Q247 66 247 59Q247 55 248 54T255 50T272 48T305 46H336Q342 37 342 35Q342 19 335 5Q330 0 319 0Q316 0 282 1T182 2Q120 2 87 2T51 1Q33 1 33 11Q33 13 36 25Q40 41 44 43T67 46Q94 46 127 49Q141 52 146 61Q149 65 218 339T287 628ZM645 554Q645 567 643 575T634 597T609 619T560 635Q553 636 480 637Q463 637 445 637T416 636T404 636Q391 635 386 627Q384 621 367 550T332 412T314 344Q314 342 395 342H407H430Q542 342 590 392Q617 419 631 471T645 554Z&quot; /&gt;&lt;/g&gt;&lt;/g&gt;&lt;/g&gt;&lt;/svg&gt;" />
  </svg>