<?xml version="1.0" encoding="UTF-8" standalone="no"?>
<!-- Created with Inkscape (http://www.inkscape.org/) -->

<svg
   sodipodi:docname="ecef-to-eci.svg"
   inkscape:version="1.1 (c4e8f9e, 2021-05-24)"
   id="earth-centered-earth-fixed"
   viewBox="0 0 1015 1060"
   version="1.1"
   width="1015"
   height="1060"
   xmlns:inkscape="http://www.inkscape.org/namespaces/inkscape"
   xmlns:sodipodi="http://sodipodi.sourceforge.net/DTD/sodipodi-0.dtd"
   xmlns:xlink="http://www.w3.org/1999/xlink"
   xmlns="http://www.w3.org/2000/svg"
   xmlns:svg="http://www.w3.org/2000/svg"
   xmlns:rdf="http://www.w3.org/1999/02/22-rdf-syntax-ns#"
   xmlns:cc="http://creativecommons.org/ns#"
   xmlns:dc="http://purl.org/dc/elements/1.1/">
  <sodipodi:namedview
     id="namedview182"
     pagecolor="#ffffff"
     bordercolor="#666666"
     borderopacity="1.0"
     inkscape:pageshadow="2"
     inkscape:pageopacity="0.0"
     inkscape:pagecheckerboard="0"
     showgrid="false"
     fit-margin-top="10"
     fit-margin-left="10"
     fit-margin-right="10"
     fit-margin-bottom="50"
     lock-margins="true"
     inkscape:zoom="0.59675453"
     inkscape:cx="758.26822"
     inkscape:cy="516.96298"
     inkscape:window-width="1920"
     inkscape:window-height="1027"
     inkscape:window-x="0"
     inkscape:window-y="25"
     inkscape:window-maximized="0"
     inkscape:current-layer="earth-centered-earth-fixed" />
  <metadata
     id="metadata4313">
    <rdf:RDF>
      <cc:Work
         rdf:about="">
        <dc:format>image/svg+xml</dc:format>
        <dc:type
           rdf:resource="http://purl.org/dc/dcmitype/StillImage" />
        <dc:title>Earth-Centered Earth-Fixed Coordinate System</dc:title>
      </cc:Work>
    </rdf:RDF>
  </metadata>
  <title
     id="title3898">Earth-Centered Earth-Fixed Coordinate System</title>
  <desc
     id="desc3900">
     Earth-Centered Earth-Fixed Coordinate System
     depicted with perspective projection

     viewer distance from center: 10r
     line distancd: 10째
     line width: 2째
     axial tilt: 37.5째
     rotation: 7.5째
     base color: #22326b

     plotted with several adapted cubic bezier-curves
     The plotcurves were calculated by some fancy python code. The bezier-curve
     controlpoints are placed on tangents of the function-curve. They are
     furthermore positioned in a way to minimize the average quadratic distance
     between the bezier-curve and the function. This gives an accuracy, so that
     the deviation is in no point greater than 0.00001.

     about: http://commons.wikimedia.org/wiki/Image:Sphere_wireframe_10deg_10r.svg
     source: http://commons.wikimedia.org/
     rights: GNU Free Documentation license,
             Creative Commons Attribution ShareAlike license
  </desc>
  <defs
     id="defs3902">
    <inkscape:perspective
       sodipodi:type="inkscape:persp3d"
       inkscape:vp_x="0 : -39.636369 : 1"
       inkscape:vp_y="0 : 0.90909091 : 0"
       inkscape:vp_z="0.61538461 : -39.636369 : 1"
       inkscape:persp3d-origin="0.30769231 : -39.757579 : 1"
       id="perspective4315" />
    <radialGradient
       cx="-0.1"
       cy="0.1"
       r="1.2"
       fx="-0.30000001"
       fy="0.60000002"
       id="LightSpot_front"
       gradientUnits="userSpaceOnUse">
      <stop
         id="stop3905"
         style="stop-color:#b6bbce;stop-opacity:1"
         offset="0" />
      <stop
         id="stop3907"
         style="stop-color:#8a94ba;stop-opacity:1"
         offset="0.1" />
      <stop
         id="stop3909"
         style="stop-color:#5f6c99;stop-opacity:1"
         offset="0.30000001" />
      <stop
         id="stop3911"
         style="stop-color:#22326b;stop-opacity:1"
         offset="1" />
    </radialGradient>
    <radialGradient
       cx="0.1"
       cy="-0.1"
       r="1.2"
       fx="0.30000001"
       fy="-0.60000002"
       id="LightSpot_back"
       gradientUnits="userSpaceOnUse">
      <stop
         id="stop3914"
         style="stop-color:#b6bbce;stop-opacity:1"
         offset="0" />
      <stop
         id="stop3916"
         style="stop-color:#8a94ba;stop-opacity:1"
         offset="0.1" />
      <stop
         id="stop3918"
         style="stop-color:#5f6c99;stop-opacity:1"
         offset="0.30000001" />
      <stop
         id="stop3920"
         style="stop-color:#22326b;stop-opacity:1"
         offset="1" />
    </radialGradient>
    <inkscape:perspective
       id="perspective4335"
       inkscape:persp3d-origin="0.00038461539 : -39.999699 : 1"
       inkscape:vp_z="0.00076923077 : -39.999549 : 1"
       inkscape:vp_y="0 : 0.90909091 : 0"
       inkscape:vp_x="0 : -39.999549 : 1"
       sodipodi:type="inkscape:persp3d" />
    <inkscape:perspective
       id="perspective4389"
       inkscape:persp3d-origin="0.00038461539 : -39.999699 : 1"
       inkscape:vp_z="0.00076923077 : -39.999549 : 1"
       inkscape:vp_y="0 : 0.90909091 : 0"
       inkscape:vp_x="0 : -39.999549 : 1"
       sodipodi:type="inkscape:persp3d" />
    <inkscape:perspective
       id="perspective4451"
       inkscape:persp3d-origin="0.00038461539 : -39.999699 : 1"
       inkscape:vp_z="0.00076923077 : -39.999549 : 1"
       inkscape:vp_y="0 : 0.90909091 : 0"
       inkscape:vp_x="0 : -39.999549 : 1"
       sodipodi:type="inkscape:persp3d" />
    <radialGradient
       inkscape:collect="always"
       xlink:href="#LightSpot_back"
       id="radialGradient4465"
       gradientUnits="userSpaceOnUse"
       cx="0.1"
       cy="-0.1"
       fx="0.30000001"
       fy="-0.60000002"
       r="1.2" />
    <radialGradient
       inkscape:collect="always"
       xlink:href="#LightSpot_back"
       id="radialGradient4467"
       gradientUnits="userSpaceOnUse"
       cx="0.1"
       cy="-0.1"
       fx="0.30000001"
       fy="-0.60000002"
       r="1.2" />
    <radialGradient
       inkscape:collect="always"
       xlink:href="#LightSpot_back"
       id="radialGradient4469"
       gradientUnits="userSpaceOnUse"
       cx="0.1"
       cy="-0.1"
       fx="0.30000001"
       fy="-0.60000002"
       r="1.2" />
    <radialGradient
       inkscape:collect="always"
       xlink:href="#LightSpot_back"
       id="radialGradient4471"
       gradientUnits="userSpaceOnUse"
       cx="0.1"
       cy="-0.1"
       fx="0.30000001"
       fy="-0.60000002"
       r="1.2" />
    <radialGradient
       inkscape:collect="always"
       xlink:href="#LightSpot_back"
       id="radialGradient4473"
       gradientUnits="userSpaceOnUse"
       cx="0.1"
       cy="-0.1"
       fx="0.30000001"
       fy="-0.60000002"
       r="1.2" />
    <radialGradient
       inkscape:collect="always"
       xlink:href="#LightSpot_back"
       id="radialGradient4475"
       gradientUnits="userSpaceOnUse"
       cx="0.1"
       cy="-0.1"
       fx="0.30000001"
       fy="-0.60000002"
       r="1.2" />
    <radialGradient
       inkscape:collect="always"
       xlink:href="#LightSpot_back"
       id="radialGradient4477"
       gradientUnits="userSpaceOnUse"
       cx="0.1"
       cy="-0.1"
       fx="0.30000001"
       fy="-0.60000002"
       r="1.2" />
    <radialGradient
       inkscape:collect="always"
       xlink:href="#LightSpot_back"
       id="radialGradient4479"
       gradientUnits="userSpaceOnUse"
       cx="0.1"
       cy="-0.1"
       fx="0.30000001"
       fy="-0.60000002"
       r="1.2" />
    <radialGradient
       inkscape:collect="always"
       xlink:href="#LightSpot_back"
       id="radialGradient4481"
       gradientUnits="userSpaceOnUse"
       cx="0.1"
       cy="-0.1"
       fx="0.30000001"
       fy="-0.60000002"
       r="1.2" />
    <radialGradient
       inkscape:collect="always"
       xlink:href="#LightSpot_back"
       id="radialGradient4483"
       gradientUnits="userSpaceOnUse"
       cx="0.1"
       cy="-0.1"
       fx="0.30000001"
       fy="-0.60000002"
       r="1.2" />
    <radialGradient
       inkscape:collect="always"
       xlink:href="#LightSpot_back"
       id="radialGradient4485"
       gradientUnits="userSpaceOnUse"
       cx="0.1"
       cy="-0.1"
       fx="0.30000001"
       fy="-0.60000002"
       r="1.2" />
    <radialGradient
       inkscape:collect="always"
       xlink:href="#LightSpot_back"
       id="radialGradient4487"
       gradientUnits="userSpaceOnUse"
       cx="0.1"
       cy="-0.1"
       fx="0.30000001"
       fy="-0.60000002"
       r="1.2" />
    <radialGradient
       inkscape:collect="always"
       xlink:href="#LightSpot_back"
       id="radialGradient4489"
       gradientUnits="userSpaceOnUse"
       cx="0.1"
       cy="-0.1"
       fx="0.30000001"
       fy="-0.60000002"
       r="1.2" />
    <radialGradient
       inkscape:collect="always"
       xlink:href="#LightSpot_back"
       id="radialGradient4491"
       gradientUnits="userSpaceOnUse"
       cx="0.1"
       cy="-0.1"
       fx="0.30000001"
       fy="-0.60000002"
       r="1.2" />
    <radialGradient
       inkscape:collect="always"
       xlink:href="#LightSpot_back"
       id="radialGradient4493"
       gradientUnits="userSpaceOnUse"
       cx="0.1"
       cy="-0.1"
       fx="0.30000001"
       fy="-0.60000002"
       r="1.2" />
    <radialGradient
       inkscape:collect="always"
       xlink:href="#LightSpot_back"
       id="radialGradient4495"
       gradientUnits="userSpaceOnUse"
       cx="0.1"
       cy="-0.1"
       fx="0.30000001"
       fy="-0.60000002"
       r="1.2" />
    <radialGradient
       inkscape:collect="always"
       xlink:href="#LightSpot_back"
       id="radialGradient4497"
       gradientUnits="userSpaceOnUse"
       cx="0.1"
       cy="-0.1"
       fx="0.30000001"
       fy="-0.60000002"
       r="1.2" />
    <radialGradient
       inkscape:collect="always"
       xlink:href="#LightSpot_back"
       id="radialGradient4499"
       gradientUnits="userSpaceOnUse"
       cx="0.1"
       cy="-0.1"
       fx="0.30000001"
       fy="-0.60000002"
       r="1.2" />
    <radialGradient
       inkscape:collect="always"
       xlink:href="#LightSpot_back"
       id="radialGradient4501"
       gradientUnits="userSpaceOnUse"
       cx="0.1"
       cy="-0.1"
       fx="0.30000001"
       fy="-0.60000002"
       r="1.2" />
    <radialGradient
       inkscape:collect="always"
       xlink:href="#LightSpot_back"
       id="radialGradient4503"
       gradientUnits="userSpaceOnUse"
       cx="0.1"
       cy="-0.1"
       fx="0.30000001"
       fy="-0.60000002"
       r="1.2" />
    <radialGradient
       inkscape:collect="always"
       xlink:href="#LightSpot_back"
       id="radialGradient4505"
       gradientUnits="userSpaceOnUse"
       cx="0.1"
       cy="-0.1"
       fx="0.30000001"
       fy="-0.60000002"
       r="1.2" />
    <radialGradient
       inkscape:collect="always"
       xlink:href="#LightSpot_back"
       id="radialGradient4507"
       gradientUnits="userSpaceOnUse"
       cx="0.1"
       cy="-0.1"
       fx="0.30000001"
       fy="-0.60000002"
       r="1.2" />
    <radialGradient
       inkscape:collect="always"
       xlink:href="#LightSpot_back"
       id="radialGradient4509"
       gradientUnits="userSpaceOnUse"
       cx="0.1"
       cy="-0.1"
       fx="0.30000001"
       fy="-0.60000002"
       r="1.2" />
    <radialGradient
       inkscape:collect="always"
       xlink:href="#LightSpot_back"
       id="radialGradient4511"
       gradientUnits="userSpaceOnUse"
       cx="0.1"
       cy="-0.1"
       fx="0.30000001"
       fy="-0.60000002"
       r="1.2" />
    <radialGradient
       inkscape:collect="always"
       xlink:href="#LightSpot_back"
       id="radialGradient4513"
       gradientUnits="userSpaceOnUse"
       cx="0.1"
       cy="-0.1"
       fx="0.30000001"
       fy="-0.60000002"
       r="1.2" />
    <radialGradient
       inkscape:collect="always"
       xlink:href="#LightSpot_back"
       id="radialGradient4515"
       gradientUnits="userSpaceOnUse"
       cx="0.1"
       cy="-0.1"
       fx="0.30000001"
       fy="-0.60000002"
       r="1.2" />
    <radialGradient
       inkscape:collect="always"
       xlink:href="#LightSpot_back"
       id="radialGradient4517"
       gradientUnits="userSpaceOnUse"
       cx="0.1"
       cy="-0.1"
       fx="0.30000001"
       fy="-0.60000002"
       r="1.2" />
    <radialGradient
       inkscape:collect="always"
       xlink:href="#LightSpot_back"
       id="radialGradient4519"
       gradientUnits="userSpaceOnUse"
       cx="0.1"
       cy="-0.1"
       fx="0.30000001"
       fy="-0.60000002"
       r="1.2" />
    <radialGradient
       inkscape:collect="always"
       xlink:href="#LightSpot_back"
       id="radialGradient4521"
       gradientUnits="userSpaceOnUse"
       cx="0.1"
       cy="-0.1"
       fx="0.30000001"
       fy="-0.60000002"
       r="1.2" />
    <radialGradient
       inkscape:collect="always"
       xlink:href="#LightSpot_back"
       id="radialGradient4523"
       gradientUnits="userSpaceOnUse"
       cx="0.1"
       cy="-0.1"
       fx="0.30000001"
       fy="-0.60000002"
       r="1.2" />
    <radialGradient
       inkscape:collect="always"
       xlink:href="#LightSpot_back"
       id="radialGradient4525"
       gradientUnits="userSpaceOnUse"
       cx="0.1"
       cy="-0.1"
       fx="0.30000001"
       fy="-0.60000002"
       r="1.2" />
    <radialGradient
       inkscape:collect="always"
       xlink:href="#LightSpot_back"
       id="radialGradient4527"
       gradientUnits="userSpaceOnUse"
       cx="0.1"
       cy="-0.1"
       fx="0.30000001"
       fy="-0.60000002"
       r="1.2" />
    <radialGradient
       inkscape:collect="always"
       xlink:href="#LightSpot_back"
       id="radialGradient4529"
       gradientUnits="userSpaceOnUse"
       cx="0.1"
       cy="-0.1"
       fx="0.30000001"
       fy="-0.60000002"
       r="1.2" />
    <radialGradient
       inkscape:collect="always"
       xlink:href="#LightSpot_front"
       id="radialGradient4531"
       gradientUnits="userSpaceOnUse"
       cx="-0.1"
       cy="0.1"
       fx="-0.30000001"
       fy="0.60000002"
       r="1.2" />
    <radialGradient
       inkscape:collect="always"
       xlink:href="#LightSpot_front"
       id="radialGradient4533"
       gradientUnits="userSpaceOnUse"
       cx="-0.1"
       cy="0.1"
       fx="-0.30000001"
       fy="0.60000002"
       r="1.2" />
    <radialGradient
       inkscape:collect="always"
       xlink:href="#LightSpot_front"
       id="radialGradient4535"
       gradientUnits="userSpaceOnUse"
       cx="-0.1"
       cy="0.1"
       fx="-0.30000001"
       fy="0.60000002"
       r="1.2" />
    <radialGradient
       inkscape:collect="always"
       xlink:href="#LightSpot_front"
       id="radialGradient4537"
       gradientUnits="userSpaceOnUse"
       cx="-0.1"
       cy="0.1"
       fx="-0.30000001"
       fy="0.60000002"
       r="1.2" />
    <radialGradient
       inkscape:collect="always"
       xlink:href="#LightSpot_front"
       id="radialGradient4539"
       gradientUnits="userSpaceOnUse"
       cx="-0.1"
       cy="0.1"
       fx="-0.30000001"
       fy="0.60000002"
       r="1.2" />
    <radialGradient
       inkscape:collect="always"
       xlink:href="#LightSpot_front"
       id="radialGradient4541"
       gradientUnits="userSpaceOnUse"
       cx="-0.1"
       cy="0.1"
       fx="-0.30000001"
       fy="0.60000002"
       r="1.2" />
    <radialGradient
       inkscape:collect="always"
       xlink:href="#LightSpot_front"
       id="radialGradient4543"
       gradientUnits="userSpaceOnUse"
       cx="-0.1"
       cy="0.1"
       fx="-0.30000001"
       fy="0.60000002"
       r="1.2" />
    <radialGradient
       inkscape:collect="always"
       xlink:href="#LightSpot_front"
       id="radialGradient4545"
       gradientUnits="userSpaceOnUse"
       cx="-0.1"
       cy="0.1"
       fx="-0.30000001"
       fy="0.60000002"
       r="1.2" />
    <radialGradient
       inkscape:collect="always"
       xlink:href="#LightSpot_front"
       id="radialGradient4547"
       gradientUnits="userSpaceOnUse"
       cx="-0.1"
       cy="0.1"
       fx="-0.30000001"
       fy="0.60000002"
       r="1.2" />
    <radialGradient
       inkscape:collect="always"
       xlink:href="#LightSpot_front"
       id="radialGradient4549"
       gradientUnits="userSpaceOnUse"
       cx="-0.1"
       cy="0.1"
       fx="-0.30000001"
       fy="0.60000002"
       r="1.2" />
    <radialGradient
       inkscape:collect="always"
       xlink:href="#LightSpot_front"
       id="radialGradient4551"
       gradientUnits="userSpaceOnUse"
       cx="-0.1"
       cy="0.1"
       fx="-0.30000001"
       fy="0.60000002"
       r="1.2" />
    <radialGradient
       inkscape:collect="always"
       xlink:href="#LightSpot_front"
       id="radialGradient4553"
       gradientUnits="userSpaceOnUse"
       cx="-0.1"
       cy="0.1"
       fx="-0.30000001"
       fy="0.60000002"
       r="1.2" />
    <radialGradient
       inkscape:collect="always"
       xlink:href="#LightSpot_front"
       id="radialGradient4555"
       gradientUnits="userSpaceOnUse"
       cx="-0.1"
       cy="0.1"
       fx="-0.30000001"
       fy="0.60000002"
       r="1.2" />
    <radialGradient
       inkscape:collect="always"
       xlink:href="#LightSpot_front"
       id="radialGradient4557"
       gradientUnits="userSpaceOnUse"
       cx="-0.1"
       cy="0.1"
       fx="-0.30000001"
       fy="0.60000002"
       r="1.2" />
    <radialGradient
       inkscape:collect="always"
       xlink:href="#LightSpot_front"
       id="radialGradient4559"
       gradientUnits="userSpaceOnUse"
       cx="-0.1"
       cy="0.1"
       fx="-0.30000001"
       fy="0.60000002"
       r="1.2" />
    <radialGradient
       inkscape:collect="always"
       xlink:href="#LightSpot_front"
       id="radialGradient4561"
       gradientUnits="userSpaceOnUse"
       cx="-0.1"
       cy="0.1"
       fx="-0.30000001"
       fy="0.60000002"
       r="1.2" />
    <radialGradient
       inkscape:collect="always"
       xlink:href="#LightSpot_front"
       id="radialGradient4563"
       gradientUnits="userSpaceOnUse"
       cx="-0.1"
       cy="0.1"
       fx="-0.30000001"
       fy="0.60000002"
       r="1.2" />
    <radialGradient
       inkscape:collect="always"
       xlink:href="#LightSpot_front"
       id="radialGradient4565"
       gradientUnits="userSpaceOnUse"
       cx="-0.1"
       cy="0.1"
       fx="-0.30000001"
       fy="0.60000002"
       r="1.2" />
    <radialGradient
       inkscape:collect="always"
       xlink:href="#LightSpot_front"
       id="radialGradient4567"
       gradientUnits="userSpaceOnUse"
       cx="-0.1"
       cy="0.1"
       fx="-0.30000001"
       fy="0.60000002"
       r="1.2" />
    <radialGradient
       inkscape:collect="always"
       xlink:href="#LightSpot_front"
       id="radialGradient4569"
       gradientUnits="userSpaceOnUse"
       cx="-0.1"
       cy="0.1"
       fx="-0.30000001"
       fy="0.60000002"
       r="1.2" />
    <radialGradient
       inkscape:collect="always"
       xlink:href="#LightSpot_front"
       id="radialGradient4571"
       gradientUnits="userSpaceOnUse"
       cx="-0.1"
       cy="0.1"
       fx="-0.30000001"
       fy="0.60000002"
       r="1.2" />
    <radialGradient
       inkscape:collect="always"
       xlink:href="#LightSpot_front"
       id="radialGradient4573"
       gradientUnits="userSpaceOnUse"
       cx="-0.1"
       cy="0.1"
       fx="-0.30000001"
       fy="0.60000002"
       r="1.2" />
    <radialGradient
       inkscape:collect="always"
       xlink:href="#LightSpot_front"
       id="radialGradient4575"
       gradientUnits="userSpaceOnUse"
       cx="-0.1"
       cy="0.1"
       fx="-0.30000001"
       fy="0.60000002"
       r="1.2" />
    <radialGradient
       inkscape:collect="always"
       xlink:href="#LightSpot_front"
       id="radialGradient4577"
       gradientUnits="userSpaceOnUse"
       cx="-0.1"
       cy="0.1"
       fx="-0.30000001"
       fy="0.60000002"
       r="1.2" />
    <radialGradient
       inkscape:collect="always"
       xlink:href="#LightSpot_front"
       id="radialGradient4579"
       gradientUnits="userSpaceOnUse"
       cx="-0.1"
       cy="0.1"
       fx="-0.30000001"
       fy="0.60000002"
       r="1.2" />
    <radialGradient
       inkscape:collect="always"
       xlink:href="#LightSpot_front"
       id="radialGradient4581"
       gradientUnits="userSpaceOnUse"
       cx="-0.1"
       cy="0.1"
       fx="-0.30000001"
       fy="0.60000002"
       r="1.2" />
    <radialGradient
       inkscape:collect="always"
       xlink:href="#LightSpot_front"
       id="radialGradient4583"
       gradientUnits="userSpaceOnUse"
       cx="-0.1"
       cy="0.1"
       fx="-0.30000001"
       fy="0.60000002"
       r="1.2" />
    <radialGradient
       inkscape:collect="always"
       xlink:href="#LightSpot_front"
       id="radialGradient4585"
       gradientUnits="userSpaceOnUse"
       cx="-0.1"
       cy="0.1"
       fx="-0.30000001"
       fy="0.60000002"
       r="1.2" />
    <radialGradient
       inkscape:collect="always"
       xlink:href="#LightSpot_front"
       id="radialGradient4587"
       gradientUnits="userSpaceOnUse"
       cx="-0.1"
       cy="0.1"
       fx="-0.30000001"
       fy="0.60000002"
       r="1.2" />
    <radialGradient
       inkscape:collect="always"
       xlink:href="#LightSpot_front"
       id="radialGradient4589"
       gradientUnits="userSpaceOnUse"
       cx="-0.1"
       cy="0.1"
       fx="-0.30000001"
       fy="0.60000002"
       r="1.2" />
    <radialGradient
       inkscape:collect="always"
       xlink:href="#LightSpot_front"
       id="radialGradient4591"
       gradientUnits="userSpaceOnUse"
       cx="-0.1"
       cy="0.1"
       fx="-0.30000001"
       fy="0.60000002"
       r="1.2" />
    <radialGradient
       inkscape:collect="always"
       xlink:href="#LightSpot_front"
       id="radialGradient4593"
       gradientUnits="userSpaceOnUse"
       cx="-0.1"
       cy="0.1"
       fx="-0.30000001"
       fy="0.60000002"
       r="1.2" />
    <inkscape:perspective
       id="perspective5115"
       inkscape:persp3d-origin="0.00038461539 : -39.999699 : 1"
       inkscape:vp_z="0.00076923077 : -39.999549 : 1"
       inkscape:vp_y="0 : 0.90909091 : 0"
       inkscape:vp_x="0 : -39.999549 : 1"
       sodipodi:type="inkscape:persp3d" />
  </defs>
  <g
     id="sphere"
     style="fill:#334070;stroke:none"
     transform="matrix(400,0,0,-400,554.07419,607.52583)">
    <g
       id="back"
       style="opacity:0.2;fill:url(#radialGradient4529)">
      <path
         d="m 0.00668,-0.63243 c 0.05564,-0.0016 0.10571,-0.02302 0.13114,-0.05607 0.02467,-0.03206 0.02254,-0.07039 -0.00562,-0.10115 -0.02938,-0.03208 -0.08257,-0.051 -0.13888,-0.04938 -0.05621,0.00162 -0.10669,0.02345 -0.13186,0.05701 -0.02415,0.03219 -0.02147,0.07046 0.00708,0.10101 0.02955,0.03161 0.08233,0.05019 0.13814,0.04858 z m 6.8e-4,0.0126 c -0.06162,0.00177 -0.11989,-0.01873 -0.15252,-0.05363 -0.03152,-0.0337 -0.0345,-0.07592 -0.00789,-0.11145 0.02777,-0.03709 0.08353,-0.06123 0.14564,-0.06302 0.06226,-0.0018 0.12106,0.01913 0.15349,0.05461 0.03103,0.03396 0.03334,0.07625 0.0061,0.11162 -0.02809,0.03647 -0.08338,0.06011 -0.14482,0.06187 z"
         id="parallel_-80.0_back"
         style="fill:url(#radialGradient4465)" />
      <path
         d="M 0.01337,-0.50017 C 0.11007,-0.50291 0.19947,-0.53514 0.2557,-0.58751 0.31059,-0.63863 0.32798,-0.70346 0.30309,-0.76404 0.27812,-0.82482 0.21323,-0.87487 0.12648,-0.90025 0.03666,-0.92652 -0.06648,-0.92337 -0.1523,-0.89173 c -0.08224,0.03031 -0.13973,0.08352 -0.15673,0.14499 -0.01703,0.06161 0.0084,0.12506 0.06928,0.17286 0.06271,0.04924 0.15615,0.07646 0.25312,0.07371 z m 6.4e-4,0.01393 c -0.10175,0.00287 -0.1998,-0.02567 -0.26562,-0.07732 -0.06389,-0.05013 -0.09059,-0.11668 -0.07273,-0.1813 0.01781,-0.06447 0.0781,-0.12028 0.16436,-0.1521 0.09006,-0.03321 0.19832,-0.03655 0.29262,-0.00901 0.09106,0.0266 0.15918,0.07909 0.18543,0.14283 0.02618,0.06358 0.00792,0.13165 -0.04974,0.18531 -0.05902,0.05492 -0.15284,0.08872 -0.25432,0.09159 z"
         id="parallel_-70.0_back"
         style="fill:url(#radialGradient4467)" />
      <path
         d="M 0.01957,-0.35627 C 0.16289,-0.36026 0.29543,-0.40771 0.37881,-0.48486 0.45983,-0.55981 0.48582,-0.65482 0.44968,-0.74377 0.41322,-0.83351 0.31738,-0.9076 0.18888,-0.94531 0.05581,-0.98436 -0.09724,-0.98 -0.22474,-0.93354 c -0.12279,0.04475 -0.20854,0.1237 -0.23346,0.21489 -0.0247,0.09039 0.01292,0.18338 0.10263,0.25354 0.09288,0.07265 0.23137,0.11283 0.37514,0.10884 z m 5.9e-4,0.01489 c -0.14826,0.00411 -0.29107,-0.0373 -0.38685,-0.11216 -0.09246,-0.07226 -0.13127,-0.16803 -0.10588,-0.26112 0.02565,-0.09404 0.11409,-0.17546 0.24077,-0.2216 0.13151,-0.0479 0.28939,-0.05239 0.42664,-0.01213 0.13261,0.03891 0.23148,0.11535 0.26899,0.20792 0.03713,0.09162 0.01029,0.18944 -0.07321,0.26661 -0.086,0.07949 -0.22268,0.12837 -0.37046,0.13248 z"
         id="parallel_-60.0_back"
         style="fill:url(#radialGradient4469)" />
      <path
         d="m 0.02516,-0.20429 c 0.18607,-0.00508 0.35822,-0.06608 0.4667,-0.16533 0.10476,-0.09585 0.13911,-0.2173 0.09378,-0.33139 -0.0464,-0.11678 -0.17131,-0.21341 -0.33945,-0.26253 -0.17313,-0.05056 -0.37242,-0.04501 -0.53838,0.01501 -0.16053,0.05804 -0.27227,0.16069 -0.30392,0.27908 -0.03098,0.11593 0.01808,0.23495 0.134,0.32486 0.12066,0.09359 0.30052,0.14539 0.48727,0.1403 z m 5.2e-4,0.0155 c -0.19079,0.0052 -0.37455,-0.04767 -0.49783,-0.1432 -0.11837,-0.09172 -0.16852,-0.21313 -0.13697,-0.33141 0.03225,-0.12095 0.14649,-0.22583 0.31063,-0.28512 0.16959,-0.06125 0.37323,-0.0669 0.55013,-0.01526 0.17188,0.05018 0.29952,0.14891 0.34683,0.26821 0.04617,0.11641 0.01103,0.24029 -0.09597,0.33807 -0.11085,0.10129 -0.28672,0.16354 -0.47682,0.16871 z"
         id="parallel_-50.0_back"
         style="fill:url(#radialGradient4471)" />
      <path
         d="m -0.43619,-0.89985 c -0.16353,0.07926 -0.26837,0.1994 -0.28909,0.33116 -0.02045,0.13006 0.04289,0.25985 0.17504,0.35855 0.13845,0.1034 0.33917,0.1628 0.55025,0.16279 0.21108,0 0.4118,-0.0594 0.55024,-0.1628 0.13215,-0.0987 0.19548,-0.22849 0.17503,-0.35855 -0.02073,-0.13176 -0.12557,-0.25189 -0.28909,-0.33115 0.01122,0.00543 0.02233,0.01108 0.03334,0.01693 0.15696,0.08347 0.25417,0.20507 0.26893,0.33631 0.01462,0.12993 -0.05283,0.25816 -0.1869,0.35523 -0.14044,0.10168 -0.34103,0.15981 -0.55157,0.15981 -0.21054,0 -0.41113,-0.05813 -0.55156,-0.15982 -0.13407,-0.09707 -0.20151,-0.2253 -0.18689,-0.35523 0.01477,-0.13124 0.11198,-0.25283 0.26893,-0.3363 0.01101,-0.00585 0.02212,-0.0115 0.03334,-0.01693 z"
         id="parallel_-40.0_back"
         style="fill:url(#radialGradient4473)" />
      <path
         d="m -0.69389,-0.72008 c -0.13286,0.12803 -0.17324,0.28655 -0.11087,0.43501 0.06298,0.1499 0.22457,0.27489 0.44276,0.34234 0.22872,0.07071 0.49528,0.07071 0.724,0 0.21819,-0.06745 0.37978,-0.19244 0.44276,-0.34234 0.06237,-0.14846 0.02199,-0.30698 -0.11087,-0.43501 0.00653,0.00629 0.01298,0.01268 0.01934,0.01915 0.12748,0.12972 0.16278,0.28803 0.09712,0.43539 -0.0664,0.14904 -0.22974,0.27264 -0.44841,0.33923 -0.22899,0.06974 -0.49489,0.06974 -0.72388,0 -0.21867,-0.06659 -0.38201,-0.19019 -0.44841,-0.33923 -0.06566,-0.14736 -0.03036,-0.30567 0.09712,-0.43539 0.00636,-0.00647 0.01281,-0.01286 0.01934,-0.01915 z"
         id="parallel_-30.0_back"
         style="fill:url(#radialGradient4475)" />
      <path
         d="m -0.8537,-0.52077 c -0.08448,0.13848 -0.08146,0.29221 0.00841,0.42933 0.09161,0.13977 0.26627,0.25131 0.48654,0.31065 0.22918,0.06174 0.48832,0.06174 0.7175,0 0.22027,-0.05934 0.39493,-0.17088 0.48654,-0.31065 0.08987,-0.13712 0.09289,-0.29085 0.00841,-0.42933 0.00419,0.00688 0.0083,0.0138 0.01233,0.02078 0.08015,0.13882 0.07357,0.29171 -0.0184,0.42758 C 0.7538,0.06622 0.57831,0.17647 0.35814,0.23506 0.12915,0.296 -0.12915,0.296 -0.35814,0.23506 -0.57831,0.17647 -0.7538,0.06622 -0.84763,-0.07241 c -0.09197,-0.13587 -0.09855,-0.28876 -0.0184,-0.42758 0.00401,-0.00695 0.00812,-0.01388 0.01233,-0.02078 z"
         id="parallel_-20.0_back"
         style="fill:url(#radialGradient4477)" />
      <path
         d="m -0.95139,-0.30798 c -0.04458,0.13771 -0.01054,0.28079 0.09628,0.40458 0.11002,0.12749 0.29004,0.22619 0.50728,0.27806 0.22391,0.05346 0.47173,0.05346 0.69564,0 C 0.56506,0.32279 0.74509,0.2241 0.85511,0.0966 0.96193,-0.02718 0.99597,-0.17027 0.95139,-0.30798 0.95369,-0.30089 0.95595,-0.29363 0.95817,-0.28621 0.99915,-0.149 0.9625,-0.00721 0.8544,0.11515 0.743,0.24124 0.56288,0.3386 0.34632,0.38972 c -0.22308,0.05266 -0.46954,0.05267 -0.69263,0 C -0.56287,0.3386 -0.74299,0.24125 -0.8544,0.11515 -0.9625,-0.0072 -0.99915,-0.149 -0.95817,-0.28621 c 0.00213,-0.00713 0.00439,-0.0144 0.00678,-0.02177 z"
         id="parallel_-10.0_back"
         style="fill:url(#radialGradient4479)" />
      <path
         d="m -0.99611,-0.08817 c -0.01438,0.16245 0.07807,0.32171 0.2568,0.4423 0.19001,0.12821 0.46026,0.20108 0.74337,0.20038 0.28026,-7e-4 0.54713,-0.07344 0.73527,-0.20039 0.17872,-0.12059 0.27115,-0.27985 0.25678,-0.44229 6.3e-4,0.00722 0.00121,0.01459 0.00171,0.02211 C 1.00848,0.09506 0.91402,0.25222 0.7351,0.37094 0.54508,0.49703 0.27677,0.56852 -0.00405,0.56782 -0.28204,0.56714 -0.547,0.49577 -0.73514,0.37092 -0.91404,0.2522 -1.00848,0.09504 -0.99782,-0.06606 c 5e-4,-0.00752 0.00108,-0.01489 0.00171,-0.02211 z"
         id="parallel_0.0_back"
         style="fill:url(#radialGradient4481)" />
      <path
         d="m -0.99125,0.13197 c 0.01939,0.14568 0.1272,0.28205 0.30298,0.38321 C -0.50312,0.62174 -0.25649,0.68123 2e-5,0.68123 0.25655,0.68122 0.50317,0.62172 0.68832,0.51515 0.86408,0.41399 0.97186,0.27763 0.99125,0.13197 0.99027,0.13937 0.98922,0.14663 0.98811,0.15374 0.96576,0.29741 0.85692,0.43133 0.68189,0.53049 0.49762,0.63487 0.25362,0.69304 1e-5,0.69305 -0.25359,0.69305 -0.4976,0.63488 -0.68187,0.5305 -0.85691,0.43134 -0.96576,0.29742 -0.98811,0.15374 -0.98922,0.14663 -0.99027,0.13937 -0.99125,0.13197 Z"
         id="parallel_10.0_back"
         style="fill:url(#radialGradient4483)" />
      <path
         d="m -0.93832,0.34575 c 0.04538,0.12318 0.15934,0.23391 0.32377,0.3146 C -0.442,0.74501 -0.22453,0.79137 3e-5,0.79137 0.22461,0.79136 0.44209,0.74499 0.61463,0.66031 0.77902,0.57963 0.89294,0.46891 0.93832,0.34575 0.93581,0.35258 0.93317,0.35951 0.93041,0.36653 0.88285,0.48724 0.76872,0.59532 0.60579,0.67391 0.435,0.75631 0.22089,0.80134 -3e-5,0.80133 -0.22097,0.80133 -0.43508,0.75628 -0.60587,0.67388 -0.76876,0.59528 -0.88286,0.48722 -0.93041,0.36653 -0.93307,0.35977 -0.93571,0.35284 -0.93832,0.34575 Z"
         id="parallel_20.0_back"
         style="fill:url(#radialGradient4485)" />
      <path
         d="m -0.83733,0.54669 c 0.08508,0.13032 0.25746,0.23535 0.4782,0.29127 0.22903,0.05802 0.48963,0.05798 0.71862,-9e-5 C 0.58006,0.78192 0.75229,0.67694 0.83733,0.54669 0.83305,0.55325 0.82877,0.55964 0.82451,0.56584 0.73776,0.69225 0.56741,0.79359 0.351,0.84742 0.12683,0.90319 -0.12728,0.90316 -0.3514,0.84732 -0.56762,0.79346 -0.73782,0.69217 -0.82451,0.56584 -0.82877,0.55964 -0.83305,0.55325 -0.83733,0.54669 Z"
         id="parallel_30.0_back"
         style="fill:url(#radialGradient4487)" />
      <path
         d="m -0.68486,0.72868 c 0.09489,0.08918 0.24083,0.15715 0.41339,0.19251 0.17575,0.03602 0.36815,0.03595 0.54383,-1.8e-4 C 0.44454,0.8856 0.59013,0.8177 0.68486,0.72868 0.67877,0.7344 0.67261,0.74005 0.66638,0.74562 0.57147,0.83044 0.42902,0.8947 0.26193,0.92805 0.09208,0.96194 -0.0931,0.96188 -0.26287,0.92786 -0.42956,0.89446 -0.57165,0.83027 -0.66638,0.74562 -0.67261,0.74005 -0.67877,0.7344 -0.68486,0.72868 Z"
         id="parallel_40.0_back"
         style="fill:url(#radialGradient4489)" />
      <path
         d="M -0.46334,0.88618 C -0.33741,0.95202 -0.17136,0.9886 0.00108,0.98845 0.17275,0.9883 0.33794,0.95175 0.46334,0.88618 0.454,0.89107 0.44457,0.8958 0.43508,0.90039 0.31402,0.95889 0.15921,0.99104 -9.1e-4,0.99092 -0.16039,0.9908 -0.31448,0.95867 -0.43508,0.90039 -0.44458,0.8958 -0.454,0.89107 -0.46334,0.88618 Z"
         id="parallel_50.0_back"
         style="fill:url(#radialGradient4491)" />
      <path
         d="m -0.03882,-0.99925 c 0.01245,-4.8e-4 0.02886,0.18147 0.04327,0.48021 0.0155,0.32121 0.02616,0.725 0.0276,1.04481 C 0.03338,0.82046 0.02666,0.99972 0.01432,0.9999 0.02016,0.99981 0.02601,0.99968 0.03186,0.99949 0.04372,0.99911 0.04986,0.81594 0.04804,0.51617 0.04608,0.19492 0.0353,-0.20792 0.02013,-0.52679 0.00612,-0.8212 -0.00954,-1.00002 -0.02128,-0.99977 c -0.00584,1.2e-4 -0.01169,3e-4 -0.01754,5.2e-4 z"
         id="meridian_80.0_back"
         style="fill:url(#radialGradient4493)" />
      <path
         d="m -0.15988,-0.98714 c 0.04244,-0.00687 0.0958,0.07777 0.14973,0.2378 0.0624,0.18522 0.11993,0.45463 0.15787,0.73947 C 0.18541,0.27311 0.20016,0.54417 0.18827,0.73498 0.17814,0.89761 0.14941,0.98967 0.10752,0.9942 0.11339,0.99357 0.11929,0.99288 0.1252,0.99213 0.16738,0.98681 0.19583,0.89063 0.20497,0.72191 0.21555,0.52678 0.19935,0.25224 0.1605,-0.03193 0.1219,-0.31417 0.06464,-0.57894 0.0031,-0.75983 c -0.05249,-0.15427 -0.10416,-0.23592 -0.14538,-0.23 -0.00587,8.5e-4 -0.01174,0.00174 -0.0176,0.00269 z"
         id="path3939"
         style="fill:url(#radialGradient4495)" />
      <path
         d="m -0.28427,-0.95874 c 0.07421,-0.02201 0.16953,0.04974 0.26671,0.20095 0.10845,0.16874 0.20962,0.42145 0.27843,0.69555 C 0.32911,0.20959 0.35921,0.47733 0.34385,0.67565 0.32997,0.85478 0.28007,0.96309 0.20432,0.9789 0.21033,0.97765 0.21633,0.97634 0.22231,0.97498 0.29634,0.9581 0.3451,0.85128 0.35893,0.67533 0.37461,0.47591 0.34405,0.20531 0.27483,-0.06924 0.20558,-0.34386 0.10415,-0.59667 -0.00424,-0.76484 -0.09983,-0.91315 -0.1934,-0.98405 -0.26657,-0.96382 c -0.00592,0.00164 -0.01182,0.00333 -0.0177,0.00508 z"
         id="path3941"
         style="fill:url(#radialGradient4497)" />
      <path
         d="m -0.41419,-0.91019 c 0.10086,-0.0459 0.23494,0.00275 0.37413,0.13585 0.15161,0.14499 0.29584,0.37728 0.39717,0.63978 C 0.45752,0.12557 0.5066,0.39154 0.49249,0.59897 0.47943,0.79106 0.41321,0.91735 0.3078,0.95145 0.31385,0.94949 0.31999,0.94744 0.32621,0.9453 0.43012,0.90944 0.49488,0.78233 0.50695,0.5903 0.52008,0.38144 0.46974,0.11409 0.36814,-0.14669 0.26744,-0.40513 0.1255,-0.63375 -0.0237,-0.77783 c -0.13835,-0.13362 -0.27185,-0.1838 -0.37274,-0.14023 -0.00604,0.00261 -0.01196,0.00523 -0.01775,0.00787 z"
         id="path3943"
         style="fill:url(#radialGradient4499)" />
      <path
         d="m -0.55061,-0.83476 c 0.11863,-0.07825 0.28513,-0.06358 0.46319,0.04088 0.19001,0.11148 0.37619,0.3152 0.51268,0.56109 C 0.56043,0.01073 0.6345,0.27333 0.62957,0.4915 0.6249,0.69787 0.54991,0.84722 0.42102,0.90705 0.42743,0.90408 0.43369,0.90109 0.43981,0.89809 0.56629,0.83615 0.63907,0.68612 0.64239,0.48028 0.64593,0.26085 0.57025,-0.00267 0.43367,-0.24632 0.2984,-0.48764 0.11556,-0.68775 -0.07124,-0.79895 c -0.17687,-0.10528 -0.34273,-0.12217 -0.46187,-0.04709 -0.00577,0.00363 -0.01161,0.00739 -0.0175,0.01128 z"
         id="path3945"
         style="fill:url(#radialGradient4501)" />
      <path
         d="m -0.69145,-0.72242 c 0.12204,-0.11681 0.3084,-0.14772 0.51744,-0.08575 0.22154,0.06566 0.44841,0.22963 0.62414,0.45115 0.1757,0.22149 0.28374,0.47968 0.29729,0.71031 C 0.7602,0.57093 0.68773,0.74536 0.54622,0.83764 0.55267,0.83343 0.55895,0.82924 0.56505,0.82505 0.70337,0.73032 0.77274,0.55495 0.75778,0.33766 0.74194,0.10766 0.63306,-0.1487 0.45782,-0.36842 0.28435,-0.58591 0.06168,-0.74768 -0.15651,-0.81473 c -0.20817,-0.06397 -0.39471,-0.0363 -0.51841,0.07684 -0.00546,0.00499 -0.01097,0.01015 -0.01653,0.01547 z"
         id="path3947"
         style="fill:url(#radialGradient4503)" />
      <path
         d="m -0.82796,-0.56079 c 0.10769,-0.159 0.29848,-0.24427 0.52836,-0.23612 0.24155,0.00857 0.50382,0.11948 0.72047,0.30474 0.21665,0.18526 0.36692,0.42713 0.41289,0.66442 C 0.8775,0.39808 0.82288,0.59979 0.68252,0.73086 0.68857,0.72522 0.69454,0.7195 0.70045,0.71371 0.8361,0.58058 0.88667,0.37901 0.84068,0.15473 c -0.04815,-0.23474 -0.1977,-0.4731 -0.4118,-0.6562 -0.21412,-0.18311 -0.47284,-0.29387 -0.71223,-0.30499 -0.2287,-0.01063 -0.41998,0.07063 -0.53044,0.2253 -0.00481,0.00673 -0.00953,0.01352 -0.01417,0.02037 z"
         id="path3949"
         style="fill:url(#radialGradient4505)" />
      <path
         d="m -0.94012,-0.34084 c 0.05732,-0.15812 0.18043,-0.28305 0.34996,-0.35514 0.17312,-0.07361 0.38454,-0.08782 0.59964,-0.04028 0.21598,0.04772 0.42281,0.15485 0.58641,0.30371 0.16293,0.14827 0.2733,0.32914 0.31306,0.51302 C 0.94789,0.26053 0.91688,0.43316 0.8208,0.57121 0.82595,0.56382 0.83099,0.55636 0.83593,0.54883 0.94906,0.37652 0.96248,0.15511 0.87305,-0.06433 0.77965,-0.2935 0.58269,-0.49944 0.33135,-0.63064 0.07965,-0.76202 -0.20273,-0.80599 -0.44502,-0.7516 c -0.23382,0.05249 -0.40939,0.19191 -0.48555,0.3855 -0.0033,0.00837 -0.00648,0.0168 -0.00955,0.02526 z"
         id="path3951"
         style="fill:url(#radialGradient4507)" />
      <path
         d="m -0.99753,-0.07022 c 0.01245,-0.17682 0.09925,-0.33918 0.2464,-0.46087 0.14859,-0.12287 0.34991,-0.19699 0.57087,-0.21017 0.2232,-0.01332 0.45294,0.03637 0.6507,0.14072 0.19576,0.10329 0.34847,0.25399 0.43301,0.42727 0.08372,0.17162 0.09568,0.35534 0.03396,0.52151 C 0.94073,0.33929 0.94393,0.33029 0.947,0.32125 1.0031,0.15585 0.98717,-0.02543 0.90168,-0.19408 0.81535,-0.36441 0.66304,-0.51206 0.46917,-0.61335 0.2734,-0.71564 0.04674,-0.76466 -0.1738,-0.7524 c -0.21841,0.01213 -0.41812,0.08365 -0.56711,0.20308 -0.14753,0.11826 -0.23695,0.27676 -0.2542,0.45056 -9.4e-4,0.0095 -0.00175,0.01902 -0.00242,0.02854 z"
         id="path3953"
         style="fill:url(#radialGradient4509)" />
      <path
         d="M -0.97652,0.21544 C -1.01508,0.04063 -0.9779,-0.1414 -0.871,-0.30113 c 0.10789,-0.1612 0.2804,-0.29011 0.48904,-0.36545 0.2107,-0.07608 0.44548,-0.09292 0.66487,-0.04769 0.21727,0.04479 0.4064,0.14777 0.53619,0.29192 0.12861,0.14284 0.19139,0.3177 0.17817,0.49622 C 0.99798,0.06423 0.99856,0.05457 0.99899,0.04491 1.00691,-0.13124 0.94094,-0.30253 0.81147,-0.44193 0.68077,-0.58265 0.4929,-0.68275 0.27806,-0.72612 0.06118,-0.7699 -0.17042,-0.75329 -0.37883,-0.67901 c -0.20646,0.07358 -0.37812,0.19947 -0.4874,0.35741 -0.10825,0.15644 -0.1491,0.3354 -0.11613,0.50861 0.00181,0.00951 0.00376,0.01898 0.00584,0.02843 z"
         id="path3955"
         style="fill:url(#radialGradient4511)" />
      <path
         d="M -0.88392,0.46764 C -0.9652,0.314 -0.97635,0.1335 -0.91555,-0.04495 c 0.06145,-0.18036 0.19279,-0.34803 0.37255,-0.47559 0.18172,-0.12896 0.40201,-0.20918 0.6241,-0.22728 0.21969,-0.01791 0.42809,0.02604 0.59113,0.12464 0.16131,0.09756 0.26886,0.24296 0.30541,0.41289 C 0.97568,-0.2194 0.97359,-0.22848 0.97138,-0.23753 0.92048,-0.44569 0.76252,-0.61279 0.535,-0.69915 0.30134,-0.78784 0.01598,-0.78317 -0.24995,-0.68633 c -0.26592,0.09685 -0.48745,0.27678 -0.60936,0.49495 -0.1187,0.21245 -0.13221,0.44199 -0.03733,0.63414 0.00412,0.00835 0.00836,0.01664 0.01272,0.02488 z"
         id="path3957"
         style="fill:url(#radialGradient4513)" />
      <path
         d="M -0.7525,0.65859 C -0.88563,0.50648 -0.92412,0.29168 -0.85889,0.06475 c 0.06794,-0.23635 0.24202,-0.46372 0.47811,-0.62437 0.2361,-0.16064 0.5115,-0.2391 0.75629,-0.21554 0.23503,0.02262 0.42071,0.13727 0.51333,0.31695 C 0.88488,-0.4659 0.88082,-0.47353 0.87666,-0.48111 0.78071,-0.65595 0.59473,-0.76612 0.36148,-0.78623 c -0.24309,-0.02096 -0.51528,0.05781 -0.74894,0.21679 -0.23365,0.15899 -0.40683,0.38326 -0.47657,0.61708 -0.06692,0.22434 -0.03271,0.43778 0.0947,0.59121 0.00552,0.00665 0.01113,0.01323 0.01683,0.01974 z"
         id="path3959"
         style="fill:url(#radialGradient4515)" />
      <path
         d="M -0.61328,0.78986 C -0.75646,0.67869 -0.82219,0.49023 -0.79549,0.26734 c 0.02812,-0.2347 0.15613,-0.48604 0.35205,-0.69107 0.19592,-0.20503 0.44119,-0.34433 0.67437,-0.38308 0.22145,-0.0368 0.4127,0.0203 0.53026,0.15828 C 0.75607,-0.65454 0.75087,-0.66049 0.74561,-0.66638 0.62614,-0.80005 0.43514,-0.8536 0.21527,-0.81504 c -0.23131,0.04057 -0.47379,0.17943 -0.66788,0.38255 -0.19409,0.20311 -0.32179,0.45165 -0.35181,0.68456 -0.02854,0.22139 0.03363,0.40977 0.17259,0.52304 0.00612,0.00499 0.01231,0.00991 0.01855,0.01475 z"
         id="path3961"
         style="fill:url(#radialGradient4517)" />
      <path
         d="M -0.48206,0.87614 C -0.61831,0.80117 -0.69365,0.64043 -0.6915,0.42915 c 0.0023,-0.22552 0.09266,-0.48831 0.24875,-0.72328 0.1561,-0.23496 0.36333,-0.42011 0.57033,-0.50964 0.19394,-0.08388 0.37132,-0.07673 0.49324,0.01981 -0.00557,-0.0044 -0.01128,-0.00883 -0.01715,-0.01327 -0.1228,-0.09299 -0.29963,-0.0975 -0.49225,-0.01251 -0.20538,0.09062 -0.41053,0.27495 -0.56543,0.50811 -0.1549,0.23316 -0.24531,0.49371 -0.24925,0.71816 -0.0037,0.21052 0.069,0.37179 0.20232,0.44895 0.00637,0.00369 0.01266,0.00724 0.01888,0.01066 z"
         id="path3963"
         style="fill:url(#radialGradient4519)" />
      <path
         d="M -0.36302,0.93178 C -0.48086,0.88587 -0.55258,0.74917 -0.56282,0.55071 -0.57386,0.33683 -0.51254,0.07018 -0.39383,-0.18396 -0.27512,-0.4381 -0.10997,-0.65625 0.06114,-0.78505 0.21991,-0.90456 0.37077,-0.9373 0.48161,-0.87638 0.47586,-0.87955 0.46996,-0.88271 0.46393,-0.88587 0.35284,-0.94405 0.20258,-0.90945 0.04479,-0.78927 c -0.16986,0.12939 -0.33359,0.34662 -0.4516,0.59924 -0.118,0.25262 -0.17952,0.5176 -0.16973,0.7309 0.00909,0.19814 0.07899,0.33558 0.1949,0.38344 0.0063,0.0026 0.0125,0.00509 0.01862,0.00747 z"
         id="path3965"
         style="fill:url(#radialGradient4521)" />
      <path
         d="M -0.25503,0.96693 C -0.34598,0.94294 -0.40473,0.82678 -0.41915,0.6421 -0.43505,0.43852 -0.3957,0.16964 -0.31074,-0.09847 -0.22577,-0.36658 -0.10308,-0.60904 0.02717,-0.76631 0.14533,-0.90898 0.26026,-0.97011 0.34844,-0.93733 0.34264,-0.93949 0.33672,-0.94162 0.33069,-0.94374 0.24263,-0.9746 0.12822,-0.91221 0.01073,-0.7691 c -0.12935,0.15756 -0.25116,0.39919 -0.33574,0.6661 -0.08459,0.26691 -0.12418,0.53459 -0.10919,0.7379 0.01362,0.18466 0.07121,0.30155 0.16098,0.32705 0.00614,0.00175 0.01221,0.00341 0.01819,0.00498 z"
         id="path3967"
         style="fill:url(#radialGradient4523)" />
      <path
         d="M -0.15528,0.98787 C -0.21423,0.97861 -0.25391,0.8791 -0.26654,0.70846 -0.28103,0.51261 -0.2586,0.24055 -0.20489,-0.03932 -0.15117,-0.31919 -0.07127,-0.58022 0.0147,-0.75679 0.08961,-0.91063 0.16332,-0.98838 0.22151,-0.97516 0.21561,-0.9765 0.20973,-0.97778 0.20386,-0.979 c -0.05787,-0.01205 -0.13109,0.0664 -0.20552,0.22042 -0.08539,0.1767 -0.16482,0.43719 -0.2184,0.71633 -0.05358,0.27914 -0.07624,0.55053 -0.06234,0.7463 0.01211,0.17063 0.05109,0.27062 0.1093,0.28085 0.00593,0.00105 0.01187,0.00204 0.01782,0.00297 z"
         id="path3969"
         style="fill:url(#radialGradient4525)" />
      <path
         d="M -0.06065,0.99816 C -0.09676,0.99596 -0.1162,0.81686 -0.11203,0.52398 -0.10739,0.19847 -0.0744,-0.21311 -0.02714,-0.53519 0.01538,-0.82497 0.0631,-0.99866 0.09909,-0.99508 0.09324,-0.99566 0.08739,-0.99619 0.08153,-0.99667 0.04611,-0.99957 -0.00101,-0.82558 -0.04317,-0.53589 -0.09,-0.21405 -0.12294,0.1969 -0.12796,0.5221 c -0.00453,0.29275 0.01428,0.47205 0.04971,0.47483 0.00589,4.7e-4 0.01175,8.7e-4 0.0176,0.00123 z"
         id="path3971"
         style="fill:url(#radialGradient4527)" />
    </g>
    <g
       id="front"
       style="fill:url(#radialGradient4593)">
      <path
         d="M 0.43619,-0.89985 C 0.31022,-0.96091 0.15722,-0.99391 0,-0.99391 c -0.15722,0 -0.31022,0.033 -0.43619,0.09406 -0.01122,0.00543 -0.02233,0.01108 -0.03334,0.01693 C -0.33715,-0.95332 -0.17122,-0.9918 0,-0.9918 c 0.17122,0 0.33715,0.03848 0.46953,0.10888 -0.01101,-0.00585 -0.02212,-0.0115 -0.03334,-0.01693 z"
         id="parallel_-40.0_front"
         style="fill:url(#radialGradient4531)" />
      <path
         d="M 0.69389,-0.72008 C 0.59284,-0.81745 0.44474,-0.89089 0.27231,-0.92911 c -0.17642,-0.03911 -0.36821,-0.03911 -0.54462,0 -0.17243,0.03822 -0.32053,0.11166 -0.42158,0.20903 -0.00653,0.00629 -0.01298,0.01268 -0.01934,0.01915 0.10076,-0.10253 0.2525,-0.18038 0.43078,-0.22099 0.18269,-0.04162 0.38222,-0.04162 0.56491,0 0.17827,0.04061 0.33001,0.11846 0.43077,0.22099 C 0.70687,-0.7074 0.70042,-0.71378 0.69389,-0.72008 Z"
         id="parallel_-30.0_front"
         style="fill:url(#radialGradient4533)" />
      <path
         d="M 0.8537,-0.52077 C 0.76567,-0.66508 0.5898,-0.78112 0.36537,-0.84291 c -0.233,-0.06414 -0.49774,-0.06414 -0.73074,0 -0.22443,0.06179 -0.4003,0.17783 -0.48833,0.32214 -0.00419,0.00688 -0.0083,0.0138 -0.01233,0.02078 0.08569,-0.14843 0.26341,-0.26852 0.49233,-0.33259 0.23794,-0.0666 0.50946,-0.0666 0.7474,0 0.22892,0.06407 0.40664,0.18416 0.49233,0.33259 C 0.862,-0.50697 0.85789,-0.51389 0.8537,-0.52077 Z"
         id="parallel_-20.0_front"
         style="fill:url(#radialGradient4535)" />
      <path
         d="M 0.95139,-0.30798 C 0.90818,-0.44148 0.79364,-0.56199 0.62633,-0.64991 0.45121,-0.74194 0.22932,-0.79244 0,-0.79244 c -0.22931,-10e-6 -0.4512,0.0505 -0.62632,0.14252 -0.16731,0.08792 -0.28186,0.20844 -0.32507,0.34194 -0.0023,0.00709 -0.00456,0.01435 -0.00678,0.02177 0.04053,-0.13569 0.15458,-0.25874 0.32326,-0.34869 0.17669,-0.09422 0.40193,-0.14605 0.63491,-0.14605 0.23297,0 0.45821,0.05183 0.6349,0.14604 0.16869,0.08995 0.28274,0.21301 0.32327,0.3487 -0.00213,-0.00713 -0.00439,-0.0144 -0.00678,-0.02177 z"
         id="parallel_-10.0_front"
         style="fill:url(#radialGradient4537)" />
      <path
         d="M 0.99611,-0.08817 C 0.98267,-0.2399 0.87703,-0.38314 0.69979,-0.48978 0.51322,-0.60203 0.26187,-0.66498 0,-0.66498 c -0.26188,0 -0.51323,0.06295 -0.69979,0.1752 -0.17724,0.10664 -0.28288,0.24988 -0.29632,0.40161 -6.3e-4,0.00722 -0.00121,0.01459 -0.00171,0.02211 0.01014,-0.15308 0.11444,-0.29826 0.2922,-0.40657 0.1872,-0.11405 0.44098,-0.17814 0.70562,-0.17814 0.26464,0 0.51843,0.0641 0.70563,0.17815 0.17776,0.1083 0.28205,0.25348 0.29219,0.40656 -5e-4,-0.00752 -0.00108,-0.01489 -0.00171,-0.02211 z"
         id="parallel_0.0_front"
         style="fill:url(#radialGradient4539)" />
      <path
         d="M 0.99125,0.13197 C 1.01272,-0.0293 0.92417,-0.18895 0.74577,-0.31034 0.55705,-0.43874 0.28543,-0.51236 0,-0.51236 c -0.28542,0 -0.55704,0.07362 -0.74576,0.20202 -0.17841,0.12139 -0.26696,0.28104 -0.24549,0.44231 9.5e-4,0.00713 0.00199,0.01439 0.00314,0.02177 -0.02517,-0.16175 0.06127,-0.32269 0.23935,-0.44532 C -0.56034,-0.42134 -0.28724,-0.4959 0,-0.4959 c 0.28724,0 0.56034,0.07456 0.74876,0.20432 0.17808,0.12263 0.26452,0.28357 0.23935,0.44532 C 0.98922,0.14663 0.99027,0.13937 0.99125,0.13197 Z"
         id="parallel_10.0_front"
         style="fill:url(#radialGradient4541)" />
      <path
         d="M 0.93832,0.34575 C 0.98549,0.21774 0.95576,0.08404 0.85419,-0.03251 0.74705,-0.15544 0.56719,-0.25103 0.34855,-0.3012 c -0.22415,-0.05144 -0.47295,-0.05144 -0.6971,0 -0.21864,0.05017 -0.3985,0.14577 -0.50564,0.26869 -0.10157,0.11655 -0.1313,0.25025 -0.08413,0.37826 0.00261,0.00709 0.00525,0.01402 0.00791,0.02078 -0.0503,-0.12769 -0.02304,-0.26172 0.07708,-0.37885 0.10556,-0.12348 0.28491,-0.21976 0.50371,-0.27037 0.22469,-0.05197 0.47455,-0.05197 0.69924,0 0.2188,0.05061 0.39815,0.14689 0.50371,0.27037 0.10012,0.11713 0.12738,0.25116 0.07708,0.37885 0.00266,-0.00676 0.0053,-0.01369 0.00791,-0.02078 z"
         id="parallel_20.0_front"
         style="fill:url(#radialGradient4543)" />
      <path
         d="M 0.83733,0.54669 C 0.91697,0.42472 0.91407,0.28986 0.8292,0.16907 0.74042,0.0427 0.56893,-0.05833 0.352,-0.11199 c -0.2248,-0.05561 -0.47919,-0.05561 -0.70399,0 -0.21694,0.05366 -0.38843,0.15469 -0.47722,0.28106 -0.08486,0.12079 -0.08776,0.25566 -0.00812,0.37762 0.00428,0.00656 0.00856,0.01294 0.01282,0.01915 -0.08302,-0.12096 -0.08312,-0.25564 -3e-4,-0.37664 0.08658,-0.1265 0.25684,-0.22794 0.47323,-0.28187 0.22436,-0.05593 0.47879,-0.05593 0.70315,-10e-6 0.21639,0.05394 0.38666,0.15538 0.47324,0.28188 0.08282,0.121 0.08272,0.25568 -3e-4,0.37664 C 0.82895,0.55938 0.83322,0.553 0.83733,0.54669 Z"
         id="parallel_30.0_front"
         style="fill:url(#radialGradient4545)" />
      <path
         d="M 0.68486,0.72868 C 0.79939,0.62104 0.83034,0.49124 0.77039,0.37018 0.70785,0.24389 0.55235,0.13906 0.34378,0.08268 c -0.21749,-0.05879 -0.47006,-0.0588 -0.68755,0 -0.20858,0.05637 -0.36408,0.16121 -0.42662,0.28749 -0.05995,0.12107 -0.029,0.25087 0.08553,0.35851 0.00609,0.00572 0.01225,0.01137 0.01848,0.01694 -0.11824,-0.10568 -0.15311,-0.23461 -0.09619,-0.35551 0.05936,-0.12611 0.2128,-0.23129 0.4202,-0.28794 0.21635,-0.05909 0.46838,-0.05909 0.68473,0 C 0.54977,0.15881 0.70321,0.264 0.76257,0.3901 0.81949,0.51101 0.78462,0.63994 0.66638,0.74562 0.67261,0.74005 0.67877,0.7344 0.68486,0.72868 Z"
         id="parallel_40.0_front"
         style="fill:url(#radialGradient4547)" />
      <path
         d="M 0.46334,0.88618 C 0.59341,0.81817 0.67047,0.7243 0.67795,0.62483 0.68548,0.52461 0.6218,0.42677 0.50075,0.35272 0.37222,0.2741 0.19051,0.2293 1e-5,0.2293 c -0.1905,0 -0.37222,0.0448 -0.50075,0.12342 -0.12105,0.07405 -0.18474,0.17189 -0.17721,0.27211 0.00748,0.09947 0.08454,0.19334 0.21461,0.26135 C -0.454,0.89107 -0.44457,0.8958 -0.43508,0.90039 -0.56945,0.83546 -0.6517,0.7432 -0.66354,0.64422 -0.67542,0.54483 -0.61535,0.44692 -0.49675,0.37248 -0.37058,0.2933 -0.18982,0.24799 -1e-5,0.24799 c 0.18982,0 0.37059,0.04531 0.49676,0.12449 0.1186,0.07443 0.17868,0.17235 0.16679,0.27174 C 0.6517,0.7432 0.56945,0.83546 0.43508,0.90039 0.44457,0.8958 0.45399,0.89107 0.46334,0.88618 Z"
         id="parallel_50.0_front"
         style="fill:url(#radialGradient4549)" />
      <path
         d="M 0.0223,0.9995 C 0.18746,0.99568 0.34006,0.94981 0.43549,0.87534 0.52652,0.8043 0.55595,0.71468 0.51596,0.63055 0.47511,0.54461 0.36611,0.47341 0.21932,0.43686 0.06492,0.39842 -0.11341,0.40274 -0.26111,0.44851 -0.40055,0.49172 -0.49749,0.56718 -0.5253,0.65406 c -0.02734,0.08544 0.01497,0.17322 0.11571,0.23988 0.10634,0.07035 0.266,0.10939 0.43189,0.10556 z M 0.02167,0.99896 C -0.13937,1.00268 -0.29436,0.96483 -0.39759,0.89661 -0.49543,0.83196 -0.53649,0.74679 -0.50988,0.66392 -0.48284,0.57973 -0.38878,0.50662 -0.2535,0.46474 -0.11014,0.42036 0.06297,0.41616 0.21285,0.45342 0.35522,0.48882 0.46098,0.55776 0.50074,0.64099 0.53972,0.72262 0.5112,0.80961 0.42276,0.87856 0.33014,0.95077 0.182,0.99526 0.02167,0.99896 Z"
         id="parallel_60.0_front"
         style="fill:url(#radialGradient4551)" />
      <path
         d="M 0.01566,0.97999 C 0.13013,0.97734 0.23588,0.94582 0.30195,0.8947 0.36553,0.84551 0.38562,0.7834 0.35681,0.72531 0.32789,0.66698 0.2527,0.61877 0.15183,0.59395 0.04505,0.56766 -0.07823,0.57058 -0.18044,0.60182 c -0.09639,0.02946 -0.1636,0.08091 -0.1833,0.14026 -0.01957,0.05892 0.00971,0.11958 0.08,0.16556 0.07374,0.04826 0.18442,0.07501 0.2994,0.07235 z M 0.01495,0.97629 C -0.09474,0.97883 -0.20033,0.95332 -0.27065,0.9073 -0.33751,0.86355 -0.36542,0.80586 -0.34689,0.7498 -0.32825,0.69343 -0.26459,0.6445 -0.17317,0.61635 -0.07575,0.58634 0.042,0.58337 0.14409,0.60833 0.24064,0.63194 0.31263,0.67798 0.34025,0.73371 0.36766,0.78901 0.34853,0.84812 0.28803,0.89495 0.22504,0.9437 0.12416,0.97376 0.01495,0.97629 Z"
         id="parallel_70.0_front"
         style="fill:url(#radialGradient4553)" />
      <path
         d="M 0.00829,0.92861 C 0.07786,0.92698 0.1404,0.90512 0.17194,0.87143 0.20198,0.83935 0.19958,0.80113 0.16558,0.77024 0.12946,0.73742 0.06324,0.71788 -0.00717,0.7193 c -0.07089,0.00143 -0.13458,0.02388 -0.16588,0.0584 -0.02928,0.03229 -0.02597,0.0705 0.00877,0.10115 0.03664,0.03234 0.10267,0.05139 0.17257,0.04976 z M 0.00752,0.92171 C -0.0558,0.92319 -0.11563,0.90594 -0.14882,0.87665 -0.1803,0.84888 -0.18328,0.81426 -0.15671,0.78502 -0.12833,0.75378 -0.07063,0.73347 -0.00642,0.73219 0.05727,0.73092 0.11717,0.74857 0.1499,0.77823 0.18077,0.80621 0.18299,0.84085 0.15577,0.86992 0.12721,0.90043 0.07055,0.92024 0.00752,0.92171 Z"
         id="parallel_80.0_front"
         style="fill:url(#radialGradient4555)" />
      <path
         d="m 0.01432,0.9999 c -0.01216,1.7e-4 -0.02811,-0.17339 -0.0423,-0.46094 -0.01618,-0.32779 -0.02734,-0.74764 -0.02859,-1.0758 -0.0011,-0.28782 0.00561,-0.46193 0.01775,-0.46241 0.00582,-2.2e-4 0.01167,-4e-4 0.01754,-5.2e-4 -0.01156,2.4e-4 -0.01771,0.17433 -0.0163,0.46227 0.00162,0.3282 0.01278,0.74818 0.0286,1.07605 C 0.0049,0.82627 0.0203,0.99986 0.03186,0.99949 0.02601,0.99968 0.02017,0.99981 0.01432,0.9999 Z"
         id="meridian_80.0_front"
         style="fill:url(#radialGradient4557)" />
      <path
         d="M 0.10752,0.9942 C 0.06602,0.99869 0.01434,0.91699 -0.03805,0.76382 -0.10064,0.58081 -0.15865,0.31214 -0.19718,0.02663 c -0.03853,-0.2855 -0.05382,-0.55994 -0.04199,-0.753 0.0099,-0.1616 0.03808,-0.25409 0.07929,-0.26077 0.00586,-9.5e-4 0.01173,-0.00184 0.0176,-0.00269 -0.04095,0.00589 -0.0689,0.09781 -0.07863,0.25913 -0.01166,0.19312 0.00381,0.46834 0.04247,0.75476 0.03865,0.28642 0.09669,0.55588 0.15912,0.73902 C 0.03283,0.91607 0.08415,0.99731 0.1252,0.99213 0.11929,0.99288 0.11339,0.99357 0.10752,0.9942 Z"
         id="path3988"
         style="fill:url(#radialGradient4559)" />
      <path
         d="M 0.20432,0.9789 C 0.13083,0.99424 0.03814,0.92147 -0.05609,0.77424 -0.16364,0.60622 -0.26396,0.35572 -0.33252,0.08384 c -0.06855,-0.27188 -0.099,-0.53999 -0.08398,-0.73892 0.01316,-0.1743 0.06026,-0.28232 0.13223,-0.30366 0.00588,-0.00175 0.01179,-0.00344 0.0177,-0.00508 -0.07219,0.01997 -0.11949,0.12728 -0.13275,0.30155 -0.01515,0.19916 0.01545,0.46847 0.08435,0.74169 0.06889,0.27321 0.16964,0.52483 0.27741,0.693 C 0.05675,0.91957 0.14928,0.99163 0.22231,0.97498 0.21633,0.97634 0.21033,0.97765 0.20432,0.9789 Z"
         id="path3990"
         style="fill:url(#radialGradient4561)" />
      <path
         d="M 0.3078,0.95145 C 0.20605,0.98437 0.07518,0.92897 -0.05913,0.79599 -0.20569,0.65087 -0.34421,0.42539 -0.44262,0.17166 -0.54102,-0.08208 -0.59075,-0.342 -0.58035,-0.54799 c 0.00952,-0.18876 0.06882,-0.31791 0.16616,-0.3622 0.00599,-0.00273 0.01191,-0.00535 0.01775,-0.00787 -0.09834,0.04247 -0.15852,0.17091 -0.1685,0.35999 -0.01089,0.20656 0.039,0.46816 0.13807,0.72362 0.09908,0.25547 0.23862,0.48231 0.38593,0.6275 C 0.09392,0.92596 0.22495,0.98024 0.32621,0.9453 0.31999,0.94744 0.31385,0.94949 0.3078,0.95145 Z"
         id="path3992"
         style="fill:url(#radialGradient4563)" />
      <path
         d="M 0.42102,0.90705 C 0.29896,0.96371 0.13758,0.93586 -0.03135,0.82888 -0.21146,0.71481 -0.38573,0.51992 -0.51539,0.28748 -0.64505,0.05504 -0.71932,-0.19563 -0.72175,-0.4088 c -0.00228,-0.19993 0.05881,-0.35187 0.17114,-0.42596 0.00569,-0.00375 0.01152,-0.00752 0.0175,-0.01128 -0.11441,0.07209 -0.1772,0.22363 -0.17574,0.42443 0.00157,0.21426 0.07615,0.46718 0.20699,0.7017 0.13084,0.23451 0.30687,0.4308 0.48836,0.54465 0.17003,0.10666 0.3319,0.13281 0.45331,0.07335 -0.00612,0.003 -0.01238,0.00599 -0.01879,0.00896 z"
         id="path3994"
         style="fill:url(#radialGradient4565)" />
      <path
         d="M 0.54622,0.83764 C 0.41452,0.92352 0.23278,0.93183 0.0365,0.86085 -0.1694,0.78639 -0.37538,0.63043 -0.53733,0.4263 -0.69928,0.22216 -0.80431,-0.01389 -0.82999,-0.23134 c -0.02448,-0.20727 0.02495,-0.38236 0.13854,-0.49108 0.00556,-0.00532 0.01107,-0.01048 0.01653,-0.01547 -0.11692,0.10694 -0.16891,0.28225 -0.14553,0.49109 0.02454,0.21922 0.13018,0.45808 0.29395,0.66451 0.16376,0.20642 0.37234,0.36361 0.58023,0.43737 C 0.25178,0.92534 0.43432,0.91459 0.56505,0.82505 0.5587,0.8294 0.55242,0.8336 0.54622,0.83764 Z"
         id="path3996"
         style="fill:url(#radialGradient4567)" />
      <path
         d="M 0.68252,0.73086 C 0.55515,0.84982 0.36656,0.90174 0.15308,0.87655 -0.06824,0.85044 -0.2998,0.74341 -0.49383,0.57749 -0.68786,0.41157 -0.82953,0.19944 -0.88969,-0.01514 c -0.05802,-0.20699 -0.03601,-0.40135 0.06173,-0.54565 0.00464,-0.00685 0.00936,-0.01364 0.01417,-0.02037 -0.10235,0.14333 -0.1276,0.33896 -0.0707,0.54839 0.05904,0.21725 0.20195,0.43273 0.39864,0.60092 0.1967,0.1682 0.43175,0.27594 0.65554,0.30053 C 0.38541,0.89238 0.57475,0.83707 0.70045,0.71371 0.69454,0.7195 0.68857,0.72522 0.68252,0.73086 Z"
         id="path3998"
         style="fill:url(#radialGradient4569)" />
      <path
         d="M 0.8208,0.57121 C 0.71479,0.72355 0.53653,0.82379 0.31976,0.85289 0.09698,0.8828 -0.15039,0.83541 -0.37297,0.72012 -0.59556,0.60483 -0.77699,0.43014 -0.8811,0.23092 -0.98241,0.03708 -1.00338,-0.16635 -0.94012,-0.34084 c 0.00307,-0.00846 0.00625,-0.01689 0.00955,-0.02526 -0.06886,0.17502 -0.05125,0.38122 0.04947,0.57847 0.10352,0.2027 0.2871,0.38088 0.51319,0.49797 0.22609,0.1171 0.47753,0.16425 0.70282,0.13184 C 0.55413,0.81064 0.73271,0.70606 0.83593,0.54883 0.83099,0.55636 0.82595,0.56382 0.8208,0.57121 Z"
         id="path4000"
         style="fill:url(#radialGradient4571)" />
      <path
         d="M 0.93741,0.34824 C 0.87075,0.52766 0.72255,0.67489 0.52042,0.76238 0.31351,0.85195 0.06472,0.8726 -0.17739,0.82024 -0.41949,0.76788 -0.63752,0.64628 -0.78893,0.47922 c -0.14792,-0.1632 -0.22204,-0.3585 -0.2086,-0.54944 6.7e-4,-0.00952 0.00148,-0.01904 0.00242,-0.02854 -0.01919,0.19332 0.05216,0.39272 0.20039,0.55983 0.1518,0.17113 0.37313,0.29591 0.61949,0.34919 C 0.07114,0.86354 0.32424,0.84136 0.53319,0.74825 0.73722,0.65731 0.88459,0.50522 0.947,0.32125 0.94393,0.33029 0.94073,0.33929 0.93741,0.34824 Z"
         id="path4002"
         style="fill:url(#radialGradient4573)" />
      <path
         d="M 0.99727,0.07387 C 0.98305,0.26586 0.88187,0.44955 0.71252,0.59074 0.53927,0.73518 0.30687,0.82498 0.06044,0.84265 -0.186,0.86033 -0.42884,0.80461 -0.62092,0.68638 -0.80869,0.5708 -0.93504,0.40343 -0.97652,0.21544 -0.9786,0.20599 -0.98055,0.19652 -0.98236,0.18701 c 0.03656,0.19202 0.16138,0.36423 0.3506,0.48358 0.19364,0.12214 0.44062,0.18004 0.69148,0.16205 C 0.31058,0.81465 0.54677,0.72209 0.72099,0.57357 0.89124,0.42844 0.99021,0.24018 0.99899,0.04491 0.99856,0.05457 0.99798,0.06423 0.99727,0.07387 Z"
         id="path4004"
         style="fill:url(#radialGradient4575)" />
      <path
         d="M 0.97764,-0.21029 C 1.01742,-0.02537 0.97054,0.17647 0.84576,0.35732 0.71785,0.5427 0.5172,0.69278 0.28331,0.77795 0.04941,0.86313 -0.20075,0.87723 -0.41792,0.81752 -0.62977,0.75926 -0.79547,0.63483 -0.88392,0.46764 -0.88828,0.4594 -0.89252,0.45111 -0.89664,0.44276 -0.8117,0.61477 -0.64622,0.74389 -0.43214,0.80511 -0.21261,0.8679 0.04187,0.85467 0.2797,0.76805 0.51754,0.68144 0.72093,0.52792 0.84868,0.33867 c 0.12457,-0.18455 0.16827,-0.38985 0.1227,-0.5762 0.00221,0.00905 0.0043,0.01813 0.00626,0.02724 z"
         id="path4006"
         style="fill:url(#radialGradient4577)" />
      <path
         d="M 0.88884,-0.45821 C 0.97162,-0.29764 0.9739,-0.097 0.89518,0.10538 0.81396,0.31417 0.6525,0.50948 0.44346,0.65172 0.23448,0.79392 -0.0064,0.87242 -0.23037,0.87137 -0.44761,0.87036 -0.63348,0.79458 -0.7525,0.65859 -0.7582,0.65208 -0.76381,0.6455 -0.76933,0.63885 -0.65252,0.77952 -0.46611,0.85917 -0.24654,0.86216 -0.01997,0.86525 0.2248,0.78647 0.43693,0.64213 0.64905,0.4978 0.81218,0.29903 0.89248,0.08714 0.97029,-0.11819 0.96462,-0.32083 0.87666,-0.48111 c 0.00416,0.00758 0.00822,0.01521 0.01218,0.0229 z"
         id="path4008"
         style="fill:url(#radialGradient4579)" />
      <path
         d="m 0.76119,-0.64853 c 0.10795,0.12671 0.14572,0.31223 0.1059,0.52059 C 0.82558,0.08923 0.70294,0.31472 0.52484,0.50116 0.34668,0.68768 0.12692,0.82057 -0.08824,0.87196 -0.29465,0.92127 -0.48177,0.89198 -0.61328,0.78986 -0.61955,0.785 -0.62573,0.78008 -0.63183,0.77511 -0.50161,0.88126 -0.3137,0.91346 -0.10529,0.86525 0.11208,0.81497 0.33486,0.68111 0.51524,0.49234 0.69562,0.30357 0.81922,0.07495 0.85958,-0.14448 0.89827,-0.35486 0.85757,-0.54112 0.74561,-0.66638 c 0.00524,0.00586 0.01044,0.01181 0.01558,0.01785 z"
         id="path4010"
         style="fill:url(#radialGradient4581)" />
      <path
         d="M 0.62082,-0.78396 C 0.73568,-0.69299 0.7928,-0.52938 0.78086,-0.32519 0.76825,-0.10942 0.67953,0.13471 0.53396,0.35399 0.38824,0.57351 0.19742,0.75026 0.00319,0.84571 -0.18053,0.936 -0.35361,0.94681 -0.48206,0.87614 -0.48851,0.87259 -0.4948,0.86904 -0.50094,0.86548 -0.3733,0.93936 -0.1996,0.93061 -0.01448,0.84086 0.18133,0.74592 0.37424,0.56798 0.52143,0.34643 0.66862,0.12488 0.75789,-0.12192 0.76952,-0.33922 0.78051,-0.54467 0.72126,-0.7082 0.60367,-0.79723 c 0.00587,0.00444 0.01159,0.00887 0.01715,0.01327 z"
         id="path4012"
         style="fill:url(#radialGradient4583)" />
      <path
         d="m 0.48161,-0.87638 c 0.10634,0.05843 0.16804,0.1988 0.17282,0.39351 0.00516,0.20989 -0.0562,0.46584 -0.17022,0.70975 C 0.3703,0.47052 0.21353,0.68146 0.04943,0.81198 -0.10289,0.93311 -0.25002,0.97581 -0.36302,0.93178 -0.36914,0.9294 -0.37534,0.92691 -0.38164,0.92431 -0.26914,0.97076 -0.12161,0.92939 0.03159,0.80832 0.19684,0.67772 0.35503,0.46518 0.46981,0.21946 0.5846,-0.02627 0.64607,-0.28399 0.64017,-0.49453 0.63471,-0.68972 0.57175,-0.82941 0.46393,-0.88587 c 0.00582,0.00305 0.01172,0.00621 0.01768,0.00949 z"
         id="path4014"
         style="fill:url(#radialGradient4585)" />
      <path
         d="m 0.34844,-0.93733 c 0.08545,0.03176 0.13969,0.14948 0.15214,0.33055 C 0.51453,-0.40398 0.47491,-0.1389 0.3911,0.12516 0.30751,0.38853 0.1875,0.62719 0.05963,0.78447 -0.05481,0.92523 -0.1669,0.99018 -0.25503,0.96693 -0.26101,0.96536 -0.26707,0.9637 -0.27322,0.96195 -0.1851,0.98698 -0.0723,0.92211 0.04303,0.77991 0.17093,0.62219 0.29106,0.38279 0.37473,0.11876 0.45841,-0.14527 0.49809,-0.41017 0.48437,-0.61277 0.472,-0.79544 0.41715,-0.91344 0.33069,-0.94374 c 0.00603,0.00211 0.01195,0.00425 0.01775,0.00641 z"
         id="path4016"
         style="fill:url(#radialGradient4587)" />
      <path
         d="M 0.22151,-0.97516 C 0.27855,-0.9622 0.31681,-0.8627 0.32904,-0.69508 0.34332,-0.49936 0.32088,-0.22796 0.2673,0.05124 0.21369,0.33054 0.13402,0.59105 0.04827,0.7676 -0.02514,0.91872 -0.0975,0.99695 -0.15528,0.98787 -0.16123,0.98694 -0.16717,0.98595 -0.1731,0.9849 -0.11559,0.99501 -0.04323,0.91683 0.03032,0.76486 0.11582,0.58819 0.1954,0.3274 0.24906,0.04782 0.30272,-0.23176 0.32536,-0.50348 0.31135,-0.69926 0.2993,-0.86767 0.26102,-0.9671 0.20386,-0.979 c 0.00589,0.00123 0.01178,0.00251 0.01765,0.00384 z"
         id="path4018"
         style="fill:url(#radialGradient4589)" />
      <path
         d="m 0.09909,-0.99508 c 0.03547,0.00353 0.05474,0.17873 0.05107,0.46564 C 0.14595,-0.19992 0.11227,0.22042 0.06394,0.54645 0.02186,0.83037 -0.02507,1.00032 -0.06065,0.99816 -0.06652,0.9978 -0.07239,0.99739 -0.07825,0.99693 -0.04326,0.99968 0.00319,0.82984 0.04503,0.54562 0.09306,0.21927 0.1268,-0.20171 0.13135,-0.53154 0.13532,-0.81876 0.11651,-0.99381 0.08153,-0.99667 c 0.00586,4.8e-4 0.01171,0.00101 0.01756,0.00159 z"
         id="path4020"
         style="fill:url(#radialGradient4591)" />
    </g>
    <path
       style="fill:none;stroke:#000000;stroke-width:0.0025px;stroke-linecap:butt;stroke-linejoin:miter;stroke-opacity:1"
       d="M -1.8418324e-5,0.8403954 4.03825e-4,0.83548604 v 0"
       id="path2140"
       sodipodi:nodetypes="ccc" />
  </g>
  <text
     class="math"
     style="font-style:normal;font-weight:normal;font-size:40px;line-height:1.25;font-family:sans-serif;fill:#000000;fill-opacity:1;stroke:none"
     x="591.6167"
     y="137.21507"
     id="text3592"
     inkscape:label="omega"
     renderscale="2">\Omega</text>
  <text
     class="math"
     style="font-style:normal;font-weight:normal;font-size:40px;line-height:1.25;font-family:sans-serif;fill:#000000;fill-opacity:1;stroke:none"
     x="125.54817"
     y="984.41089"
     id="text4938"
     inkscape:label="x-prime"
     renderscale="2">x'</text>
  <text
     class="math"
     style="font-style:normal;font-weight:normal;font-size:40px;line-height:1.25;font-family:sans-serif;fill:#000000;fill-opacity:1;stroke:none"
     x="524.17896"
     y="40.390625"
     id="text2094"
     inkscape:label="Z-z-prime"
     renderscale="2">Z, z'</text>
  <text
     class="math"
     style="font-style:normal;font-weight:normal;font-size:40px;line-height:1.25;font-family:sans-serif;fill:#000000;fill-opacity:1;stroke:none"
     x="970.80444"
     y="863.38263"
     id="text6166"
     inkscape:label="y-prime"
     renderscale="2">y'</text>
  <path
     id="path5614"
     style="fill:none;stroke:#f80000;stroke-width:4;stroke-miterlimit:4;stroke-dasharray:8, 4;stroke-dashoffset:0"
     d="m 955.49098,627.2126 c 0,-64.63092 -42.04239,-126.6178 -116.888,-172.33853 C 763.75737,409.15334 662.23235,383.43962 556.33889,383.3837 335.83743,383.26726 156.87765,492.21022 156.49609,626.79067"
     sodipodi:nodetypes="cssc"
     inkscape:label="back-equator" />
  <path
     id="path5299"
     style="fill:none;stroke:#f80000;stroke-width:4"
     d="m 955.49098,627.2126 c 0,64.63092 -42.04239,126.6178 -116.888,172.33853 -74.84561,45.72073 -176.37063,71.43445 -282.26409,71.49037 -220.50146,0.11644 -399.46124,-108.82652 -399.8428,-243.40697"
     sodipodi:nodetypes="cssc"
     inkscape:label="front-equator" />
  <path
     sodipodi:nodetypes="cszccsscssscssssc"
     id="path3735"
     d="m 554.06682,271.36767 c 0.14314,-0.0477 -67.7193,7.10968 -139.89661,43.26299 -52.42792,26.26094 -106.86779,67.52391 -136.50979,98.58144 -29.642,31.05754 -54.35764,61.55714 -72.72562,92.76561 -20.01071,34.24767 -34.54995,80.10823 -49.87261,129.63612 0.568,7.18 8.01029,82.7682 62.32925,124.65271 18.859,14.54188 42.47344,34.56065 68.54153,49.03116 22.59621,12.54325 45.84251,22.38176 62.12374,28.15029 64.56239,22.32345 81.8431,24.93169 122.34052,30.20201 13.10423,1.70538 60.65234,5.10284 72.6267,5.25702 5.71169,0.0735 85.5596,0.76282 162.7651,-18.00703 84.65305,-20.58046 141.09232,-55.55879 159.66376,-71.76389 -0.807,-11.1801 4.02838,-35.53615 -3.06037,-78.92459 C 853.32074,648.68614 828.33378,567.90742 784.23494,494.1777 748.32161,434.13349 692.08431,372.29076 671.58293,352.61574 658.49927,340.05946 628.99933,314.34557 598.35306,294.49158 581.64642,283.66829 554.06682,271.36767 554.06682,271.36767 Z"
     style="opacity:0.990741;fill:#fefeef;fill-opacity:1;stroke:#000000;stroke-width:0.697794;stroke-linecap:butt;stroke-linejoin:miter;stroke-miterlimit:4;stroke-dasharray:none;stroke-opacity:1"
     inkscape:label="cutaway" />
  <circle
     style="fill:none;stroke:#000000;stroke-width:2;stroke-miterlimit:4;stroke-dasharray:none;stroke-opacity:1"
     id="path506"
     cx="552.4408"
     cy="605.56573"
     r="400"
     sodipodi:insensitive="true"
     inkscape:label="surrounding-circle" />
  <g
     id="g1086"
     inkscape:label="X-axis"
     transform="translate(212.39028,261.47392)">
    <path
       style="fill:none;stroke:#000000;stroke-width:4;stroke-linecap:butt;stroke-linejoin:miter;stroke-miterlimit:4;stroke-dasharray:none;stroke-opacity:1"
       d="M -123.31202,374.13991 H 341.25021"
       id="path10079"
       sodipodi:nodetypes="cc"
       inkscape:label="X-line" />
    <path
       sodipodi:type="star"
       style="fill:#000000;fill-opacity:1;stroke:none;stroke-width:4;stroke-miterlimit:4;stroke-dasharray:none;stroke-dashoffset:0;stroke-opacity:1"
       id="path11957"
       inkscape:flatsided="true"
       sodipodi:sides="3"
       sodipodi:cx="-55.36253"
       sodipodi:cy="438.04807"
       sodipodi:r1="29.648083"
       sodipodi:r2="14.824041"
       sodipodi:arg1="3.1415927"
       sodipodi:arg2="4.1887902"
       inkscape:rounded="0"
       inkscape:randomized="0"
       d="m -85.010612,438.04806 44.472125,-25.67599 -3e-6,51.35199 z"
       transform="matrix(0.6431708,0,0,0.6431708,-87.704463,92.400201)"
       inkscape:transform-center-x="4.7671982"
       inkscape:transform-center-y="2.0927996e-06"
       inkscape:label="X-arrow" />
  </g>
  <path
     sodipodi:type="star"
     style="fill:#000000;fill-opacity:1;stroke:none;stroke-width:4;stroke-miterlimit:4;stroke-dasharray:none;stroke-dashoffset:0;stroke-opacity:1"
     id="path11957-7"
     inkscape:flatsided="true"
     sodipodi:sides="3"
     sodipodi:cx="-55.36253"
     sodipodi:cy="438.04807"
     sodipodi:r1="29.648083"
     sodipodi:r2="14.824041"
     sodipodi:arg1="3.1415927"
     sodipodi:arg2="4.1887902"
     inkscape:rounded="0"
     inkscape:randomized="0"
     transform="matrix(0.5149111,-0.3854027,0.3854027,0.5149111,28.657582,712.89227)"
     inkscape:transform-center-x="-1.1312655"
     inkscape:transform-center-y="-3.7538078"
     inkscape:label="x-prime-arrow"
     d="m -85.010612,438.04806 44.472125,-25.67599 -3e-6,51.35199 z" />
  <path
     sodipodi:type="star"
     style="fill:#000000;fill-opacity:1;stroke:none;stroke-width:4;stroke-miterlimit:4;stroke-dasharray:none;stroke-dashoffset:0;stroke-opacity:1"
     id="path11957-7-0"
     inkscape:flatsided="true"
     sodipodi:sides="3"
     sodipodi:cx="-55.36253"
     sodipodi:cy="438.04807"
     sodipodi:r1="29.648083"
     sodipodi:r2="14.824041"
     sodipodi:arg1="3.1415927"
     sodipodi:arg2="4.1887902"
     inkscape:rounded="0"
     inkscape:randomized="0"
     transform="matrix(0.5149111,-0.3854027,0.3854027,0.5149111,822.92795,583.90511)"
     inkscape:transform-center-x="-1.1312655"
     inkscape:transform-center-y="-3.7538078"
     inkscape:label="y-prime-arrow"
     d="m -85.010612,438.04806 44.472125,-25.67599 -3e-6,51.35199 z" />
  <g
     id="g1082"
     inkscape:label="z-prime-axis"
     transform="translate(212.39028,221.47392)">
    <path
       style="fill:none;stroke:#000000;stroke-width:4;stroke-linecap:butt;stroke-linejoin:miter;stroke-miterlimit:4;stroke-dasharray:none;stroke-opacity:1"
       d="m 341.67654,-133.58302 -0.42633,547.72293"
       id="path9863"
       sodipodi:nodetypes="cc"
       inkscape:label="z-prime-line" />
    <path
       sodipodi:type="star"
       style="fill:#000000;fill-opacity:1;stroke:none;stroke-width:4;stroke-miterlimit:4;stroke-dasharray:none;stroke-dashoffset:0;stroke-opacity:1"
       id="path12025"
       inkscape:flatsided="true"
       sodipodi:sides="3"
       sodipodi:cx="-55.36253"
       sodipodi:cy="438.04807"
       sodipodi:r1="29.648083"
       sodipodi:r2="14.824041"
       sodipodi:arg1="3.1415927"
       sodipodi:arg2="4.1887902"
       inkscape:rounded="0"
       inkscape:randomized="0"
       d="m -85.010612,438.04806 44.472125,-25.67599 -3e-6,51.35199 z"
       transform="matrix(0,0.56319446,-0.55699891,0,585.29659,-105.26848)"
       inkscape:transform-center-y="-4.1744147"
       inkscape:transform-center-x="8.1531663e-06"
       inkscape:label="z-prime-arrow" />
  </g>
  <g
     id="g1078"
     inkscape:label="Y-axis"
     transform="translate(212.39028,261.47392)">
    <path
       style="fill:none;stroke:#000000;stroke-width:4;stroke-linecap:butt;stroke-linejoin:miter;stroke-miterlimit:4;stroke-dasharray:none;stroke-opacity:1"
       d="m 341.25021,374.13991 87.71301,344.08265"
       id="path10081"
       sodipodi:nodetypes="cc"
       inkscape:label="Y-line" />
    <path
       sodipodi:type="star"
       style="fill:#000000;fill-opacity:1;stroke:none;stroke-width:4;stroke-miterlimit:4;stroke-dasharray:none;stroke-dashoffset:0;stroke-opacity:1"
       id="path12107"
       inkscape:flatsided="true"
       sodipodi:sides="3"
       sodipodi:cx="-55.36253"
       sodipodi:cy="438.04807"
       sodipodi:r1="29.648083"
       sodipodi:r2="14.824041"
       sodipodi:arg1="3.1415927"
       sodipodi:arg2="4.1887902"
       inkscape:rounded="0"
       inkscape:randomized="0"
       d="m -85.010612,438.04806 44.472125,-25.67599 -3e-6,51.35199 z"
       transform="matrix(-0.41484319,0.38091091,-0.37672062,-0.41027962,572.97946,926.26059)"
       inkscape:transform-center-y="2.4438379"
       inkscape:transform-center-x="1.7615145"
       inkscape:label="Y-arrow" />
  </g>
  <g
     id="g1074"
     inkscape:label="rotation-arrow"
     transform="translate(212.39028,221.47392)">
    <path
       id="path12301"
       style="fill:none;stroke:#000000;stroke-width:6.02096"
       d="m 366.30068,-96.473532 c 3.90048,14.55678 -5.8387,26.36089 -21.75984,26.37348 -15.9213,0.012 -32.00297,-11.77115 -35.93096,-26.3279"
       sodipodi:nodetypes="csc"
       inkscape:label="rotation-path" />
    <path
       sodipodi:type="star"
       style="fill:#000000;fill-opacity:1;stroke:none;stroke-width:4;stroke-miterlimit:4;stroke-dasharray:none;stroke-dashoffset:0;stroke-opacity:1"
       id="path12884"
       inkscape:flatsided="true"
       sodipodi:sides="3"
       sodipodi:cx="-55.36253"
       sodipodi:cy="438.04807"
       sodipodi:r1="29.648083"
       sodipodi:r2="14.824041"
       sodipodi:arg1="3.1415927"
       sodipodi:arg2="4.1887902"
       inkscape:rounded="0"
       inkscape:randomized="0"
       d="m -85.010612,438.04806 44.472125,-25.67599 -3e-6,51.35199 z"
       transform="matrix(0.1509075,0.56319446,-0.55699891,0,616.65102,-70.542992)"
       inkscape:transform-center-y="-4.1744147"
       inkscape:transform-center-x="-2.2370499"
       inkscape:label="rotation-arrow-head" />
  </g>
  <path
     sodipodi:type="star"
     style="fill:#000000;fill-opacity:1;stroke:none;stroke-width:4;stroke-miterlimit:4;stroke-dasharray:none;stroke-dashoffset:0;stroke-opacity:1"
     id="path10441"
     inkscape:flatsided="true"
     sodipodi:sides="3"
     sodipodi:cx="-55.36253"
     sodipodi:cy="438.04807"
     sodipodi:r1="29.648083"
     sodipodi:r2="14.824041"
     sodipodi:arg1="3.1415927"
     sodipodi:arg2="4.1887902"
     inkscape:rounded="0"
     inkscape:randomized="0"
     d="m -85.010612,438.04806 44.472125,-25.67599 -3e-6,51.35199 z"
     transform="matrix(0.24524122,0.04664159,-0.04664159,0.24524122,356.45236,713.83861)"
     inkscape:transform-center-x="1.2189496"
     inkscape:label="prime-meridian-equator-arrow"
     inkscape:transform-center-y="0.69141495" />
  <path
     sodipodi:type="star"
     style="fill:#000000;fill-opacity:1;stroke:none;stroke-width:4;stroke-miterlimit:4;stroke-dasharray:none;stroke-dashoffset:0;stroke-opacity:1"
     id="path10441-4"
     inkscape:flatsided="true"
     sodipodi:sides="3"
     sodipodi:cx="-55.36253"
     sodipodi:cy="438.04807"
     sodipodi:r1="29.648083"
     sodipodi:r2="14.824041"
     sodipodi:arg1="3.1415927"
     sodipodi:arg2="4.1887902"
     inkscape:rounded="0"
     inkscape:randomized="0"
     transform="matrix(-0.23766313,-0.07638671,0.07638671,-0.23766313,512.45007,367.60493)"
     inkscape:transform-center-x="-0.78091542"
     inkscape:label="north-pole-arrow"
     inkscape:transform-center-y="-1.1323502"
     d="m -85.010612,438.04806 44.472125,-25.67599 -3e-6,51.35199 z" />
  <path
     style="fill:none;stroke:#000000;stroke-width:2;stroke-linecap:butt;stroke-linejoin:miter;stroke-miterlimit:4;stroke-dasharray:none;stroke-opacity:1"
     d="m 507.02212,638.09392 5.40582,36.03875 h 50.63959"
     id="path2340" />
  <path
     style="fill:none;stroke:#000000;stroke-width:2;stroke-linecap:butt;stroke-linejoin:miter;stroke-miterlimit:4;stroke-dasharray:none;stroke-opacity:1"
     d="m 507.02212,638.09392 v -41.76065 h 46.39381 l 10.4559,27.38894 -0.8043,50.41046"
     id="path2342"
     sodipodi:nodetypes="ccccc" />
  <text
     xml:space="preserve"
     style="font-style:normal;font-weight:normal;font-size:40px;line-height:1.25;font-family:sans-serif;fill:#000000;fill-opacity:1;stroke:none"
     x="807.39343"
     y="187.86327"
     id="text4774"
     inkscape:label="north-pole"><tspan
       sodipodi:role="line"
       id="tspan4772"
       x="807.39343"
       y="187.86327">North</tspan><tspan
       sodipodi:role="line"
       x="807.39343"
       y="237.86327"
       id="tspan4776">Pole</tspan></text>
  <path
     style="fill:none;stroke:#000000;stroke-width:4;stroke-linecap:butt;stroke-linejoin:miter;stroke-miterlimit:4;stroke-dasharray:none;stroke-opacity:1"
     d="M 554.23572,273.33141 C 606.8226,226.16602 651.3734,200.04463 801.46818,196.15858"
     id="path5471"
     sodipodi:nodetypes="cc" />
  <text
     xml:space="preserve"
     style="font-style:normal;font-weight:normal;font-size:40px;line-height:1.25;font-family:sans-serif;fill:#000000;fill-opacity:1;stroke:none"
     x="7.3242188"
     y="822.51752"
     id="text9989"
     inkscape:label="0-N-0-E"><tspan
       sodipodi:role="line"
       id="tspan9987"
       x="7.3242188"
       y="822.51752">0째N, 0째E</tspan></text>
  <path
     style="fill:none;stroke:#000000;stroke-width:4;stroke-linecap:butt;stroke-linejoin:miter;stroke-miterlimit:4;stroke-dasharray:none;stroke-opacity:1"
     d="M 324.99782,827.33608 C 301.43037,718.97989 123.33075,905.88409 93.295938,849.05203"
     id="path10302"
     sodipodi:nodetypes="cc" />
  <path
     style="fill:none;stroke:#000000;stroke-width:4;stroke-linecap:butt;stroke-linejoin:miter;stroke-miterlimit:4;stroke-dasharray:none;stroke-opacity:1"
     d="M 980.77474,838.30542 553.64049,635.61383 167.48286,962.05168"
     id="path11968"
     sodipodi:insensitive="true"
     inkscape:label="x-prime-y-prime-axes" />
  <text
     xml:space="preserve"
     style="font-style:normal;font-weight:normal;font-size:40px;line-height:1.25;font-family:sans-serif;fill:#000000;fill-opacity:1;stroke:none"
     x="37.953709"
     y="653.95593"
     id="text15821"
     class="math"
     renderscale="2"
     inkscape:label="X"><tspan
       sodipodi:role="line"
       id="tspan15819"
       x="37.953709"
       y="653.95593">X</tspan></text>
  <text
     xml:space="preserve"
     style="font-style:normal;font-weight:normal;font-size:40px;line-height:1.25;font-family:sans-serif;fill:#000000;fill-opacity:1;stroke:none"
     x="635.61823"
     y="1005.1259"
     id="text16617"
     class="math"
     renderscale="2"
     inkscape:label="Y"><tspan
       sodipodi:role="line"
       id="tspan16615"
       x="635.61823"
       y="1005.1259">Y</tspan></text>
  <path
     style="fill:none;stroke:#000000;stroke-width:4;stroke-linecap:butt;stroke-linejoin:miter;stroke-miterlimit:4;stroke-dasharray:none;stroke-opacity:1"
     d="m 332.60795,635.67065 c -2.11445,63.9093 41.99147,88.20115 96.05482,103.95806"
     id="path17649"
     sodipodi:nodetypes="cc" />
  <text
     xml:space="preserve"
     style="font-style:normal;font-weight:normal;font-size:40px;line-height:1.25;font-family:sans-serif;fill:#000000;fill-opacity:1;stroke:none"
     x="279.71701"
     y="690.99335"
     id="text18106"
     renderscale="2"
     class="math"
     inkscape:label="theta_G"
     sodipodi:insensitive="true"><tspan
       sodipodi:role="line"
       id="tspan18104"
       x="279.71701"
       y="690.99335">\theta_G</tspan></text>
</svg>
