<?xml version="1.0" encoding="utf-8"?>
<svg xmlns="http://www.w3.org/2000/svg" xmlns:xlink="http://www.w3.org/1999/xlink" width="250" height="500" viewBox="0 0 250 500">
<path fill="none" stroke-width="2" stroke-linecap="butt" stroke-linejoin="miter" stroke="rgb(0%, 0%, 0%)" stroke-opacity="1" stroke-dasharray="4 4" stroke-miterlimit="10" d="M 250 250 L 0 250 "/>
<path fill-rule="nonzero" fill="rgb(0%, 0%, 0%)" fill-opacity="1" d="M 131 250 C 131 253.3125 128.3125 256 125 256 C 121.6875 256 119 253.3125 119 250 C 119 246.6875 121.6875 244 125 244 C 128.3125 244 131 246.6875 131 250 Z M 131 250 "/>
<path fill="none" stroke-width="2" stroke-linecap="butt" stroke-linejoin="miter" stroke="rgb(55.294118%, 62.745098%, 79.607843%)" stroke-opacity="1" stroke-miterlimit="10" d="M 25 14.066406 L 32.125 18.832031 L 39.101562 23.601562 L 45.9375 28.367188 L 52.625 33.132812 L 59.167969 37.898438 L 65.566406 42.664062 L 71.816406 47.433594 L 77.921875 52.199219 L 83.882812 56.964844 L 89.699219 61.730469 L 95.371094 66.496094 L 100.894531 71.261719 L 106.273438 76.03125 L 111.507812 80.796875 L 116.597656 85.5625 L 121.542969 90.328125 L 126.339844 95.09375 L 130.992188 99.859375 L 135.5 104.628906 L 139.859375 109.394531 L 144.078125 114.160156 L 148.148438 118.925781 L 152.074219 123.691406 L 155.855469 128.460938 L 159.488281 133.226562 L 162.976562 137.992188 L 166.324219 142.757812 L 169.519531 147.523438 L 172.574219 152.289062 L 175.480469 157.058594 L 178.246094 161.824219 L 180.863281 166.589844 L 183.332031 171.355469 L 185.660156 176.121094 L 187.839844 180.886719 L 189.875 185.65625 L 191.765625 190.421875 L 193.511719 195.1875 L 195.109375 199.953125 L 196.5625 204.71875 L 197.871094 209.488281 L 199.035156 214.253906 L 200.054688 219.019531 L 200.925781 223.785156 L 201.652344 228.550781 L 202.234375 233.316406 L 202.671875 238.085938 L 202.960938 242.851562 L 203.105469 247.617188 L 203.105469 252.382812 L 202.960938 257.148438 L 202.671875 261.914062 L 202.234375 266.683594 L 201.652344 271.449219 L 200.925781 276.214844 L 200.054688 280.980469 L 199.035156 285.746094 L 197.871094 290.511719 L 196.5625 295.28125 L 195.109375 300.046875 L 193.511719 304.8125 L 191.765625 309.578125 L 189.875 314.34375 L 187.839844 319.113281 L 185.660156 323.878906 L 183.332031 328.644531 L 180.863281 333.410156 L 178.246094 338.175781 L 175.480469 342.941406 L 172.574219 347.710938 L 169.519531 352.476562 L 166.324219 357.242188 L 162.976562 362.007812 L 159.488281 366.773438 L 155.855469 371.539062 L 152.074219 376.308594 L 148.148438 381.074219 L 144.078125 385.839844 L 139.859375 390.605469 L 135.5 395.371094 L 130.992188 400.140625 L 126.339844 404.90625 L 121.542969 409.671875 L 116.597656 414.4375 L 111.507812 419.203125 L 106.273438 423.96875 L 100.894531 428.738281 L 95.371094 433.503906 L 89.699219 438.269531 L 83.882812 443.035156 L 77.921875 447.800781 L 71.816406 452.566406 L 65.566406 457.335938 L 59.167969 462.101562 L 52.625 466.867188 L 45.9375 471.632812 L 39.101562 476.398438 L 32.125 481.167969 L 25 485.933594 "/>
<path fill-rule="nonzero" fill="rgb(0%, 0%, 0%)" fill-opacity="1" d="M 199 199.609375 C 199 201.820312 197.210938 203.609375 195 203.609375 C 192.789062 203.609375 191 201.820312 191 199.609375 C 191 197.402344 192.789062 195.609375 195 195.609375 C 197.210938 195.609375 199 197.402344 199 199.609375 Z M 199 199.609375 "/>
<path fill="none" stroke-width="2" stroke-linecap="butt" stroke-linejoin="miter" stroke="rgb(0%, 0%, 0%)" stroke-opacity="1" stroke-miterlimit="10" d="M 125 250 L 187.5 205.007812 "/>
<path fill-rule="nonzero" fill="rgb(0%, 0%, 0%)" fill-opacity="1" d="M 185.265625 201.902344 L 195 199.609375 L 189.738281 208.113281 "/>
<path fill="none" stroke-width="2" stroke-linecap="butt" stroke-linejoin="miter" stroke="rgb(0%, 0%, 0%)" stroke-opacity="1" stroke-miterlimit="10" d="M 151.042969 250 C 151.042969 247.660156 150.726562 245.332031 150.105469 243.074219 "/>
<path fill-rule="nonzero" fill="rgb(0%, 0%, 0%)" fill-opacity="1" d="M 146.671875 244.769531 L 146.136719 234.785156 L 153.578125 241.464844 "/>
<path fill="none" stroke-width="2" stroke-linecap="butt" stroke-linejoin="miter" stroke="rgb(0%, 0%, 0%)" stroke-opacity="1" stroke-miterlimit="10" d="M 195 199.609375 L 211.210938 187.941406 "/>
<path fill-rule="nonzero" fill="rgb(0%, 0%, 0%)" fill-opacity="1" d="M 208.972656 184.835938 L 218.707031 182.546875 L 213.445312 191.046875 "/>
<path fill="none" stroke-width="2" stroke-linecap="butt" stroke-linejoin="miter" stroke="rgb(0%, 0%, 0%)" stroke-opacity="1" stroke-miterlimit="10" d="M 195 199.609375 L 147.480469 133.59375 "/>
<path fill-rule="nonzero" fill="rgb(0%, 0%, 0%)" fill-opacity="1" d="M 144.371094 135.832031 L 142.082031 126.097656 L 150.585938 131.359375 "/>
<path fill="none" stroke-width="2" stroke-linecap="butt" stroke-linejoin="miter" stroke="rgb(0%, 0%, 0%)" stroke-opacity="1" stroke-miterlimit="10" d="M 195 199.609375 L 168.625 117.824219 "/>
<path fill-rule="nonzero" fill="rgb(0%, 0%, 0%)" fill-opacity="1" d="M 164.980469 119 L 165.789062 109.03125 L 172.265625 116.648438 "/>
<path fill="none" stroke-width="1" stroke-linecap="butt" stroke-linejoin="miter" stroke="rgb(0%, 0%, 0%)" stroke-opacity="1" stroke-miterlimit="10" d="M 125 406.25 L 125 93.75 "/>
<path fill="none" stroke-width="1" stroke-linecap="butt" stroke-linejoin="miter" stroke="rgb(0%, 0%, 0%)" stroke-opacity="1" stroke-miterlimit="10" d="M 100 93.75 L 100 406.25 "/>
<path fill="none" stroke-width="1" stroke-linecap="butt" stroke-linejoin="miter" stroke="rgb(0%, 0%, 0%)" stroke-opacity="1" stroke-miterlimit="10" d="M 108.332031 93.75 L 91.667969 93.75 "/>
<path fill="none" stroke-width="1" stroke-linecap="butt" stroke-linejoin="miter" stroke="rgb(0%, 0%, 0%)" stroke-opacity="1" stroke-miterlimit="10" d="M 108.332031 406.25 L 91.667969 406.25 "/>
<path fill="none" stroke-width="1" stroke-linecap="butt" stroke-linejoin="miter" stroke="rgb(0%, 0%, 0%)" stroke-opacity="1" stroke-miterlimit="10" d="M 108.332031 250 L 91.667969 250 "/>
<path fill="none" stroke-width="1" stroke-linecap="butt" stroke-linejoin="miter" stroke="rgb(0%, 0%, 0%)" stroke-opacity="1" stroke-miterlimit="10" d="M 125 275 L 203.125 275 "/>
<path fill="none" stroke-width="1" stroke-linecap="butt" stroke-linejoin="miter" stroke="rgb(0%, 0%, 0%)" stroke-opacity="1" stroke-miterlimit="10" d="M 125 266.667969 L 125 283.332031 "/>
<path fill="none" stroke-width="1" stroke-linecap="butt" stroke-linejoin="miter" stroke="rgb(0%, 0%, 0%)" stroke-opacity="1" stroke-miterlimit="10" d="M 203.125 266.667969 L 203.125 283.332031 "/>
<path fill-rule="nonzero" fill="rgb(98.823529%, 55.294118%, 38.431373%)" fill-opacity="1" d="M 128 93.75 C 128 95.40625 126.65625 96.75 125 96.75 C 123.34375 96.75 122 95.40625 122 93.75 C 122 92.09375 123.34375 90.75 125 90.75 C 126.65625 90.75 128 92.09375 128 93.75 Z M 128 93.75 "/>
<path fill-rule="nonzero" fill="rgb(98.823529%, 55.294118%, 38.431373%)" fill-opacity="1" d="M 128 406.25 C 128 407.90625 126.65625 409.25 125 409.25 C 123.34375 409.25 122 407.90625 122 406.25 C 122 404.59375 123.34375 403.25 125 403.25 C 126.65625 403.25 128 404.59375 128 406.25 Z M 128 406.25 "/>
<path fill-rule="nonzero" fill="rgb(98.823529%, 55.294118%, 38.431373%)" fill-opacity="1" d="M 206.125 250 C 206.125 251.65625 204.78125 253 203.125 253 C 201.46875 253 200.125 251.65625 200.125 250 C 200.125 248.34375 201.46875 247 203.125 247 C 204.78125 247 206.125 248.34375 206.125 250 Z M 206.125 250 "/>
<text class="math" x="118.0pt" y="154.84435562925364pt">\boldsymbol{r}</text><text class="math" x="128.0pt" y="79.84435562925363pt">\boldsymbol{v}</text><text class="math" x="165.0pt" y="134.61088907313408pt">v_r</text><text class="math" x="118.0pt" y="129.84435562925364pt">v_{\perp}</text><text class="math" x="77.0pt" y="195.0pt">m_1</text><text class="math" x="147.0pt" y="154.61088907313408pt">m_2</text><text class="math" x="119.5pt" y="177.16925571216396pt">\nu</text><text class="math" x="60.0pt" y="121.875pt">p</text><text class="math" x="60.0pt" y="248.125pt">p</text><text class="math" x="109.0625pt" y="210.0pt">p/2</text></svg>
