<?xml version="1.0" encoding="utf-8"?>
<svg xmlns="http://www.w3.org/2000/svg" xmlns:xlink="http://www.w3.org/1999/xlink" width="500" height="300" viewBox="0 0 500 300" id="ellipse-only">
<path fill="none" stroke-width="2" stroke-linecap="butt" stroke-linejoin="miter" stroke="rgb(0%, 0%, 0%)" stroke-opacity="1" stroke-miterlimit="10" d="M 0 300 L 0 0 L 500 0 L 500 300 Z M 0 300 "/>
<path fill="none" stroke-width="1" stroke-linecap="butt" stroke-linejoin="miter" stroke="rgb(0%, 0%, 0%)" stroke-opacity="1" stroke-dasharray="4 4" stroke-miterlimit="10" d="M 500 243.75 L 0 243.75 "/>
<path fill-rule="nonzero" fill="rgb(100%, 89.411765%, 88.235294%)" fill-opacity="0.8" d="M 183.699219 64.675781 L 192.707031 66.394531 L 201.621094 68.292969 L 210.4375 70.363281 L 219.144531 72.605469 L 227.734375 75.015625 L 236.195312 77.59375 L 244.527344 80.335938 L 252.710938 83.238281 L 260.746094 86.300781 L 268.625 89.515625 L 276.335938 92.882812 L 283.871094 96.402344 L 291.226562 100.0625 L 298.394531 103.867188 L 305.363281 107.8125 L 312.132812 111.886719 L 318.691406 116.09375 L 325.035156 120.429688 L 331.152344 124.882812 L 337.046875 129.453125 L 342.707031 134.140625 L 348.125 138.933594 L 353.296875 143.828125 L 358.222656 148.824219 L 362.890625 153.914062 L 367.300781 159.089844 L 371.449219 164.351562 L 375.328125 169.691406 L 378.933594 175.101562 L 382.265625 180.582031 L 385.316406 186.125 L 388.089844 191.722656 L 390.574219 197.375 L 392.773438 203.070312 L 394.6875 208.808594 L 396.304688 214.578125 L 397.632812 220.378906 L 398.667969 226.199219 L 399.40625 232.039062 L 399.851562 237.890625 L 400 243.75 L 335 243.75 L 183.699219 64.675781 "/>
<path fill="none" stroke-width="2" stroke-linecap="butt" stroke-linejoin="miter" stroke="rgb(55.294118%, 62.745098%, 79.607843%)" stroke-opacity="1" stroke-miterlimit="10" d="M -200 243.75 L -199.851562 237.890625 L -199.40625 232.039062 L -198.667969 226.199219 L -197.632812 220.378906 L -196.304688 214.578125 L -194.6875 208.808594 L -192.773438 203.070312 L -190.574219 197.375 L -188.089844 191.722656 L -185.316406 186.125 L -182.265625 180.582031 L -178.933594 175.101562 L -175.328125 169.691406 L -171.449219 164.351562 L -167.300781 159.089844 L -162.890625 153.914062 L -158.222656 148.824219 L -153.296875 143.828125 L -148.125 138.933594 L -142.707031 134.140625 L -137.046875 129.453125 L -131.152344 124.882812 L -125.035156 120.429688 L -118.691406 116.09375 L -112.132812 111.886719 L -105.363281 107.8125 L -98.394531 103.867188 L -91.226562 100.0625 L -83.871094 96.402344 L -76.335938 92.882812 L -68.625 89.515625 L -60.746094 86.300781 L -52.710938 83.238281 L -44.527344 80.335938 L -36.195312 77.59375 L -27.734375 75.015625 L -19.144531 72.605469 L -10.4375 70.363281 L -1.621094 68.292969 L 7.292969 66.394531 L 16.300781 64.675781 L 25.394531 63.128906 L 34.558594 61.761719 L 43.785156 60.574219 L 53.070312 59.566406 L 62.398438 58.738281 L 71.765625 58.097656 L 81.164062 57.636719 L 90.578125 57.363281 L 100 57.269531 L 109.421875 57.363281 L 118.835938 57.636719 L 128.234375 58.097656 L 137.601562 58.738281 L 146.929688 59.566406 L 156.214844 60.574219 L 165.441406 61.761719 L 174.605469 63.128906 L 183.699219 64.675781 L 192.707031 66.394531 L 201.621094 68.292969 L 210.4375 70.363281 L 219.144531 72.605469 L 227.734375 75.015625 L 236.195312 77.59375 L 244.527344 80.335938 L 252.710938 83.238281 L 260.746094 86.300781 L 268.625 89.515625 L 276.335938 92.882812 L 283.871094 96.402344 L 291.226562 100.0625 L 298.394531 103.867188 L 305.363281 107.8125 L 312.132812 111.886719 L 318.691406 116.09375 L 325.035156 120.429688 L 331.152344 124.882812 L 337.046875 129.453125 L 342.707031 134.140625 L 348.125 138.933594 L 353.296875 143.828125 L 358.222656 148.824219 L 362.890625 153.914062 L 367.300781 159.089844 L 371.449219 164.351562 L 375.328125 169.691406 L 378.933594 175.101562 L 382.265625 180.582031 L 385.316406 186.125 L 388.089844 191.722656 L 390.574219 197.375 L 392.773438 203.070312 L 394.6875 208.808594 L 396.304688 214.578125 L 397.632812 220.378906 L 398.667969 226.199219 L 399.40625 232.039062 L 399.851562 237.890625 L 400 243.75 L 399.851562 249.609375 L 399.40625 255.460938 L 398.667969 261.300781 L 397.632812 267.121094 L 396.304688 272.921875 L 394.6875 278.691406 L 392.773438 284.429688 L 390.574219 290.125 L 388.089844 295.777344 L 385.316406 301.375 L 382.265625 306.917969 L 378.933594 312.398438 L 375.328125 317.808594 L 371.449219 323.148438 L 367.300781 328.410156 L 362.890625 333.585938 L 358.222656 338.675781 L 353.296875 343.671875 L 348.125 348.566406 L 342.707031 353.359375 L 337.046875 358.046875 L 331.152344 362.617188 L 325.035156 367.070312 L 318.691406 371.40625 L 312.132812 375.613281 L 305.363281 379.6875 L 298.394531 383.632812 L 291.226562 387.4375 L 283.871094 391.097656 L 276.335938 394.617188 L 268.625 397.984375 L 260.746094 401.199219 L 252.710938 404.261719 L 244.527344 407.164062 L 236.195312 409.90625 L 227.734375 412.484375 L 219.144531 414.894531 L 210.4375 417.136719 L 201.621094 419.207031 L 192.707031 421.105469 L 183.699219 422.824219 L 174.605469 424.371094 L 165.441406 425.738281 L 156.214844 426.925781 L 146.929688 427.933594 L 137.601562 428.761719 L 128.234375 429.402344 L 118.835938 429.863281 L 109.421875 430.136719 L 100 430.230469 L 90.578125 430.136719 L 81.164062 429.863281 L 71.765625 429.402344 L 62.398438 428.761719 L 53.070312 427.933594 L 43.785156 426.925781 L 34.558594 425.738281 L 25.394531 424.371094 L 16.300781 422.824219 L 7.292969 421.105469 L -1.621094 419.207031 L -10.4375 417.136719 L -19.144531 414.894531 L -27.734375 412.484375 L -36.195312 409.90625 L -44.527344 407.164062 L -52.710938 404.261719 L -60.746094 401.199219 L -68.625 397.984375 L -76.335938 394.617188 L -83.871094 391.097656 L -91.226562 387.4375 L -98.394531 383.632812 L -105.363281 379.6875 L -112.132812 375.613281 L -118.691406 371.40625 L -125.035156 367.070312 L -131.152344 362.617188 L -137.046875 358.046875 L -142.707031 353.359375 L -148.125 348.566406 L -153.296875 343.671875 L -158.222656 338.675781 L -162.890625 333.585938 L -167.300781 328.410156 L -171.449219 323.148438 L -175.328125 317.808594 L -178.933594 312.398438 L -182.265625 306.917969 L -185.316406 301.375 L -188.089844 295.777344 L -190.574219 290.125 L -192.773438 284.429688 L -194.6875 278.691406 L -196.304688 272.921875 L -197.632812 267.121094 L -198.667969 261.300781 L -199.40625 255.460938 L -199.851562 249.609375 "/>
<path fill="none" stroke-width="1" stroke-linecap="butt" stroke-linejoin="miter" stroke="rgb(0%, 0%, 0%)" stroke-opacity="1" stroke-miterlimit="10" d="M 335 243.75 L 183.699219 64.675781 "/>
<path fill="none" stroke-width="1" stroke-linecap="butt" stroke-linejoin="miter" stroke="rgb(0%, 0%, 0%)" stroke-opacity="1" stroke-miterlimit="10" d="M 395 243.75 C 395 222.058594 383.289062 202.054688 364.375 191.433594 C 345.460938 180.8125 322.285156 181.230469 303.765625 192.523438 "/>
<path fill-rule="nonzero" fill="rgb(0%, 0%, 0%)" fill-opacity="1" d="M 306.007812 195.621094 L 296.277344 197.917969 L 301.535156 189.410156 "/>
<path fill="none" stroke-width="1" stroke-linecap="butt" stroke-linejoin="miter" stroke="rgb(0%, 0%, 0%)" stroke-opacity="1" stroke-miterlimit="10" d="M 183.699219 243.75 L 183.699219 64.675781 "/>
<path fill-rule="nonzero" fill="rgb(80%, 80%, 80%)" fill-opacity="1" d="M 339 243.75 C 339 245.960938 337.210938 247.75 335 247.75 C 332.789062 247.75 331 245.960938 331 243.75 C 331 241.539062 332.789062 239.75 335 239.75 C 337.210938 239.75 339 241.539062 339 243.75 Z M 339 243.75 "/>
<path fill-rule="nonzero" fill="rgb(80%, 80%, 80%)" fill-opacity="1" d="M 187.699219 64.675781 C 187.699219 66.882812 185.90625 68.675781 183.699219 68.675781 C 181.488281 68.675781 179.699219 66.882812 179.699219 64.675781 C 179.699219 62.464844 181.488281 60.675781 183.699219 60.675781 C 185.90625 60.675781 187.699219 62.464844 187.699219 64.675781 Z M 187.699219 64.675781 "/>
<path fill-rule="nonzero" fill="rgb(80%, 80%, 80%)" fill-opacity="1" d="M 104 243.75 C 104 245.960938 102.210938 247.75 100 247.75 C 97.789062 247.75 96 245.960938 96 243.75 C 96 241.539062 97.789062 239.75 100 239.75 C 102.210938 239.75 104 241.539062 104 243.75 Z M 104 243.75 "/>
<path fill-rule="nonzero" fill="rgb(80%, 80%, 80%)" fill-opacity="1" d="M 404 243.75 C 404 245.960938 402.210938 247.75 400 247.75 C 397.789062 247.75 396 245.960938 396 243.75 C 396 241.539062 397.789062 239.75 400 239.75 C 402.210938 239.75 404 241.539062 404 243.75 Z M 404 243.75 "/>
<text class="math" x="77.0pt" y="187.0pt">O</text><text class="math" x="235.0pt" y="187.0pt">m_1</text><text class="math" x="143.69733181176886pt" y="35.92389381978879pt">B</text><text class="math" x="236.39273204000352pt" y="127.78530974682047pt">\nu</text><text class="math" x="300.0pt" y="187.0pt">P</text></svg>
