<?xml version="1.0" encoding="utf-8"?>
<svg xmlns="http://www.w3.org/2000/svg" xmlns:xlink="http://www.w3.org/1999/xlink" width="500" height="400" viewBox="0 0 500 400" id="circle-only">
<path fill="none" stroke-width="2" stroke-linecap="butt" stroke-linejoin="miter" stroke="rgb(0%, 0%, 0%)" stroke-opacity="1" stroke-miterlimit="10" d="M 0 400 L 0 0 L 500 0 L 500 400 Z M 0 400 "/>
<path fill="none" stroke-width="1" stroke-linecap="butt" stroke-linejoin="miter" stroke="rgb(0%, 0%, 0%)" stroke-opacity="1" stroke-dasharray="4 4" stroke-miterlimit="10" d="M 500 325 L 0 325 "/>
<path fill-rule="nonzero" fill="rgb(57.647059%, 43.921569%, 85.882353%)" fill-opacity="0.8" d="M 100 325 L 400 325 C 400 191.550781 311.847656 74.144531 183.699219 36.910156 L 100 325 "/>
<path fill-rule="nonzero" fill="rgb(100%, 100%, 100%)" fill-opacity="0.4" d="M 335 325 L 400 325 C 400 191.550781 311.847656 74.144531 183.699219 36.910156 L 335 325 "/>
<path fill="none" stroke-width="2" stroke-linecap="butt" stroke-linejoin="miter" stroke="rgb(85.490196%, 64.705882%, 12.54902%)" stroke-opacity="1" stroke-miterlimit="10" d="M 400 325 C 400 490.683594 265.683594 625 100 625 C -65.683594 625 -200 490.683594 -200 325 C -200 159.316406 -65.683594 25 100 25 C 265.683594 25 400 159.316406 400 325 Z M 400 325 "/>
<path fill="none" stroke-width="1" stroke-linecap="butt" stroke-linejoin="miter" stroke="rgb(0%, 0%, 0%)" stroke-opacity="1" stroke-miterlimit="10" d="M 100 325 L 183.699219 36.910156 "/>
<path fill="none" stroke-width="1" stroke-linecap="butt" stroke-linejoin="miter" stroke="rgb(0%, 0%, 0%)" stroke-opacity="1" stroke-miterlimit="10" d="M 335 325 L 183.699219 36.910156 "/>
<path fill="none" stroke-width="1" stroke-linecap="butt" stroke-linejoin="miter" stroke="rgb(0%, 0%, 0%)" stroke-opacity="1" stroke-miterlimit="10" d="M 160 325 C 160 301.691406 146.5 280.492188 125.378906 270.632812 "/>
<path fill-rule="nonzero" fill="rgb(0%, 0%, 0%)" fill-opacity="1" d="M 124.039062 274.214844 L 116.738281 267.382812 L 126.734375 267.054688 "/>
<path fill-rule="nonzero" fill="rgb(80%, 80%, 80%)" fill-opacity="1" d="M 339 325 C 339 327.210938 337.210938 329 335 329 C 332.789062 329 331 327.210938 331 325 C 331 322.789062 332.789062 321 335 321 C 337.210938 321 339 322.789062 339 325 Z M 339 325 "/>
<path fill-rule="nonzero" fill="rgb(80%, 80%, 80%)" fill-opacity="1" d="M 187.699219 36.910156 C 187.699219 39.121094 185.90625 40.910156 183.699219 40.910156 C 181.488281 40.910156 179.699219 39.121094 179.699219 36.910156 C 179.699219 34.703125 181.488281 32.910156 183.699219 32.910156 C 185.90625 32.910156 187.699219 34.703125 187.699219 36.910156 Z M 187.699219 36.910156 "/>
<path fill-rule="nonzero" fill="rgb(80%, 80%, 80%)" fill-opacity="1" d="M 104 325 C 104 327.210938 102.210938 329 100 329 C 97.789062 329 96 327.210938 96 325 C 96 322.789062 97.789062 321 100 321 C 102.210938 321 104 322.789062 104 325 Z M 104 325 "/>
<path fill-rule="nonzero" fill="rgb(80%, 80%, 80%)" fill-opacity="1" d="M 404 325 C 404 327.210938 402.210938 329 400 329 C 397.789062 329 396 327.210938 396 325 C 396 322.789062 397.789062 321 400 321 C 402.210938 321 404 322.789062 404 325 Z M 404 325 "/>
<text class="math" x="77.0pt" y="250.0pt">O</text><text class="math" x="235.0pt" y="250.0pt">m_1</text><text class="math" x="120.0pt" y="215.0pt">E</text><text class="math" x="140.0pt" y="10.0pt">Q</text><text class="math" x="300.0pt" y="250.0pt">P</text><text class="math" x="210.0pt" y="130.0pt">O\text{-}P\text{-}Q</text><text class="math" x="125.0pt" y="140.0pt">O\text{-}m_1\text{-}Q</text></svg>
