<?xml version="1.0" encoding="utf-8"?>
<svg xmlns="http://www.w3.org/2000/svg" xmlns:xlink="http://www.w3.org/1999/xlink" width="425pt" height="325pt" viewBox="0 0 425 325" version="1.1">
<g id="surface1">
<path style="fill:none;stroke-width:1.333333;stroke-linecap:butt;stroke-linejoin:miter;stroke:rgb(0%,0%,0%);stroke-opacity:1;stroke-miterlimit:10;" d="M 200 225 L 43.257812 314.566406 "/>
<path style=" stroke:none;fill-rule:nonzero;fill:rgb(0%,0%,0%);fill-opacity:1;" d="M 45.15625 317.890625 L 35.238281 319.148438 L 41.359375 311.242188 "/>
<path style="fill:none;stroke-width:1.333333;stroke-linecap:butt;stroke-linejoin:miter;stroke:rgb(0%,0%,0%);stroke-opacity:1;stroke-miterlimit:10;" d="M 200 225 L 402.765625 253.964844 "/>
<path style=" stroke:none;fill-rule:nonzero;fill:rgb(0%,0%,0%);fill-opacity:1;" d="M 403.304688 250.179688 L 411.910156 255.273438 L 402.222656 257.753906 "/>
<path style="fill:none;stroke-width:1.333333;stroke-linecap:butt;stroke-linejoin:miter;stroke:rgb(0%,0%,0%);stroke-opacity:1;stroke-miterlimit:10;" d="M 200 225 L 200 16.675781 "/>
<path style=" stroke:none;fill-rule:nonzero;fill:rgb(0%,0%,0%);fill-opacity:1;" d="M 196.171875 16.675781 L 200 7.4375 L 203.828125 16.675781 "/>
<path style="fill:none;stroke-width:1.333333;stroke-linecap:butt;stroke-linejoin:miter;stroke:rgb(0%,0%,0%);stroke-opacity:1;stroke-miterlimit:10;" d="M 200 225 L 174.179688 239.753906 "/>
<path style=" stroke:none;fill-rule:nonzero;fill:rgb(0%,0%,0%);fill-opacity:1;" d="M 176.078125 243.078125 L 166.15625 244.339844 L 172.28125 236.433594 "/>
<path style="fill:none;stroke-width:1.333333;stroke-linecap:butt;stroke-linejoin:miter;stroke:rgb(0%,0%,0%);stroke-opacity:1;stroke-miterlimit:10;" d="M 200 225 L 249.097656 232.015625 "/>
<path style=" stroke:none;fill-rule:nonzero;fill:rgb(0%,0%,0%);fill-opacity:1;" d="M 249.636719 228.226562 L 258.242188 233.320312 L 248.554688 235.800781 "/>
<path style="fill:none;stroke-width:1.333333;stroke-linecap:butt;stroke-linejoin:miter;stroke:rgb(0%,0%,0%);stroke-opacity:1;stroke-miterlimit:10;" d="M 200 225 L 200 174.609375 "/>
<path style=" stroke:none;fill-rule:nonzero;fill:rgb(0%,0%,0%);fill-opacity:1;" d="M 196.171875 174.609375 L 200 165.371094 L 203.828125 174.609375 "/>
<path style=" stroke:none;fill-rule:nonzero;fill:rgb(0%,0%,0%);fill-opacity:1;" d="M 308.851562 165.371094 C 308.851562 171.371094 299.851562 171.371094 299.851562 165.371094 C 299.851562 159.371094 308.851562 159.371094 308.851562 165.371094 "/>
<path style="fill:none;stroke-width:2;stroke-linecap:butt;stroke-linejoin:miter;stroke:rgb(0%,0%,0%);stroke-opacity:1;stroke-miterlimit:10;" d="M 200 225 L 292.421875 172.1875 "/>
<path style=" stroke:none;fill-rule:nonzero;fill:rgb(0%,0%,0%);fill-opacity:1;" d="M 290.523438 168.867188 L 300.441406 167.605469 L 294.320312 175.511719 "/>
<path style=" stroke:none;fill-rule:nonzero;fill:rgb(0%,0%,0%);fill-opacity:1;" d="M 35.996094 98.96875 C 35.996094 102.695312 32.972656 105.71875 29.246094 105.71875 C 25.519531 105.71875 22.496094 102.695312 22.496094 98.96875 C 22.496094 95.238281 25.519531 92.21875 29.246094 92.21875 C 32.972656 92.21875 35.996094 95.238281 35.996094 98.96875 "/>
<path style="fill:none;stroke-width:2;stroke-linecap:butt;stroke-linejoin:miter;stroke:rgb(0%,0%,0%);stroke-opacity:1;stroke-miterlimit:10;" d="M 200 225 L 42.109375 108.460938 "/>
<path style=" stroke:none;fill-rule:nonzero;fill:rgb(0%,0%,0%);fill-opacity:1;" d="M 39.835938 111.542969 L 34.675781 102.976562 L 44.382812 105.382812 "/>
<path style="fill:none;stroke-width:2;stroke-linecap:butt;stroke-linejoin:miter;stroke:rgb(0%,0%,0%);stroke-opacity:1;stroke-miterlimit:10;" d="M 304.335938 165.367188 L 44.773438 102.714844 "/>
<path style=" stroke:none;fill-rule:nonzero;fill:rgb(0%,0%,0%);fill-opacity:1;" d="M 43.875 106.433594 L 35.792969 100.546875 L 45.671875 98.996094 "/>
<path style="fill:none;stroke-width:2;stroke-linecap:butt;stroke-linejoin:miter;stroke:rgb(0%,0%,0%);stroke-opacity:1;stroke-miterlimit:10;" d="M 178.777344 133.613281 C 178.777344 136.925781 176.09375 139.613281 172.777344 139.613281 C 169.464844 139.613281 166.777344 136.925781 166.777344 133.613281 C 166.777344 130.300781 169.464844 127.613281 172.777344 127.613281 C 176.09375 127.613281 178.777344 130.300781 178.777344 133.613281 "/>
<path style=" stroke:none;fill-rule:nonzero;fill:rgb(0%,0%,0%);fill-opacity:1;" d="M 172.777344 133.613281 L 172.777344 139.613281 C 169.464844 139.613281 166.777344 136.925781 166.777344 133.613281 Z M 172.777344 133.613281 "/>
<path style=" stroke:none;fill-rule:nonzero;fill:rgb(0%,0%,0%);fill-opacity:1;" d="M 172.777344 133.613281 L 172.777344 127.613281 C 176.09375 127.613281 178.777344 130.300781 178.777344 133.613281 Z M 172.777344 133.613281 "/>
<path style=" stroke:none;fill-rule:nonzero;fill:rgb(50.196078%,50.196078%,50.196078%);fill-opacity:1;" d="M 172.777344 133.613281 L 178.777344 133.613281 C 178.777344 136.925781 176.09375 139.613281 172.777344 139.613281 Z M 172.777344 133.613281 "/>
<path style=" stroke:none;fill-rule:nonzero;fill:rgb(50.196078%,50.196078%,50.196078%);fill-opacity:1;" d="M 172.777344 133.613281 L 166.777344 133.613281 C 166.777344 130.300781 169.464844 127.613281 172.777344 127.613281 Z M 172.777344 133.613281 "/>
</g>
<text class="math" x="234.3498389499902pt" y="125.3715206000056pt">m_1</text><text class="math" x="-0.7542819181657876pt" y="73.96707763183002pt">m_2</text><text class="math" x="202.17491947499508pt" y="145.1857603000028pt">\boldsymbol{R}_1</text><text class="math" x="59.62285904091709pt" y="111.98353881591501pt">\boldsymbol{R}_2</text><text class="math" x="171.8186026895434pt" y="95.45018770955295pt">\boldsymbol{r}</text><text class="math" x="117.77830288261126pt" y="83.61287396305201pt">\mathrm{COG}</text><text class="math" x="35.237096394752285pt" y="214.1502306315701pt">X</text><text class="math" x="286.9104421753647pt" y="175.27292031076638pt">Y</text><text class="math" x="155.0pt" y="7.436629216236668pt">Z</text><text class="math" x="133.07840449459619pt" y="184.66948314594504pt">\boldsymbol{\hat{I}}</text><text class="math" x="179.12088528836935pt" y="179.16012646976705pt">\boldsymbol{\hat{J}}</text><text class="math" x="150.0pt" y="133.2600644200039pt">\boldsymbol{\hat{K}}</text></svg>
