<?xml version="1.0" encoding="UTF-8" standalone="no"?>
<!-- Creator: CorelDRAW -->
<svg id="svg2985" xmlns:rdf="http://www.w3.org/1999/02/22-rdf-syntax-ns#" xmlns:xlink="http://www.w3.org/1999/xlink" style="image-rendering:optimizeQuality;text-rendering:geometricPrecision;shape-rendering:geometricPrecision;stroke:none;fill:none;font-family:sans-serif;" xmlns="http://www.w3.org/2000/svg" fill-rule="evenodd" xml:space="preserve" height="8in" width="8in" version="1.1" clip-rule="evenodd" xmlns:cc="http://creativecommons.org/ns#" xmlns:dc="http://purl.org/dc/elements/1.1/" viewBox="0 0 800 800"><metadata id="metadata3148"><rdf:RDF><cc:Work rdf:about=""><dc:format>image/svg+xml</dc:format><dc:type rdf:resource="http://purl.org/dc/dcmitype/StillImage"/><dc:title/></cc:Work></rdf:RDF></metadata>
 <defs>
  <style type="text/css">
    .fil6 {fill:#669999}
    .fil7 {fill:black}
    .fnt1 {font-size:125%}
    .fnt0 {font-size:180%}
  </style>
  <!-- height about 1.65, width 0.5, 0,0 is centered -->
  <symbol id="rocket" transform="translate(-6.25,-20.625)">
    <path d="M 1.25,0 q 5,15 10,0 z" style="fill:#8E3032"/>
    <path d="M 0,6.25 l 0,25 q 6.25,18.75 12.5,0 l 0,-25 z" style="fill:#4D4D4D"/>
  </symbol>
  <symbol id="exhaust" transform="translate(-6.25,-40.5)">
    <path d="M 6.25,0 l 5,20 -10,0 z" style="fill:blue"/>
    <path d="M 6.25,10 l 2.5,10 -5,0 z" style="fill:#00CCFF"/>
  </symbol>
  <marker id="head" markerWidth="10" markerHeight="10" refX="1" refY="2.5" orient="auto">
   <path d="M 0,0 a 5,5 0 0 1 0,5 l 7,-2.5 z" style="fill:red"/>
  </marker>
 </defs>
 <g id="Layer_x0020_1">
  <g style="stroke-width:2">
   <ellipse id="transfer-o" rx="237.5" ry="209" style="stroke:#666666" cy="400" cx="512.5"/>
   <ellipse id="initial-o" rx="125" ry="125" style="stroke:#669999" cy="400" cx="400"/>
   <ellipse id="final-o" rx="350" ry="350" style="stroke:black" cy="400" cx="400"/>
  </g>
  <path id="arrow" style="stroke:red;stroke-width:4" d="M275,400 a 237.5,209 0 0 1 475,0 a 350,350 0 0 1 -216,323" marker-end="url(#head)"/>
  <g id="atperi" transform="rotate(-180,275,400)">
   <use xlink:href="#exhaust" x="275" y="400"/>
   <use xlink:href="#rocket" x="275" y="400"/>
  </g>
  <g id="atapo">
   <use xlink:href="#exhaust" x="750" y="400"/>
   <use xlink:href="#rocket" x="750" y="400"/>
  </g>
  <use id="transfer-r" xlink:href="#rocket" x="355.5" y="243" transform="rotate(-130,355.5,243)"/>
  <use id="initial-r" xlink:href="#rocket" x="400" y="525" transform="rotate(90,400,525)"/>
  <use id="final-r" xlink:href="#rocket" x="647" y="647" transform="rotate(45,647,647)"/>
  <text y="300" x="500" class="fnt0" style="fill:#669999">Initial Orbit</text>
  <text y="400" x="260" class="fil7 fnt1" text-anchor="end">1st Burn</text>
  <text y="400" x="740" class="fil7 fnt1" text-anchor="end">2nd Burn</text>
  <text y="640" x="450" class="fnt0" style="fill:#666666">Transfer Orbit</text>
  <text y="500" x="70" class="fil7 fnt0">Final Orbit</text>
  <g id="g11142">
   <ellipse cx="400" cy="400" rx="100" ry="100" style="fill:black"/>
   <g id="g8215" transform="scale(110) translate(-1.15,-0.5)" style="fill:#1C5739">
    <path id="path4208" d="M4.6347,3.453c-0.018,0-0.04-0-0.07,0.032-0.018,0.023-0.014,0.021-0.026,0.037-0.012,0.016-0.015,0.016-0.024,0.026-0.009,0.011-0.008,0.003-0.011,0.016-0.003,0.013-0.005,0.029-0,0.037,0.007,0.011,0.027-0.013,0.04-0.023,0.013-0.01,0.003-0.008,0.011-0.018,0.011-0.013,0.028-0.009,0.043-0.021,0.015-0.012,0.014-0.016,0.018-0.026,0.004-0.011-0.006-0.007-0-0.016,0.006-0.009,0.023-0.016,0.023-0.02,0-0.002-0.003-0.025-0.007-0.025z"/>
    <path id="path7165" d="M 4.911,3.379 c -0.068,-0.006 -0.106,0.048 -0.151,0.069 0.02,0.067 -0.101,0.043 -0.102,0.108 -0.001,0.049 0.036,0.1 -0.012,0.137 -0.038,0.054 -0.084,0.087 -0.124,0.14 -0.011,0.036 -0.092,0.119 -0.042,0.135 0.05,-0.035 0.107,-0.054 0.131,0.011 0.055,0.036 0.084,0.092 0.107,0.151 0.022,0.021473 0.084914,0.119297 0.02875,0.10725 -0.035003,-0.042583 -0.061078,-0.083257 -0.086,-0.13 C 4.611244,4.0718088 4.609581,4.0011719 4.5737,3.9665 4.5292,3.9927614 4.4717451,4.0132716 4.4457,4.0595 4.3970153,4.0825527 4.3705594,4.1367716 4.365075,4.18825 4.382276,4.211762 4.4168157,4.210888 4.4267,4.2405 4.457668,4.1591268 4.5049019,4.2342823 4.5412,4.264875 4.5369151,4.3489838 4.4987212,4.2508985 4.4597,4.2485 4.412744,4.2698823 4.4011744,4.2319534 4.3507,4.2425 4.303072,4.2840297 4.2710722,4.2361814 4.2388471,4.2006471 4.2039277,4.157808 4.1978222,4.0958227 4.1717,4.0465 c -0.01289,-0.030181 -0.026386,-0.00933 -0.04175,-0.03575 -0.00658,0.046234 0.027911,0.095211 0.01675,0.14775 -0.023222,0.041902 0.00565,0.09543 -0.019,0.133 -0.018666,-0.00202 -0.023504,-0.057304 -0.038252,-0.039163 0.040818,0.2631893 0.2195348,0.5069412 0.4724475,0.6009054 0.034637,0.00443 0.1390175,0.07087 0.1050189,0.00276 0.020792,-0.012774 0.094314,-0.016437 0.1247853,-0.055503 0.067084,-0.010423 -0.03063,0.032492 0.03,0.037 0.065047,0.027742 0.1395733,-0.00654 0.189,-0.047 0.049506,0.012575 0.078572,-0.079402 0.015,-0.044 -0.024315,-0.021844 0.049119,-0.069312 -0.004,-0.041 -0.048405,0.00741 -0.072986,0.041942 -0.068,0.078 -0.020472,0.012882 -0.083716,0.046077 -0.037,0.006 0.048296,-0.049521 -0.095341,-0.02229 -0.02,-0.04 0.036127,-0.029851 0.06891,-0.076704 0.122,-0.054 0.038805,-0.02063 0.033501,0.019619 0.017875,0.0375 0.030012,-0.026049 0.066136,-0.067268 0.116,-0.06975 3.835e-4,0.031549 -0.017258,0.067985 -0.013125,0.08925 0.03923,-0.017769 0.070627,-0.046333 0.10425,-0.08 -0.024453,-0.00404 -0.088633,0.060661 -0.045,0.005 0.038766,-0.035659 0.015183,-0.023644 -0.024,-0.026 0.00306,-0.021032 0.088418,-0.013756 0.05,-0.068 0.00652,-0.067761 0.095288,0.01117 0.1095,-0.062 0.043131,-0.035834 0.018055,-0.1056469 -0.0335,-0.08 -0.036185,0.03496 -0.078741,0.063812 -0.11325,0.1 -0.03997,-0.00939 -0.078847,0.02857 -0.09075,-0.03325 -0.034715,-0.016853 -0.069509,-0.072954 -0.00438,-0.0625 -0.00977,-0.05391 -0.071551,0.018652 -0.065875,0.034125 -0.05455,-0.021287 0.1032953,0.072957 0.037,0.079125 -0.052766,-0.029522 -0.07094,-0.087861 -0.10075,-0.1275 -0.045621,-0.00583 0.00159,0.065725 -0.062,0.05 -0.044054,0.011592 -0.047935,-0.011167 -0.00425,-0.01675 0.00469,-0.03878 -0.041778,-0.083331 -0.08475,-0.05025 -0.021535,-0.028865 -0.070829,0.032344 -0.066,-0.034 -0.00741,-0.056002 0.045554,-0.065363 0.086875,-0.064625 0.055619,-0.040306 0.1281654,0.066834 0.16875,0.0095 0.030108,-0.048277 0.090082,0.032093 0.131125,0.04125 0.013436,0.043092 -0.00382,0.088124 0.061666,0.065875 0.046565,0.0093 0.093846,-0.020012 0.1360841,0.00212 0.053007,0.00216 0.079473,-0.060307 0.1045,-0.100125 0.068118,-0.029137 0.1001292,-0.1048928 0.102,-0.175 0.01736,-0.03923 0.022762,-0.094937 -0.006,-0.133 -0.016551,-0.060311 -0.060113,-0.126281 -0.131,-0.122 -0.035649,-0.024142 -0.087084,0.015578 -0.121,-0.02 -0.00685,-0.052886 -0.1136668,-0.027543 -0.076,-0.096 0.022655,-0.063651 -0.078619,-0.111019 -0.08,-0.172 -0.00428,-0.041388 0.027625,-0.1002092 -0.035,-0.128 -0.037232,-0.060196 -0.106264,-0.1090021 -0.18,-0.099 10e-4,-0.00367 0.002,-0.00733 0.003,-0.011 z m -0.388,1.0496 c 0.057491,0.011477 0.036655,0.082601 0.087,0.116 0.021411,0.079011 -0.073411,-0.00903 -0.08,-0.042 -0.0062,-0.022717 -0.058052,-0.068525 -0.007,-0.074 z m 0.168,0.062 c 0.059956,0.026973 0.118479,-0.004 0.174,0.018 0.00497,0.034947 -0.053143,0.1128808 -0.072,0.044 -0.030316,0.032387 -0.1285392,-0.015842 -0.101,-0.062 z"/>
   </g>
  </g>
 </g>
</svg>
